ISO-10303-21;
HEADER;
FILE_DESCRIPTION(('FreeCAD Model'),'2;1');
FILE_NAME('Open CASCADE Shape Model','2026-08-02T17:12:43',('FreeCAD'),(
    'FreeCAD'),'Open CASCADE STEP processor 7.8','FreeCAD','Unknown');
FILE_SCHEMA(('AUTOMOTIVE_DESIGN { 1 0 10303 214 1 1 1 1 }'));
ENDSEC;
DATA;
#1 = APPLICATION_PROTOCOL_DEFINITION('international standard',
  'automotive_design',2000,#2);
#2 = APPLICATION_CONTEXT(
  'core data for automotive mechanical design processes');
#3 = SHAPE_DEFINITION_REPRESENTATION(#4,#10);
#4 = PRODUCT_DEFINITION_SHAPE('','',#5);
#5 = PRODUCT_DEFINITION('design','',#6,#9);
#6 = PRODUCT_DEFINITION_FORMATION('','',#7);
#7 = PRODUCT('Open CASCADE STEP translator 7.8 5',
  'Open CASCADE STEP translator 7.8 5','',(#8));
#8 = PRODUCT_CONTEXT('',#2,'mechanical');
#9 = PRODUCT_DEFINITION_CONTEXT('part definition',#2,'design');
#10 = ADVANCED_BREP_SHAPE_REPRESENTATION('',(#11,#15),#2071);
#11 = AXIS2_PLACEMENT_3D('',#12,#13,#14);
#12 = CARTESIAN_POINT('',(0.,0.,0.));
#13 = DIRECTION('',(0.,0.,1.));
#14 = DIRECTION('',(1.,0.,-0.));
#15 = MANIFOLD_SOLID_BREP('',#16);
#16 = CLOSED_SHELL('',(#17,#57,#248,#370,#691,#708,#725,#765,#789,#813,
    #830,#936,#953,#970,#987,#1004,#1021,#1033,#1067,#1101,#1135,#1169,
    #1205,#1231,#1248,#1281,#1307,#1348,#1382,#1408,#1484,#1527,#1545,
    #1623,#1643,#1682,#1717,#1735,#1813,#1831,#1849,#1861,#1873,#1906,
    #1932,#1956,#1983,#2001,#2019,#2031,#2043,#2057));
#17 = ADVANCED_FACE('',(#18),#52,.T.);
#18 = FACE_BOUND('',#19,.T.);
#19 = EDGE_LOOP('',(#20,#30,#38,#46));
#20 = ORIENTED_EDGE('',*,*,#21,.F.);
#21 = EDGE_CURVE('',#22,#24,#26,.T.);
#22 = VERTEX_POINT('',#23);
#23 = CARTESIAN_POINT('',(8.5,2.9,2.3));
#24 = VERTEX_POINT('',#25);
#25 = CARTESIAN_POINT('',(17.8,2.9,2.3));
#26 = LINE('',#27,#28);
#27 = CARTESIAN_POINT('',(8.5,2.9,2.3));
#28 = VECTOR('',#29,1.);
#29 = DIRECTION('',(1.,0.,0.));
#30 = ORIENTED_EDGE('',*,*,#31,.T.);
#31 = EDGE_CURVE('',#22,#32,#34,.T.);
#32 = VERTEX_POINT('',#33);
#33 = CARTESIAN_POINT('',(8.5,5.3,2.3));
#34 = LINE('',#35,#36);
#35 = CARTESIAN_POINT('',(8.5,2.9,2.3));
#36 = VECTOR('',#37,1.);
#37 = DIRECTION('',(0.,1.,0.));
#38 = ORIENTED_EDGE('',*,*,#39,.T.);
#39 = EDGE_CURVE('',#32,#40,#42,.T.);
#40 = VERTEX_POINT('',#41);
#41 = CARTESIAN_POINT('',(17.8,5.3,2.3));
#42 = LINE('',#43,#44);
#43 = CARTESIAN_POINT('',(8.5,5.3,2.3));
#44 = VECTOR('',#45,1.);
#45 = DIRECTION('',(1.,0.,0.));
#46 = ORIENTED_EDGE('',*,*,#47,.T.);
#47 = EDGE_CURVE('',#40,#24,#48,.T.);
#48 = LINE('',#49,#50);
#49 = CARTESIAN_POINT('',(17.8,2.85,2.3));
#50 = VECTOR('',#51,1.);
#51 = DIRECTION('',(0.,-1.,0.));
#52 = PLANE('',#53);
#53 = AXIS2_PLACEMENT_3D('',#54,#55,#56);
#54 = CARTESIAN_POINT('',(8.5,2.9,2.3));
#55 = DIRECTION('',(0.,0.,-1.));
#56 = DIRECTION('',(1.,0.,0.));
#57 = ADVANCED_FACE('',(#58,#199,#210,#221,#232),#243,.T.);
#58 = FACE_BOUND('',#59,.T.);
#59 = EDGE_LOOP('',(#60,#70,#77,#78,#86,#94,#102,#110,#118,#126,#134,
    #142,#150,#158,#167,#175,#184,#192));
#60 = ORIENTED_EDGE('',*,*,#61,.T.);
#61 = EDGE_CURVE('',#62,#64,#66,.T.);
#62 = VERTEX_POINT('',#63);
#63 = CARTESIAN_POINT('',(5.5,2.9,23.3));
#64 = VERTEX_POINT('',#65);
#65 = CARTESIAN_POINT('',(5.5,2.9,5.3));
#66 = LINE('',#67,#68);
#67 = CARTESIAN_POINT('',(5.5,2.9,23.3));
#68 = VECTOR('',#69,1.);
#69 = DIRECTION('',(0.,0.,-1.));
#70 = ORIENTED_EDGE('',*,*,#71,.T.);
#71 = EDGE_CURVE('',#64,#22,#72,.T.);
#72 = CIRCLE('',#73,3.);
#73 = AXIS2_PLACEMENT_3D('',#74,#75,#76);
#74 = CARTESIAN_POINT('',(8.5,2.9,5.3));
#75 = DIRECTION('',(0.,-1.,0.));
#76 = DIRECTION('',(-1.,-0.,-5.921189464667E-16));
#77 = ORIENTED_EDGE('',*,*,#21,.T.);
#78 = ORIENTED_EDGE('',*,*,#79,.T.);
#79 = EDGE_CURVE('',#24,#80,#82,.T.);
#80 = VERTEX_POINT('',#81);
#81 = CARTESIAN_POINT('',(17.8,2.9,5.04999993336));
#82 = LINE('',#83,#84);
#83 = CARTESIAN_POINT('',(17.8,2.9,8.25));
#84 = VECTOR('',#85,1.);
#85 = DIRECTION('',(0.,0.,1.));
#86 = ORIENTED_EDGE('',*,*,#87,.T.);
#87 = EDGE_CURVE('',#80,#88,#90,.T.);
#88 = VERTEX_POINT('',#89);
#89 = CARTESIAN_POINT('',(17.8,2.9,8.2));
#90 = LINE('',#91,#92);
#91 = CARTESIAN_POINT('',(17.8,2.9,8.25));
#92 = VECTOR('',#93,1.);
#93 = DIRECTION('',(0.,0.,1.));
#94 = ORIENTED_EDGE('',*,*,#95,.F.);
#95 = EDGE_CURVE('',#96,#88,#98,.T.);
#96 = VERTEX_POINT('',#97);
#97 = CARTESIAN_POINT('',(18.1,2.9,8.2));
#98 = LINE('',#99,#100);
#99 = CARTESIAN_POINT('',(20.9,2.9,8.2));
#100 = VECTOR('',#101,1.);
#101 = DIRECTION('',(-1.,0.,0.));
#102 = ORIENTED_EDGE('',*,*,#103,.F.);
#103 = EDGE_CURVE('',#104,#96,#106,.T.);
#104 = VERTEX_POINT('',#105);
#105 = CARTESIAN_POINT('',(18.1,2.9,7.86));
#106 = LINE('',#107,#108);
#107 = CARTESIAN_POINT('',(18.1,2.9,7.86));
#108 = VECTOR('',#109,1.);
#109 = DIRECTION('',(0.,0.,1.));
#110 = ORIENTED_EDGE('',*,*,#111,.T.);
#111 = EDGE_CURVE('',#104,#112,#114,.T.);
#112 = VERTEX_POINT('',#113);
#113 = CARTESIAN_POINT('',(29.9,2.9,7.86));
#114 = LINE('',#115,#116);
#115 = CARTESIAN_POINT('',(18.1,2.9,7.86));
#116 = VECTOR('',#117,1.);
#117 = DIRECTION('',(1.,0.,0.));
#118 = ORIENTED_EDGE('',*,*,#119,.T.);
#119 = EDGE_CURVE('',#112,#120,#122,.T.);
#120 = VERTEX_POINT('',#121);
#121 = CARTESIAN_POINT('',(29.9,2.9,8.2));
#122 = LINE('',#123,#124);
#123 = CARTESIAN_POINT('',(29.9,2.9,7.86));
#124 = VECTOR('',#125,1.);
#125 = DIRECTION('',(0.,0.,1.));
#126 = ORIENTED_EDGE('',*,*,#127,.F.);
#127 = EDGE_CURVE('',#128,#120,#130,.T.);
#128 = VERTEX_POINT('',#129);
#129 = CARTESIAN_POINT('',(30.2,2.9,8.2));
#130 = LINE('',#131,#132);
#131 = CARTESIAN_POINT('',(20.9,2.9,8.2));
#132 = VECTOR('',#133,1.);
#133 = DIRECTION('',(-1.,0.,0.));
#134 = ORIENTED_EDGE('',*,*,#135,.F.);
#135 = EDGE_CURVE('',#136,#128,#138,.T.);
#136 = VERTEX_POINT('',#137);
#137 = CARTESIAN_POINT('',(30.2,2.9,5.04999993336));
#138 = LINE('',#139,#140);
#139 = CARTESIAN_POINT('',(30.2,2.9,8.25));
#140 = VECTOR('',#141,1.);
#141 = DIRECTION('',(0.,0.,1.));
#142 = ORIENTED_EDGE('',*,*,#143,.F.);
#143 = EDGE_CURVE('',#144,#136,#146,.T.);
#144 = VERTEX_POINT('',#145);
#145 = CARTESIAN_POINT('',(30.2,2.9,2.3));
#146 = LINE('',#147,#148);
#147 = CARTESIAN_POINT('',(30.2,2.9,8.25));
#148 = VECTOR('',#149,1.);
#149 = DIRECTION('',(0.,0.,1.));
#150 = ORIENTED_EDGE('',*,*,#151,.T.);
#151 = EDGE_CURVE('',#144,#152,#154,.T.);
#152 = VERTEX_POINT('',#153);
#153 = CARTESIAN_POINT('',(39.5,2.9,2.3));
#154 = LINE('',#155,#156);
#155 = CARTESIAN_POINT('',(8.5,2.9,2.3));
#156 = VECTOR('',#157,1.);
#157 = DIRECTION('',(1.,0.,0.));
#158 = ORIENTED_EDGE('',*,*,#159,.T.);
#159 = EDGE_CURVE('',#152,#160,#162,.T.);
#160 = VERTEX_POINT('',#161);
#161 = CARTESIAN_POINT('',(42.5,2.9,5.3));
#162 = CIRCLE('',#163,3.);
#163 = AXIS2_PLACEMENT_3D('',#164,#165,#166);
#164 = CARTESIAN_POINT('',(39.5,2.9,5.3));
#165 = DIRECTION('',(0.,-1.,0.));
#166 = DIRECTION('',(-2.368475785867E-15,-0.,-1.));
#167 = ORIENTED_EDGE('',*,*,#168,.T.);
#168 = EDGE_CURVE('',#160,#169,#171,.T.);
#169 = VERTEX_POINT('',#170);
#170 = CARTESIAN_POINT('',(42.5,2.9,23.3));
#171 = LINE('',#172,#173);
#172 = CARTESIAN_POINT('',(42.5,2.9,5.3));
#173 = VECTOR('',#174,1.);
#174 = DIRECTION('',(0.,0.,1.));
#175 = ORIENTED_EDGE('',*,*,#176,.T.);
#176 = EDGE_CURVE('',#169,#177,#179,.T.);
#177 = VERTEX_POINT('',#178);
#178 = CARTESIAN_POINT('',(39.5,2.9,26.3));
#179 = CIRCLE('',#180,3.);
#180 = AXIS2_PLACEMENT_3D('',#181,#182,#183);
#181 = CARTESIAN_POINT('',(39.5,2.9,23.3));
#182 = DIRECTION('',(0.,-1.,0.));
#183 = DIRECTION('',(1.,0.,-1.184237892934E-15));
#184 = ORIENTED_EDGE('',*,*,#185,.T.);
#185 = EDGE_CURVE('',#177,#186,#188,.T.);
#186 = VERTEX_POINT('',#187);
#187 = CARTESIAN_POINT('',(8.5,2.9,26.3));
#188 = LINE('',#189,#190);
#189 = CARTESIAN_POINT('',(39.5,2.9,26.3));
#190 = VECTOR('',#191,1.);
#191 = DIRECTION('',(-1.,0.,0.));
#192 = ORIENTED_EDGE('',*,*,#193,.T.);
#193 = EDGE_CURVE('',#186,#62,#194,.T.);
#194 = CIRCLE('',#195,3.);
#195 = AXIS2_PLACEMENT_3D('',#196,#197,#198);
#196 = CARTESIAN_POINT('',(8.5,2.9,23.3));
#197 = DIRECTION('',(0.,-1.,0.));
#198 = DIRECTION('',(-5.921189464667E-16,0.,1.));
#199 = FACE_BOUND('',#200,.T.);
#200 = EDGE_LOOP('',(#201));
#201 = ORIENTED_EDGE('',*,*,#202,.T.);
#202 = EDGE_CURVE('',#203,#203,#205,.T.);
#203 = VERTEX_POINT('',#204);
#204 = CARTESIAN_POINT('',(39.5,2.9,24.4));
#205 = CIRCLE('',#206,1.1);
#206 = AXIS2_PLACEMENT_3D('',#207,#208,#209);
#207 = CARTESIAN_POINT('',(39.5,2.9,23.3));
#208 = DIRECTION('',(0.,1.,0.));
#209 = DIRECTION('',(0.,0.,1.));
#210 = FACE_BOUND('',#211,.T.);
#211 = EDGE_LOOP('',(#212));
#212 = ORIENTED_EDGE('',*,*,#213,.T.);
#213 = EDGE_CURVE('',#214,#214,#216,.T.);
#214 = VERTEX_POINT('',#215);
#215 = CARTESIAN_POINT('',(39.5,2.9,6.4));
#216 = CIRCLE('',#217,1.1);
#217 = AXIS2_PLACEMENT_3D('',#218,#219,#220);
#218 = CARTESIAN_POINT('',(39.5,2.9,5.3));
#219 = DIRECTION('',(0.,1.,0.));
#220 = DIRECTION('',(0.,0.,1.));
#221 = FACE_BOUND('',#222,.T.);
#222 = EDGE_LOOP('',(#223));
#223 = ORIENTED_EDGE('',*,*,#224,.T.);
#224 = EDGE_CURVE('',#225,#225,#227,.T.);
#225 = VERTEX_POINT('',#226);
#226 = CARTESIAN_POINT('',(8.5,2.9,24.4));
#227 = CIRCLE('',#228,1.1);
#228 = AXIS2_PLACEMENT_3D('',#229,#230,#231);
#229 = CARTESIAN_POINT('',(8.5,2.9,23.3));
#230 = DIRECTION('',(0.,1.,0.));
#231 = DIRECTION('',(0.,0.,1.));
#232 = FACE_BOUND('',#233,.T.);
#233 = EDGE_LOOP('',(#234));
#234 = ORIENTED_EDGE('',*,*,#235,.T.);
#235 = EDGE_CURVE('',#236,#236,#238,.T.);
#236 = VERTEX_POINT('',#237);
#237 = CARTESIAN_POINT('',(8.5,2.9,6.4));
#238 = CIRCLE('',#239,1.1);
#239 = AXIS2_PLACEMENT_3D('',#240,#241,#242);
#240 = CARTESIAN_POINT('',(8.5,2.9,5.3));
#241 = DIRECTION('',(0.,1.,0.));
#242 = DIRECTION('',(0.,0.,1.));
#243 = PLANE('',#244);
#244 = AXIS2_PLACEMENT_3D('',#245,#246,#247);
#245 = CARTESIAN_POINT('',(24.,2.9,13.975439652));
#246 = DIRECTION('',(-0.,-1.,-0.));
#247 = DIRECTION('',(0.,0.,-1.));
#248 = ADVANCED_FACE('',(#249,#329),#365,.T.);
#249 = FACE_BOUND('',#250,.T.);
#250 = EDGE_LOOP('',(#251,#259,#260,#261,#262,#270,#279,#288,#296,#305,
    #314,#323));
#251 = ORIENTED_EDGE('',*,*,#252,.F.);
#252 = EDGE_CURVE('',#88,#253,#255,.T.);
#253 = VERTEX_POINT('',#254);
#254 = CARTESIAN_POINT('',(17.8,5.3,8.2));
#255 = LINE('',#256,#257);
#256 = CARTESIAN_POINT('',(17.8,2.8,8.2));
#257 = VECTOR('',#258,1.);
#258 = DIRECTION('',(0.,1.,0.));
#259 = ORIENTED_EDGE('',*,*,#87,.F.);
#260 = ORIENTED_EDGE('',*,*,#79,.F.);
#261 = ORIENTED_EDGE('',*,*,#47,.F.);
#262 = ORIENTED_EDGE('',*,*,#263,.T.);
#263 = EDGE_CURVE('',#40,#264,#266,.T.);
#264 = VERTEX_POINT('',#265);
#265 = CARTESIAN_POINT('',(17.8,5.3,2.322363660603));
#266 = LINE('',#267,#268);
#267 = CARTESIAN_POINT('',(17.8,5.3,8.25));
#268 = VECTOR('',#269,1.);
#269 = DIRECTION('',(0.,0.,1.));
#270 = ORIENTED_EDGE('',*,*,#271,.T.);
#271 = EDGE_CURVE('',#264,#272,#274,.T.);
#272 = VERTEX_POINT('',#273);
#273 = CARTESIAN_POINT('',(17.8,5.4,2.311387212474));
#274 = CIRCLE('',#275,2.75);
#275 = AXIS2_PLACEMENT_3D('',#276,#277,#278);
#276 = CARTESIAN_POINT('',(17.8,5.65,5.05));
#277 = DIRECTION('',(1.,0.,-0.));
#278 = DIRECTION('',(0.,0.,1.));
#279 = ORIENTED_EDGE('',*,*,#280,.T.);
#280 = EDGE_CURVE('',#272,#281,#283,.T.);
#281 = VERTEX_POINT('',#282);
#282 = CARTESIAN_POINT('',(17.8,7.9,3.468861169916));
#283 = CIRCLE('',#284,2.75);
#284 = AXIS2_PLACEMENT_3D('',#285,#286,#287);
#285 = CARTESIAN_POINT('',(17.8,5.65,5.05));
#286 = DIRECTION('',(1.,0.,-0.));
#287 = DIRECTION('',(0.,0.,1.));
#288 = ORIENTED_EDGE('',*,*,#289,.T.);
#289 = EDGE_CURVE('',#281,#290,#292,.T.);
#290 = VERTEX_POINT('',#291);
#291 = CARTESIAN_POINT('',(17.8,7.9,6.631138830084));
#292 = LINE('',#293,#294);
#293 = CARTESIAN_POINT('',(17.8,7.9,3.175));
#294 = VECTOR('',#295,1.);
#295 = DIRECTION('',(0.,0.,1.));
#296 = ORIENTED_EDGE('',*,*,#297,.T.);
#297 = EDGE_CURVE('',#290,#298,#300,.T.);
#298 = VERTEX_POINT('',#299);
#299 = CARTESIAN_POINT('',(17.8,5.65,7.8));
#300 = CIRCLE('',#301,2.75);
#301 = AXIS2_PLACEMENT_3D('',#302,#303,#304);
#302 = CARTESIAN_POINT('',(17.8,5.65,5.05));
#303 = DIRECTION('',(1.,0.,-0.));
#304 = DIRECTION('',(0.,0.,1.));
#305 = ORIENTED_EDGE('',*,*,#306,.T.);
#306 = EDGE_CURVE('',#298,#307,#309,.T.);
#307 = VERTEX_POINT('',#308);
#308 = CARTESIAN_POINT('',(17.8,5.4,7.788612787526));
#309 = CIRCLE('',#310,2.75);
#310 = AXIS2_PLACEMENT_3D('',#311,#312,#313);
#311 = CARTESIAN_POINT('',(17.8,5.65,5.05));
#312 = DIRECTION('',(1.,0.,-0.));
#313 = DIRECTION('',(0.,0.,1.));
#314 = ORIENTED_EDGE('',*,*,#315,.T.);
#315 = EDGE_CURVE('',#307,#316,#318,.T.);
#316 = VERTEX_POINT('',#317);
#317 = CARTESIAN_POINT('',(17.8,5.3,7.777636339397));
#318 = CIRCLE('',#319,2.75);
#319 = AXIS2_PLACEMENT_3D('',#320,#321,#322);
#320 = CARTESIAN_POINT('',(17.8,5.65,5.05));
#321 = DIRECTION('',(1.,0.,-0.));
#322 = DIRECTION('',(0.,0.,1.));
#323 = ORIENTED_EDGE('',*,*,#324,.T.);
#324 = EDGE_CURVE('',#316,#253,#325,.T.);
#325 = LINE('',#326,#327);
#326 = CARTESIAN_POINT('',(17.8,5.3,8.25));
#327 = VECTOR('',#328,1.);
#328 = DIRECTION('',(0.,0.,1.));
#329 = FACE_BOUND('',#330,.T.);
#330 = EDGE_LOOP('',(#331,#342,#350,#358));
#331 = ORIENTED_EDGE('',*,*,#332,.T.);
#332 = EDGE_CURVE('',#333,#335,#337,.T.);
#333 = VERTEX_POINT('',#334);
#334 = CARTESIAN_POINT('',(17.8,5.65,3.808333333333));
#335 = VERTEX_POINT('',#336);
#336 = CARTESIAN_POINT('',(17.8,6.877556640016,5.236656922357));
#337 = CIRCLE('',#338,1.241666666667);
#338 = AXIS2_PLACEMENT_3D('',#339,#340,#341);
#339 = CARTESIAN_POINT('',(17.8,5.65,5.05));
#340 = DIRECTION('',(-1.,0.,0.));
#341 = DIRECTION('',(0.,0.,-1.));
#342 = ORIENTED_EDGE('',*,*,#343,.T.);
#343 = EDGE_CURVE('',#335,#344,#346,.T.);
#344 = VERTEX_POINT('',#345);
#345 = CARTESIAN_POINT('',(17.8,7.064213562373,5.05));
#346 = LINE('',#347,#348);
#347 = CARTESIAN_POINT('',(17.8,6.53988248189,5.574331080483));
#348 = VECTOR('',#349,1.);
#349 = DIRECTION('',(0.,0.707106781187,-0.707106781187));
#350 = ORIENTED_EDGE('',*,*,#351,.T.);
#351 = EDGE_CURVE('',#344,#352,#354,.T.);
#352 = VERTEX_POINT('',#353);
#353 = CARTESIAN_POINT('',(17.8,6.877556640016,4.863343077643));
#354 = LINE('',#355,#356);
#355 = CARTESIAN_POINT('',(17.8,6.268933660696,4.254720098323));
#356 = VECTOR('',#357,1.);
#357 = DIRECTION('',(0.,-0.707106781187,-0.707106781187));
#358 = ORIENTED_EDGE('',*,*,#359,.T.);
#359 = EDGE_CURVE('',#352,#333,#360,.T.);
#360 = CIRCLE('',#361,1.241666666667);
#361 = AXIS2_PLACEMENT_3D('',#362,#363,#364);
#362 = CARTESIAN_POINT('',(17.8,5.65,5.05));
#363 = DIRECTION('',(-1.,0.,0.));
#364 = DIRECTION('',(0.,0.,-1.));
#365 = PLANE('',#366);
#366 = AXIS2_PLACEMENT_3D('',#367,#368,#369);
#367 = CARTESIAN_POINT('',(17.8,5.13209837924,5.215209138799));
#368 = DIRECTION('',(1.,0.,0.));
#369 = DIRECTION('',(0.,0.,1.));
#370 = ADVANCED_FACE('',(#371,#664,#675),#686,.F.);
#371 = FACE_BOUND('',#372,.F.);
#372 = EDGE_LOOP('',(#373,#383,#392,#400,#409,#417,#424,#425,#426,#434,
    #442,#451,#459,#467,#476,#485,#493,#501,#510,#518,#524,#525,#533,
    #541,#549,#557,#566,#574,#582,#591,#600,#608,#616,#625,#633,#641,
    #649,#657));
#373 = ORIENTED_EDGE('',*,*,#374,.T.);
#374 = EDGE_CURVE('',#375,#377,#379,.T.);
#375 = VERTEX_POINT('',#376);
#376 = CARTESIAN_POINT('',(42.5,5.3,5.3));
#377 = VERTEX_POINT('',#378);
#378 = CARTESIAN_POINT('',(42.5,5.3,23.3));
#379 = LINE('',#380,#381);
#380 = CARTESIAN_POINT('',(42.5,5.3,5.3));
#381 = VECTOR('',#382,1.);
#382 = DIRECTION('',(0.,0.,1.));
#383 = ORIENTED_EDGE('',*,*,#384,.T.);
#384 = EDGE_CURVE('',#377,#385,#387,.T.);
#385 = VERTEX_POINT('',#386);
#386 = CARTESIAN_POINT('',(39.5,5.3,26.3));
#387 = CIRCLE('',#388,3.);
#388 = AXIS2_PLACEMENT_3D('',#389,#390,#391);
#389 = CARTESIAN_POINT('',(39.5,5.3,23.3));
#390 = DIRECTION('',(0.,-1.,0.));
#391 = DIRECTION('',(1.,0.,-1.184237892934E-15));
#392 = ORIENTED_EDGE('',*,*,#393,.T.);
#393 = EDGE_CURVE('',#385,#394,#396,.T.);
#394 = VERTEX_POINT('',#395);
#395 = CARTESIAN_POINT('',(8.5,5.3,26.3));
#396 = LINE('',#397,#398);
#397 = CARTESIAN_POINT('',(39.5,5.3,26.3));
#398 = VECTOR('',#399,1.);
#399 = DIRECTION('',(-1.,0.,0.));
#400 = ORIENTED_EDGE('',*,*,#401,.T.);
#401 = EDGE_CURVE('',#394,#402,#404,.T.);
#402 = VERTEX_POINT('',#403);
#403 = CARTESIAN_POINT('',(5.5,5.3,23.3));
#404 = CIRCLE('',#405,3.);
#405 = AXIS2_PLACEMENT_3D('',#406,#407,#408);
#406 = CARTESIAN_POINT('',(8.5,5.3,23.3));
#407 = DIRECTION('',(0.,-1.,0.));
#408 = DIRECTION('',(-5.921189464667E-16,0.,1.));
#409 = ORIENTED_EDGE('',*,*,#410,.T.);
#410 = EDGE_CURVE('',#402,#411,#413,.T.);
#411 = VERTEX_POINT('',#412);
#412 = CARTESIAN_POINT('',(5.5,5.3,5.3));
#413 = LINE('',#414,#415);
#414 = CARTESIAN_POINT('',(5.5,5.3,23.3));
#415 = VECTOR('',#416,1.);
#416 = DIRECTION('',(0.,0.,-1.));
#417 = ORIENTED_EDGE('',*,*,#418,.T.);
#418 = EDGE_CURVE('',#411,#32,#419,.T.);
#419 = CIRCLE('',#420,3.);
#420 = AXIS2_PLACEMENT_3D('',#421,#422,#423);
#421 = CARTESIAN_POINT('',(8.5,5.3,5.3));
#422 = DIRECTION('',(0.,-1.,0.));
#423 = DIRECTION('',(-1.,-0.,-5.921189464667E-16));
#424 = ORIENTED_EDGE('',*,*,#39,.T.);
#425 = ORIENTED_EDGE('',*,*,#263,.T.);
#426 = ORIENTED_EDGE('',*,*,#427,.F.);
#427 = EDGE_CURVE('',#428,#264,#430,.T.);
#428 = VERTEX_POINT('',#429);
#429 = CARTESIAN_POINT('',(11.7,5.3,2.322363660603));
#430 = LINE('',#431,#432);
#431 = CARTESIAN_POINT('',(11.7,5.3,2.322363660603));
#432 = VECTOR('',#433,1.);
#433 = DIRECTION('',(1.,0.,0.));
#434 = ORIENTED_EDGE('',*,*,#435,.T.);
#435 = EDGE_CURVE('',#428,#436,#438,.T.);
#436 = VERTEX_POINT('',#437);
#437 = CARTESIAN_POINT('',(11.7,5.3,3.858683034994));
#438 = LINE('',#439,#440);
#439 = CARTESIAN_POINT('',(11.7,5.3,9.675));
#440 = VECTOR('',#441,1.);
#441 = DIRECTION('',(0.,0.,1.));
#442 = ORIENTED_EDGE('',*,*,#443,.T.);
#443 = EDGE_CURVE('',#436,#444,#446,.T.);
#444 = VERTEX_POINT('',#445);
#445 = CARTESIAN_POINT('',(11.69,5.3,3.85));
#446 = HYPERBOLA('',#447,0.42,0.35);
#447 = AXIS2_PLACEMENT_3D('',#448,#449,#450);
#448 = CARTESIAN_POINT('',(13.19,5.3,5.05));
#449 = DIRECTION('',(-0.,-1.,-0.));
#450 = DIRECTION('',(-1.,0.,0.));
#451 = ORIENTED_EDGE('',*,*,#452,.T.);
#452 = EDGE_CURVE('',#444,#453,#455,.T.);
#453 = VERTEX_POINT('',#454);
#454 = CARTESIAN_POINT('',(11.69,5.3,4.11325030024));
#455 = LINE('',#456,#457);
#456 = CARTESIAN_POINT('',(11.69,5.3,9.675));
#457 = VECTOR('',#458,1.);
#458 = DIRECTION('',(0.,0.,1.));
#459 = ORIENTED_EDGE('',*,*,#460,.F.);
#460 = EDGE_CURVE('',#461,#453,#463,.T.);
#461 = VERTEX_POINT('',#462);
#462 = CARTESIAN_POINT('',(10.099768251687,5.3,4.11325030024));
#463 = LINE('',#464,#465);
#464 = CARTESIAN_POINT('',(8.38,5.3,4.11325030024));
#465 = VECTOR('',#466,1.);
#466 = DIRECTION('',(1.,0.,0.));
#467 = ORIENTED_EDGE('',*,*,#468,.F.);
#468 = EDGE_CURVE('',#469,#461,#471,.T.);
#469 = VERTEX_POINT('',#470);
#470 = CARTESIAN_POINT('',(8.5,5.3,3.308108108108));
#471 = CIRCLE('',#472,1.991891891892);
#472 = AXIS2_PLACEMENT_3D('',#473,#474,#475);
#473 = CARTESIAN_POINT('',(8.5,5.3,5.3));
#474 = DIRECTION('',(0.,-1.,0.));
#475 = DIRECTION('',(0.,0.,-1.));
#476 = ORIENTED_EDGE('',*,*,#477,.F.);
#477 = EDGE_CURVE('',#478,#469,#480,.T.);
#478 = VERTEX_POINT('',#479);
#479 = CARTESIAN_POINT('',(10.369761524597,5.3,5.98674969976));
#480 = CIRCLE('',#481,1.991891891892);
#481 = AXIS2_PLACEMENT_3D('',#482,#483,#484);
#482 = CARTESIAN_POINT('',(8.5,5.3,5.3));
#483 = DIRECTION('',(0.,-1.,0.));
#484 = DIRECTION('',(0.,0.,-1.));
#485 = ORIENTED_EDGE('',*,*,#486,.T.);
#486 = EDGE_CURVE('',#478,#487,#489,.T.);
#487 = VERTEX_POINT('',#488);
#488 = CARTESIAN_POINT('',(11.69,5.3,5.98674969976));
#489 = LINE('',#490,#491);
#490 = CARTESIAN_POINT('',(8.38,5.3,5.98674969976));
#491 = VECTOR('',#492,1.);
#492 = DIRECTION('',(1.,0.,0.));
#493 = ORIENTED_EDGE('',*,*,#494,.T.);
#494 = EDGE_CURVE('',#487,#495,#497,.T.);
#495 = VERTEX_POINT('',#496);
#496 = CARTESIAN_POINT('',(11.69,5.3,6.25));
#497 = LINE('',#498,#499);
#498 = CARTESIAN_POINT('',(11.69,5.3,9.675));
#499 = VECTOR('',#500,1.);
#500 = DIRECTION('',(0.,0.,1.));
#501 = ORIENTED_EDGE('',*,*,#502,.T.);
#502 = EDGE_CURVE('',#495,#503,#505,.T.);
#503 = VERTEX_POINT('',#504);
#504 = CARTESIAN_POINT('',(11.7,5.3,6.241316965006));
#505 = HYPERBOLA('',#506,0.42,0.35);
#506 = AXIS2_PLACEMENT_3D('',#507,#508,#509);
#507 = CARTESIAN_POINT('',(13.19,5.3,5.05));
#508 = DIRECTION('',(-0.,-1.,-0.));
#509 = DIRECTION('',(-1.,0.,0.));
#510 = ORIENTED_EDGE('',*,*,#511,.T.);
#511 = EDGE_CURVE('',#503,#512,#514,.T.);
#512 = VERTEX_POINT('',#513);
#513 = CARTESIAN_POINT('',(11.7,5.3,7.777636339397));
#514 = LINE('',#515,#516);
#515 = CARTESIAN_POINT('',(11.7,5.3,9.675));
#516 = VECTOR('',#517,1.);
#517 = DIRECTION('',(0.,0.,1.));
#518 = ORIENTED_EDGE('',*,*,#519,.T.);
#519 = EDGE_CURVE('',#512,#316,#520,.T.);
#520 = LINE('',#521,#522);
#521 = CARTESIAN_POINT('',(11.7,5.3,7.777636339397));
#522 = VECTOR('',#523,1.);
#523 = DIRECTION('',(1.,0.,0.));
#524 = ORIENTED_EDGE('',*,*,#324,.T.);
#525 = ORIENTED_EDGE('',*,*,#526,.F.);
#526 = EDGE_CURVE('',#527,#253,#529,.T.);
#527 = VERTEX_POINT('',#528);
#528 = CARTESIAN_POINT('',(30.2,5.3,8.2));
#529 = LINE('',#530,#531);
#530 = CARTESIAN_POINT('',(20.9,5.3,8.2));
#531 = VECTOR('',#532,1.);
#532 = DIRECTION('',(-1.,0.,0.));
#533 = ORIENTED_EDGE('',*,*,#534,.F.);
#534 = EDGE_CURVE('',#535,#527,#537,.T.);
#535 = VERTEX_POINT('',#536);
#536 = CARTESIAN_POINT('',(30.2,5.3,7.777636339397));
#537 = LINE('',#538,#539);
#538 = CARTESIAN_POINT('',(30.2,5.3,8.25));
#539 = VECTOR('',#540,1.);
#540 = DIRECTION('',(0.,0.,1.));
#541 = ORIENTED_EDGE('',*,*,#542,.T.);
#542 = EDGE_CURVE('',#535,#543,#545,.T.);
#543 = VERTEX_POINT('',#544);
#544 = CARTESIAN_POINT('',(36.3,5.3,7.777636339397));
#545 = LINE('',#546,#547);
#546 = CARTESIAN_POINT('',(30.2,5.3,7.777636339397));
#547 = VECTOR('',#548,1.);
#548 = DIRECTION('',(1.,0.,0.));
#549 = ORIENTED_EDGE('',*,*,#550,.F.);
#550 = EDGE_CURVE('',#551,#543,#553,.T.);
#551 = VERTEX_POINT('',#552);
#552 = CARTESIAN_POINT('',(36.3,5.3,6.241316965006));
#553 = LINE('',#554,#555);
#554 = CARTESIAN_POINT('',(36.3,5.3,9.675));
#555 = VECTOR('',#556,1.);
#556 = DIRECTION('',(0.,0.,1.));
#557 = ORIENTED_EDGE('',*,*,#558,.T.);
#558 = EDGE_CURVE('',#551,#559,#561,.T.);
#559 = VERTEX_POINT('',#560);
#560 = CARTESIAN_POINT('',(36.31,5.3,6.25));
#561 = HYPERBOLA('',#562,0.42,0.35);
#562 = AXIS2_PLACEMENT_3D('',#563,#564,#565);
#563 = CARTESIAN_POINT('',(34.81,5.3,5.05));
#564 = DIRECTION('',(0.,-1.,0.));
#565 = DIRECTION('',(1.,0.,0.));
#566 = ORIENTED_EDGE('',*,*,#567,.T.);
#567 = EDGE_CURVE('',#559,#568,#570,.T.);
#568 = VERTEX_POINT('',#569);
#569 = CARTESIAN_POINT('',(36.31,5.3,5.98674969976));
#570 = LINE('',#571,#572);
#571 = CARTESIAN_POINT('',(36.31,5.3,9.675));
#572 = VECTOR('',#573,1.);
#573 = DIRECTION('',(0.,0.,-1.));
#574 = ORIENTED_EDGE('',*,*,#575,.F.);
#575 = EDGE_CURVE('',#576,#568,#578,.T.);
#576 = VERTEX_POINT('',#577);
#577 = CARTESIAN_POINT('',(37.630238475403,5.3,5.98674969976));
#578 = LINE('',#579,#580);
#579 = CARTESIAN_POINT('',(39.62,5.3,5.98674969976));
#580 = VECTOR('',#581,1.);
#581 = DIRECTION('',(-1.,0.,0.));
#582 = ORIENTED_EDGE('',*,*,#583,.F.);
#583 = EDGE_CURVE('',#584,#576,#586,.T.);
#584 = VERTEX_POINT('',#585);
#585 = CARTESIAN_POINT('',(39.5,5.3,3.308108108108));
#586 = CIRCLE('',#587,1.991891891892);
#587 = AXIS2_PLACEMENT_3D('',#588,#589,#590);
#588 = CARTESIAN_POINT('',(39.5,5.3,5.3));
#589 = DIRECTION('',(0.,-1.,0.));
#590 = DIRECTION('',(0.,0.,-1.));
#591 = ORIENTED_EDGE('',*,*,#592,.F.);
#592 = EDGE_CURVE('',#593,#584,#595,.T.);
#593 = VERTEX_POINT('',#594);
#594 = CARTESIAN_POINT('',(37.900231748313,5.3,4.11325030024));
#595 = CIRCLE('',#596,1.991891891892);
#596 = AXIS2_PLACEMENT_3D('',#597,#598,#599);
#597 = CARTESIAN_POINT('',(39.5,5.3,5.3));
#598 = DIRECTION('',(0.,-1.,0.));
#599 = DIRECTION('',(0.,0.,-1.));
#600 = ORIENTED_EDGE('',*,*,#601,.T.);
#601 = EDGE_CURVE('',#593,#602,#604,.T.);
#602 = VERTEX_POINT('',#603);
#603 = CARTESIAN_POINT('',(36.31,5.3,4.11325030024));
#604 = LINE('',#605,#606);
#605 = CARTESIAN_POINT('',(39.62,5.3,4.11325030024));
#606 = VECTOR('',#607,1.);
#607 = DIRECTION('',(-1.,0.,0.));
#608 = ORIENTED_EDGE('',*,*,#609,.T.);
#609 = EDGE_CURVE('',#602,#610,#612,.T.);
#610 = VERTEX_POINT('',#611);
#611 = CARTESIAN_POINT('',(36.31,5.3,3.85));
#612 = LINE('',#613,#614);
#613 = CARTESIAN_POINT('',(36.31,5.3,9.675));
#614 = VECTOR('',#615,1.);
#615 = DIRECTION('',(0.,0.,-1.));
#616 = ORIENTED_EDGE('',*,*,#617,.T.);
#617 = EDGE_CURVE('',#610,#618,#620,.T.);
#618 = VERTEX_POINT('',#619);
#619 = CARTESIAN_POINT('',(36.3,5.3,3.858683034994));
#620 = HYPERBOLA('',#621,0.42,0.35);
#621 = AXIS2_PLACEMENT_3D('',#622,#623,#624);
#622 = CARTESIAN_POINT('',(34.81,5.3,5.05));
#623 = DIRECTION('',(0.,-1.,0.));
#624 = DIRECTION('',(1.,0.,0.));
#625 = ORIENTED_EDGE('',*,*,#626,.F.);
#626 = EDGE_CURVE('',#627,#618,#629,.T.);
#627 = VERTEX_POINT('',#628);
#628 = CARTESIAN_POINT('',(36.3,5.3,2.322363660603));
#629 = LINE('',#630,#631);
#630 = CARTESIAN_POINT('',(36.3,5.3,9.675));
#631 = VECTOR('',#632,1.);
#632 = DIRECTION('',(0.,0.,1.));
#633 = ORIENTED_EDGE('',*,*,#634,.F.);
#634 = EDGE_CURVE('',#635,#627,#637,.T.);
#635 = VERTEX_POINT('',#636);
#636 = CARTESIAN_POINT('',(30.2,5.3,2.322363660603));
#637 = LINE('',#638,#639);
#638 = CARTESIAN_POINT('',(30.2,5.3,2.322363660603));
#639 = VECTOR('',#640,1.);
#640 = DIRECTION('',(1.,0.,0.));
#641 = ORIENTED_EDGE('',*,*,#642,.F.);
#642 = EDGE_CURVE('',#643,#635,#645,.T.);
#643 = VERTEX_POINT('',#644);
#644 = CARTESIAN_POINT('',(30.2,5.3,2.3));
#645 = LINE('',#646,#647);
#646 = CARTESIAN_POINT('',(30.2,5.3,8.25));
#647 = VECTOR('',#648,1.);
#648 = DIRECTION('',(0.,0.,1.));
#649 = ORIENTED_EDGE('',*,*,#650,.T.);
#650 = EDGE_CURVE('',#643,#651,#653,.T.);
#651 = VERTEX_POINT('',#652);
#652 = CARTESIAN_POINT('',(39.5,5.3,2.3));
#653 = LINE('',#654,#655);
#654 = CARTESIAN_POINT('',(8.5,5.3,2.3));
#655 = VECTOR('',#656,1.);
#656 = DIRECTION('',(1.,0.,0.));
#657 = ORIENTED_EDGE('',*,*,#658,.T.);
#658 = EDGE_CURVE('',#651,#375,#659,.T.);
#659 = CIRCLE('',#660,3.);
#660 = AXIS2_PLACEMENT_3D('',#661,#662,#663);
#661 = CARTESIAN_POINT('',(39.5,5.3,5.3));
#662 = DIRECTION('',(0.,-1.,0.));
#663 = DIRECTION('',(-2.368475785867E-15,-0.,-1.));
#664 = FACE_BOUND('',#665,.F.);
#665 = EDGE_LOOP('',(#666));
#666 = ORIENTED_EDGE('',*,*,#667,.F.);
#667 = EDGE_CURVE('',#668,#668,#670,.T.);
#668 = VERTEX_POINT('',#669);
#669 = CARTESIAN_POINT('',(8.5,5.3,21.308108108108));
#670 = CIRCLE('',#671,1.991891891892);
#671 = AXIS2_PLACEMENT_3D('',#672,#673,#674);
#672 = CARTESIAN_POINT('',(8.5,5.3,23.3));
#673 = DIRECTION('',(0.,-1.,0.));
#674 = DIRECTION('',(0.,0.,-1.));
#675 = FACE_BOUND('',#676,.F.);
#676 = EDGE_LOOP('',(#677));
#677 = ORIENTED_EDGE('',*,*,#678,.F.);
#678 = EDGE_CURVE('',#679,#679,#681,.T.);
#679 = VERTEX_POINT('',#680);
#680 = CARTESIAN_POINT('',(39.5,5.3,21.308108108108));
#681 = CIRCLE('',#682,1.991891891892);
#682 = AXIS2_PLACEMENT_3D('',#683,#684,#685);
#683 = CARTESIAN_POINT('',(39.5,5.3,23.3));
#684 = DIRECTION('',(0.,-1.,0.));
#685 = DIRECTION('',(0.,0.,-1.));
#686 = PLANE('',#687);
#687 = AXIS2_PLACEMENT_3D('',#688,#689,#690);
#688 = CARTESIAN_POINT('',(24.,5.3,14.3));
#689 = DIRECTION('',(-0.,-1.,-0.));
#690 = DIRECTION('',(0.,0.,-1.));
#691 = ADVANCED_FACE('',(#692),#703,.T.);
#692 = FACE_BOUND('',#693,.T.);
#693 = EDGE_LOOP('',(#694,#700,#701,#702));
#694 = ORIENTED_EDGE('',*,*,#695,.T.);
#695 = EDGE_CURVE('',#64,#411,#696,.T.);
#696 = LINE('',#697,#698);
#697 = CARTESIAN_POINT('',(5.5,2.9,5.3));
#698 = VECTOR('',#699,1.);
#699 = DIRECTION('',(0.,1.,0.));
#700 = ORIENTED_EDGE('',*,*,#418,.T.);
#701 = ORIENTED_EDGE('',*,*,#31,.F.);
#702 = ORIENTED_EDGE('',*,*,#71,.F.);
#703 = CYLINDRICAL_SURFACE('',#704,3.);
#704 = AXIS2_PLACEMENT_3D('',#705,#706,#707);
#705 = CARTESIAN_POINT('',(8.5,2.9,5.3));
#706 = DIRECTION('',(0.,-1.,0.));
#707 = DIRECTION('',(-1.,-0.,-5.921189464667E-16));
#708 = ADVANCED_FACE('',(#709),#720,.T.);
#709 = FACE_BOUND('',#710,.T.);
#710 = EDGE_LOOP('',(#711,#717,#718,#719));
#711 = ORIENTED_EDGE('',*,*,#712,.T.);
#712 = EDGE_CURVE('',#62,#402,#713,.T.);
#713 = LINE('',#714,#715);
#714 = CARTESIAN_POINT('',(5.5,2.9,23.3));
#715 = VECTOR('',#716,1.);
#716 = DIRECTION('',(0.,1.,0.));
#717 = ORIENTED_EDGE('',*,*,#410,.T.);
#718 = ORIENTED_EDGE('',*,*,#695,.F.);
#719 = ORIENTED_EDGE('',*,*,#61,.F.);
#720 = PLANE('',#721);
#721 = AXIS2_PLACEMENT_3D('',#722,#723,#724);
#722 = CARTESIAN_POINT('',(5.5,2.9,23.3));
#723 = DIRECTION('',(-1.,0.,0.));
#724 = DIRECTION('',(0.,0.,-1.));
#725 = ADVANCED_FACE('',(#726),#760,.F.);
#726 = FACE_BOUND('',#727,.F.);
#727 = EDGE_LOOP('',(#728,#729,#730,#738,#746,#752,#753,#759));
#728 = ORIENTED_EDGE('',*,*,#252,.F.);
#729 = ORIENTED_EDGE('',*,*,#95,.F.);
#730 = ORIENTED_EDGE('',*,*,#731,.T.);
#731 = EDGE_CURVE('',#96,#732,#734,.T.);
#732 = VERTEX_POINT('',#733);
#733 = CARTESIAN_POINT('',(18.1,3.7,8.2));
#734 = LINE('',#735,#736);
#735 = CARTESIAN_POINT('',(18.1,2.85,8.2));
#736 = VECTOR('',#737,1.);
#737 = DIRECTION('',(0.,1.,0.));
#738 = ORIENTED_EDGE('',*,*,#739,.F.);
#739 = EDGE_CURVE('',#740,#732,#742,.T.);
#740 = VERTEX_POINT('',#741);
#741 = CARTESIAN_POINT('',(29.9,3.7,8.2));
#742 = LINE('',#743,#744);
#743 = CARTESIAN_POINT('',(17.95,3.7,8.2));
#744 = VECTOR('',#745,1.);
#745 = DIRECTION('',(-1.,0.,0.));
#746 = ORIENTED_EDGE('',*,*,#747,.F.);
#747 = EDGE_CURVE('',#120,#740,#748,.T.);
#748 = LINE('',#749,#750);
#749 = CARTESIAN_POINT('',(29.9,2.85,8.2));
#750 = VECTOR('',#751,1.);
#751 = DIRECTION('',(0.,1.,0.));
#752 = ORIENTED_EDGE('',*,*,#127,.F.);
#753 = ORIENTED_EDGE('',*,*,#754,.T.);
#754 = EDGE_CURVE('',#128,#527,#755,.T.);
#755 = LINE('',#756,#757);
#756 = CARTESIAN_POINT('',(30.2,2.8,8.2));
#757 = VECTOR('',#758,1.);
#758 = DIRECTION('',(0.,1.,0.));
#759 = ORIENTED_EDGE('',*,*,#526,.T.);
#760 = PLANE('',#761);
#761 = AXIS2_PLACEMENT_3D('',#762,#763,#764);
#762 = CARTESIAN_POINT('',(17.8,2.8,8.2));
#763 = DIRECTION('',(0.,0.,1.));
#764 = DIRECTION('',(1.,0.,0.));
#765 = ADVANCED_FACE('',(#766),#784,.F.);
#766 = FACE_BOUND('',#767,.F.);
#767 = EDGE_LOOP('',(#768,#769,#777,#783));
#768 = ORIENTED_EDGE('',*,*,#103,.F.);
#769 = ORIENTED_EDGE('',*,*,#770,.T.);
#770 = EDGE_CURVE('',#104,#771,#773,.T.);
#771 = VERTEX_POINT('',#772);
#772 = CARTESIAN_POINT('',(18.1,3.7,7.86));
#773 = LINE('',#774,#775);
#774 = CARTESIAN_POINT('',(18.1,2.9,7.86));
#775 = VECTOR('',#776,1.);
#776 = DIRECTION('',(0.,1.,0.));
#777 = ORIENTED_EDGE('',*,*,#778,.T.);
#778 = EDGE_CURVE('',#771,#732,#779,.T.);
#779 = LINE('',#780,#781);
#780 = CARTESIAN_POINT('',(18.1,3.7,7.86));
#781 = VECTOR('',#782,1.);
#782 = DIRECTION('',(0.,0.,1.));
#783 = ORIENTED_EDGE('',*,*,#731,.F.);
#784 = PLANE('',#785);
#785 = AXIS2_PLACEMENT_3D('',#786,#787,#788);
#786 = CARTESIAN_POINT('',(18.1,2.9,7.86));
#787 = DIRECTION('',(1.,0.,0.));
#788 = DIRECTION('',(0.,0.,1.));
#789 = ADVANCED_FACE('',(#790),#808,.F.);
#790 = FACE_BOUND('',#791,.F.);
#791 = EDGE_LOOP('',(#792,#793,#794,#802));
#792 = ORIENTED_EDGE('',*,*,#770,.F.);
#793 = ORIENTED_EDGE('',*,*,#111,.T.);
#794 = ORIENTED_EDGE('',*,*,#795,.T.);
#795 = EDGE_CURVE('',#112,#796,#798,.T.);
#796 = VERTEX_POINT('',#797);
#797 = CARTESIAN_POINT('',(29.9,3.7,7.86));
#798 = LINE('',#799,#800);
#799 = CARTESIAN_POINT('',(29.9,2.9,7.86));
#800 = VECTOR('',#801,1.);
#801 = DIRECTION('',(0.,1.,0.));
#802 = ORIENTED_EDGE('',*,*,#803,.F.);
#803 = EDGE_CURVE('',#771,#796,#804,.T.);
#804 = LINE('',#805,#806);
#805 = CARTESIAN_POINT('',(18.1,3.7,7.86));
#806 = VECTOR('',#807,1.);
#807 = DIRECTION('',(1.,0.,0.));
#808 = PLANE('',#809);
#809 = AXIS2_PLACEMENT_3D('',#810,#811,#812);
#810 = CARTESIAN_POINT('',(18.1,2.9,7.86));
#811 = DIRECTION('',(0.,0.,1.));
#812 = DIRECTION('',(1.,0.,0.));
#813 = ADVANCED_FACE('',(#814),#825,.T.);
#814 = FACE_BOUND('',#815,.T.);
#815 = EDGE_LOOP('',(#816,#817,#818,#824));
#816 = ORIENTED_EDGE('',*,*,#119,.F.);
#817 = ORIENTED_EDGE('',*,*,#795,.T.);
#818 = ORIENTED_EDGE('',*,*,#819,.T.);
#819 = EDGE_CURVE('',#796,#740,#820,.T.);
#820 = LINE('',#821,#822);
#821 = CARTESIAN_POINT('',(29.9,3.7,7.86));
#822 = VECTOR('',#823,1.);
#823 = DIRECTION('',(0.,0.,1.));
#824 = ORIENTED_EDGE('',*,*,#747,.F.);
#825 = PLANE('',#826);
#826 = AXIS2_PLACEMENT_3D('',#827,#828,#829);
#827 = CARTESIAN_POINT('',(29.9,2.9,7.86));
#828 = DIRECTION('',(1.,0.,0.));
#829 = DIRECTION('',(0.,0.,1.));
#830 = ADVANCED_FACE('',(#831,#895),#931,.T.);
#831 = FACE_BOUND('',#832,.T.);
#832 = EDGE_LOOP('',(#833,#834,#835,#844,#853,#862,#870,#879,#886,#887,
    #893,#894));
#833 = ORIENTED_EDGE('',*,*,#754,.T.);
#834 = ORIENTED_EDGE('',*,*,#534,.F.);
#835 = ORIENTED_EDGE('',*,*,#836,.F.);
#836 = EDGE_CURVE('',#837,#535,#839,.T.);
#837 = VERTEX_POINT('',#838);
#838 = CARTESIAN_POINT('',(30.2,5.4,7.788612787526));
#839 = CIRCLE('',#840,2.75);
#840 = AXIS2_PLACEMENT_3D('',#841,#842,#843);
#841 = CARTESIAN_POINT('',(30.2,5.65,5.05));
#842 = DIRECTION('',(1.,0.,-0.));
#843 = DIRECTION('',(0.,0.,1.));
#844 = ORIENTED_EDGE('',*,*,#845,.F.);
#845 = EDGE_CURVE('',#846,#837,#848,.T.);
#846 = VERTEX_POINT('',#847);
#847 = CARTESIAN_POINT('',(30.2,5.65,7.8));
#848 = CIRCLE('',#849,2.75);
#849 = AXIS2_PLACEMENT_3D('',#850,#851,#852);
#850 = CARTESIAN_POINT('',(30.2,5.65,5.05));
#851 = DIRECTION('',(1.,0.,-0.));
#852 = DIRECTION('',(0.,0.,1.));
#853 = ORIENTED_EDGE('',*,*,#854,.F.);
#854 = EDGE_CURVE('',#855,#846,#857,.T.);
#855 = VERTEX_POINT('',#856);
#856 = CARTESIAN_POINT('',(30.2,7.9,6.631138830084));
#857 = CIRCLE('',#858,2.75);
#858 = AXIS2_PLACEMENT_3D('',#859,#860,#861);
#859 = CARTESIAN_POINT('',(30.2,5.65,5.05));
#860 = DIRECTION('',(1.,0.,-0.));
#861 = DIRECTION('',(0.,0.,1.));
#862 = ORIENTED_EDGE('',*,*,#863,.F.);
#863 = EDGE_CURVE('',#864,#855,#866,.T.);
#864 = VERTEX_POINT('',#865);
#865 = CARTESIAN_POINT('',(30.2,7.9,3.468861169916));
#866 = LINE('',#867,#868);
#867 = CARTESIAN_POINT('',(30.2,7.9,3.175));
#868 = VECTOR('',#869,1.);
#869 = DIRECTION('',(0.,0.,1.));
#870 = ORIENTED_EDGE('',*,*,#871,.F.);
#871 = EDGE_CURVE('',#872,#864,#874,.T.);
#872 = VERTEX_POINT('',#873);
#873 = CARTESIAN_POINT('',(30.2,5.4,2.311387212474));
#874 = CIRCLE('',#875,2.75);
#875 = AXIS2_PLACEMENT_3D('',#876,#877,#878);
#876 = CARTESIAN_POINT('',(30.2,5.65,5.05));
#877 = DIRECTION('',(1.,0.,-0.));
#878 = DIRECTION('',(0.,0.,1.));
#879 = ORIENTED_EDGE('',*,*,#880,.F.);
#880 = EDGE_CURVE('',#635,#872,#881,.T.);
#881 = CIRCLE('',#882,2.75);
#882 = AXIS2_PLACEMENT_3D('',#883,#884,#885);
#883 = CARTESIAN_POINT('',(30.2,5.65,5.05));
#884 = DIRECTION('',(1.,0.,-0.));
#885 = DIRECTION('',(0.,0.,1.));
#886 = ORIENTED_EDGE('',*,*,#642,.F.);
#887 = ORIENTED_EDGE('',*,*,#888,.T.);
#888 = EDGE_CURVE('',#643,#144,#889,.T.);
#889 = LINE('',#890,#891);
#890 = CARTESIAN_POINT('',(30.2,2.85,2.3));
#891 = VECTOR('',#892,1.);
#892 = DIRECTION('',(0.,-1.,0.));
#893 = ORIENTED_EDGE('',*,*,#143,.T.);
#894 = ORIENTED_EDGE('',*,*,#135,.T.);
#895 = FACE_BOUND('',#896,.T.);
#896 = EDGE_LOOP('',(#897,#908,#916,#924));
#897 = ORIENTED_EDGE('',*,*,#898,.T.);
#898 = EDGE_CURVE('',#899,#901,#903,.T.);
#899 = VERTEX_POINT('',#900);
#900 = CARTESIAN_POINT('',(30.2,5.65,6.291666666667));
#901 = VERTEX_POINT('',#902);
#902 = CARTESIAN_POINT('',(30.2,6.877556640016,4.863343077643));
#903 = CIRCLE('',#904,1.241666666667);
#904 = AXIS2_PLACEMENT_3D('',#905,#906,#907);
#905 = CARTESIAN_POINT('',(30.2,5.65,5.05));
#906 = DIRECTION('',(1.,0.,-0.));
#907 = DIRECTION('',(0.,0.,1.));
#908 = ORIENTED_EDGE('',*,*,#909,.T.);
#909 = EDGE_CURVE('',#901,#910,#912,.T.);
#910 = VERTEX_POINT('',#911);
#911 = CARTESIAN_POINT('',(30.2,7.064213562373,5.05));
#912 = LINE('',#913,#914);
#913 = CARTESIAN_POINT('',(30.2,6.268933660696,4.254720098323));
#914 = VECTOR('',#915,1.);
#915 = DIRECTION('',(0.,0.707106781187,0.707106781187));
#916 = ORIENTED_EDGE('',*,*,#917,.T.);
#917 = EDGE_CURVE('',#910,#918,#920,.T.);
#918 = VERTEX_POINT('',#919);
#919 = CARTESIAN_POINT('',(30.2,6.877556640016,5.236656922357));
#920 = LINE('',#921,#922);
#921 = CARTESIAN_POINT('',(30.2,6.53988248189,5.574331080483));
#922 = VECTOR('',#923,1.);
#923 = DIRECTION('',(0.,-0.707106781187,0.707106781187));
#924 = ORIENTED_EDGE('',*,*,#925,.T.);
#925 = EDGE_CURVE('',#918,#899,#926,.T.);
#926 = CIRCLE('',#927,1.241666666667);
#927 = AXIS2_PLACEMENT_3D('',#928,#929,#930);
#928 = CARTESIAN_POINT('',(30.2,5.65,5.05));
#929 = DIRECTION('',(1.,0.,-0.));
#930 = DIRECTION('',(0.,0.,1.));
#931 = PLANE('',#932);
#932 = AXIS2_PLACEMENT_3D('',#933,#934,#935);
#933 = CARTESIAN_POINT('',(30.2,5.13209837924,5.215209138799));
#934 = DIRECTION('',(-1.,-0.,-0.));
#935 = DIRECTION('',(0.,0.,-1.));
#936 = ADVANCED_FACE('',(#937),#948,.T.);
#937 = FACE_BOUND('',#938,.T.);
#938 = EDGE_LOOP('',(#939,#940,#941,#942));
#939 = ORIENTED_EDGE('',*,*,#151,.F.);
#940 = ORIENTED_EDGE('',*,*,#888,.F.);
#941 = ORIENTED_EDGE('',*,*,#650,.T.);
#942 = ORIENTED_EDGE('',*,*,#943,.F.);
#943 = EDGE_CURVE('',#152,#651,#944,.T.);
#944 = LINE('',#945,#946);
#945 = CARTESIAN_POINT('',(39.5,2.9,2.3));
#946 = VECTOR('',#947,1.);
#947 = DIRECTION('',(0.,1.,0.));
#948 = PLANE('',#949);
#949 = AXIS2_PLACEMENT_3D('',#950,#951,#952);
#950 = CARTESIAN_POINT('',(8.5,2.9,2.3));
#951 = DIRECTION('',(0.,0.,-1.));
#952 = DIRECTION('',(1.,0.,0.));
#953 = ADVANCED_FACE('',(#954),#965,.T.);
#954 = FACE_BOUND('',#955,.T.);
#955 = EDGE_LOOP('',(#956,#957,#958,#964));
#956 = ORIENTED_EDGE('',*,*,#943,.T.);
#957 = ORIENTED_EDGE('',*,*,#658,.T.);
#958 = ORIENTED_EDGE('',*,*,#959,.F.);
#959 = EDGE_CURVE('',#160,#375,#960,.T.);
#960 = LINE('',#961,#962);
#961 = CARTESIAN_POINT('',(42.5,2.9,5.3));
#962 = VECTOR('',#963,1.);
#963 = DIRECTION('',(0.,1.,0.));
#964 = ORIENTED_EDGE('',*,*,#159,.F.);
#965 = CYLINDRICAL_SURFACE('',#966,3.);
#966 = AXIS2_PLACEMENT_3D('',#967,#968,#969);
#967 = CARTESIAN_POINT('',(39.5,2.9,5.3));
#968 = DIRECTION('',(0.,-1.,0.));
#969 = DIRECTION('',(-2.368475785867E-15,-0.,-1.));
#970 = ADVANCED_FACE('',(#971),#982,.T.);
#971 = FACE_BOUND('',#972,.T.);
#972 = EDGE_LOOP('',(#973,#974,#975,#981));
#973 = ORIENTED_EDGE('',*,*,#959,.T.);
#974 = ORIENTED_EDGE('',*,*,#374,.T.);
#975 = ORIENTED_EDGE('',*,*,#976,.F.);
#976 = EDGE_CURVE('',#169,#377,#977,.T.);
#977 = LINE('',#978,#979);
#978 = CARTESIAN_POINT('',(42.5,2.9,23.3));
#979 = VECTOR('',#980,1.);
#980 = DIRECTION('',(0.,1.,0.));
#981 = ORIENTED_EDGE('',*,*,#168,.F.);
#982 = PLANE('',#983);
#983 = AXIS2_PLACEMENT_3D('',#984,#985,#986);
#984 = CARTESIAN_POINT('',(42.5,2.9,5.3));
#985 = DIRECTION('',(1.,0.,0.));
#986 = DIRECTION('',(0.,0.,1.));
#987 = ADVANCED_FACE('',(#988),#999,.T.);
#988 = FACE_BOUND('',#989,.T.);
#989 = EDGE_LOOP('',(#990,#991,#992,#998));
#990 = ORIENTED_EDGE('',*,*,#976,.T.);
#991 = ORIENTED_EDGE('',*,*,#384,.T.);
#992 = ORIENTED_EDGE('',*,*,#993,.F.);
#993 = EDGE_CURVE('',#177,#385,#994,.T.);
#994 = LINE('',#995,#996);
#995 = CARTESIAN_POINT('',(39.5,2.9,26.3));
#996 = VECTOR('',#997,1.);
#997 = DIRECTION('',(0.,1.,0.));
#998 = ORIENTED_EDGE('',*,*,#176,.F.);
#999 = CYLINDRICAL_SURFACE('',#1000,3.);
#1000 = AXIS2_PLACEMENT_3D('',#1001,#1002,#1003);
#1001 = CARTESIAN_POINT('',(39.5,2.9,23.3));
#1002 = DIRECTION('',(0.,-1.,0.));
#1003 = DIRECTION('',(1.,0.,-1.184237892934E-15));
#1004 = ADVANCED_FACE('',(#1005),#1016,.T.);
#1005 = FACE_BOUND('',#1006,.T.);
#1006 = EDGE_LOOP('',(#1007,#1008,#1009,#1015));
#1007 = ORIENTED_EDGE('',*,*,#993,.T.);
#1008 = ORIENTED_EDGE('',*,*,#393,.T.);
#1009 = ORIENTED_EDGE('',*,*,#1010,.F.);
#1010 = EDGE_CURVE('',#186,#394,#1011,.T.);
#1011 = LINE('',#1012,#1013);
#1012 = CARTESIAN_POINT('',(8.5,2.9,26.3));
#1013 = VECTOR('',#1014,1.);
#1014 = DIRECTION('',(0.,1.,0.));
#1015 = ORIENTED_EDGE('',*,*,#185,.F.);
#1016 = PLANE('',#1017);
#1017 = AXIS2_PLACEMENT_3D('',#1018,#1019,#1020);
#1018 = CARTESIAN_POINT('',(39.5,2.9,26.3));
#1019 = DIRECTION('',(0.,0.,1.));
#1020 = DIRECTION('',(-1.,0.,0.));
#1021 = ADVANCED_FACE('',(#1022),#1028,.T.);
#1022 = FACE_BOUND('',#1023,.T.);
#1023 = EDGE_LOOP('',(#1024,#1025,#1026,#1027));
#1024 = ORIENTED_EDGE('',*,*,#1010,.T.);
#1025 = ORIENTED_EDGE('',*,*,#401,.T.);
#1026 = ORIENTED_EDGE('',*,*,#712,.F.);
#1027 = ORIENTED_EDGE('',*,*,#193,.F.);
#1028 = CYLINDRICAL_SURFACE('',#1029,3.);
#1029 = AXIS2_PLACEMENT_3D('',#1030,#1031,#1032);
#1030 = CARTESIAN_POINT('',(8.5,2.9,23.3));
#1031 = DIRECTION('',(0.,-1.,0.));
#1032 = DIRECTION('',(-5.921189464667E-16,0.,1.));
#1033 = ADVANCED_FACE('',(#1034),#1062,.F.);
#1034 = FACE_BOUND('',#1035,.F.);
#1035 = EDGE_LOOP('',(#1036,#1047,#1054,#1060,#1061));
#1036 = ORIENTED_EDGE('',*,*,#1037,.T.);
#1037 = EDGE_CURVE('',#1038,#1040,#1042,.T.);
#1038 = VERTEX_POINT('',#1039);
#1039 = CARTESIAN_POINT('',(39.5,4.2,24.4));
#1040 = VERTEX_POINT('',#1041);
#1041 = CARTESIAN_POINT('',(39.5,4.2,22.2));
#1042 = CIRCLE('',#1043,1.1);
#1043 = AXIS2_PLACEMENT_3D('',#1044,#1045,#1046);
#1044 = CARTESIAN_POINT('',(39.5,4.2,23.3));
#1045 = DIRECTION('',(0.,-1.,0.));
#1046 = DIRECTION('',(0.,0.,-1.));
#1047 = ORIENTED_EDGE('',*,*,#1048,.T.);
#1048 = EDGE_CURVE('',#1040,#1038,#1049,.T.);
#1049 = CIRCLE('',#1050,1.1);
#1050 = AXIS2_PLACEMENT_3D('',#1051,#1052,#1053);
#1051 = CARTESIAN_POINT('',(39.5,4.2,23.3));
#1052 = DIRECTION('',(0.,-1.,0.));
#1053 = DIRECTION('',(0.,0.,-1.));
#1054 = ORIENTED_EDGE('',*,*,#1055,.F.);
#1055 = EDGE_CURVE('',#203,#1038,#1056,.T.);
#1056 = LINE('',#1057,#1058);
#1057 = CARTESIAN_POINT('',(39.5,2.6,24.4));
#1058 = VECTOR('',#1059,1.);
#1059 = DIRECTION('',(0.,1.,0.));
#1060 = ORIENTED_EDGE('',*,*,#202,.T.);
#1061 = ORIENTED_EDGE('',*,*,#1055,.T.);
#1062 = CYLINDRICAL_SURFACE('',#1063,1.1);
#1063 = AXIS2_PLACEMENT_3D('',#1064,#1065,#1066);
#1064 = CARTESIAN_POINT('',(39.5,2.6,23.3));
#1065 = DIRECTION('',(0.,1.,0.));
#1066 = DIRECTION('',(0.,0.,1.));
#1067 = ADVANCED_FACE('',(#1068),#1096,.F.);
#1068 = FACE_BOUND('',#1069,.F.);
#1069 = EDGE_LOOP('',(#1070,#1081,#1088,#1094,#1095));
#1070 = ORIENTED_EDGE('',*,*,#1071,.T.);
#1071 = EDGE_CURVE('',#1072,#1074,#1076,.T.);
#1072 = VERTEX_POINT('',#1073);
#1073 = CARTESIAN_POINT('',(39.5,4.2,6.4));
#1074 = VERTEX_POINT('',#1075);
#1075 = CARTESIAN_POINT('',(39.5,4.2,4.2));
#1076 = CIRCLE('',#1077,1.1);
#1077 = AXIS2_PLACEMENT_3D('',#1078,#1079,#1080);
#1078 = CARTESIAN_POINT('',(39.5,4.2,5.3));
#1079 = DIRECTION('',(0.,-1.,0.));
#1080 = DIRECTION('',(0.,0.,-1.));
#1081 = ORIENTED_EDGE('',*,*,#1082,.T.);
#1082 = EDGE_CURVE('',#1074,#1072,#1083,.T.);
#1083 = CIRCLE('',#1084,1.1);
#1084 = AXIS2_PLACEMENT_3D('',#1085,#1086,#1087);
#1085 = CARTESIAN_POINT('',(39.5,4.2,5.3));
#1086 = DIRECTION('',(0.,-1.,0.));
#1087 = DIRECTION('',(0.,0.,-1.));
#1088 = ORIENTED_EDGE('',*,*,#1089,.F.);
#1089 = EDGE_CURVE('',#214,#1072,#1090,.T.);
#1090 = LINE('',#1091,#1092);
#1091 = CARTESIAN_POINT('',(39.5,2.6,6.4));
#1092 = VECTOR('',#1093,1.);
#1093 = DIRECTION('',(0.,1.,0.));
#1094 = ORIENTED_EDGE('',*,*,#213,.T.);
#1095 = ORIENTED_EDGE('',*,*,#1089,.T.);
#1096 = CYLINDRICAL_SURFACE('',#1097,1.1);
#1097 = AXIS2_PLACEMENT_3D('',#1098,#1099,#1100);
#1098 = CARTESIAN_POINT('',(39.5,2.6,5.3));
#1099 = DIRECTION('',(0.,1.,0.));
#1100 = DIRECTION('',(0.,0.,1.));
#1101 = ADVANCED_FACE('',(#1102),#1130,.F.);
#1102 = FACE_BOUND('',#1103,.F.);
#1103 = EDGE_LOOP('',(#1104,#1115,#1122,#1128,#1129));
#1104 = ORIENTED_EDGE('',*,*,#1105,.T.);
#1105 = EDGE_CURVE('',#1106,#1108,#1110,.T.);
#1106 = VERTEX_POINT('',#1107);
#1107 = CARTESIAN_POINT('',(8.5,4.2,24.4));
#1108 = VERTEX_POINT('',#1109);
#1109 = CARTESIAN_POINT('',(8.5,4.2,22.2));
#1110 = CIRCLE('',#1111,1.1);
#1111 = AXIS2_PLACEMENT_3D('',#1112,#1113,#1114);
#1112 = CARTESIAN_POINT('',(8.5,4.2,23.3));
#1113 = DIRECTION('',(0.,-1.,0.));
#1114 = DIRECTION('',(0.,0.,-1.));
#1115 = ORIENTED_EDGE('',*,*,#1116,.T.);
#1116 = EDGE_CURVE('',#1108,#1106,#1117,.T.);
#1117 = CIRCLE('',#1118,1.1);
#1118 = AXIS2_PLACEMENT_3D('',#1119,#1120,#1121);
#1119 = CARTESIAN_POINT('',(8.5,4.2,23.3));
#1120 = DIRECTION('',(0.,-1.,0.));
#1121 = DIRECTION('',(0.,0.,-1.));
#1122 = ORIENTED_EDGE('',*,*,#1123,.F.);
#1123 = EDGE_CURVE('',#225,#1106,#1124,.T.);
#1124 = LINE('',#1125,#1126);
#1125 = CARTESIAN_POINT('',(8.5,2.6,24.4));
#1126 = VECTOR('',#1127,1.);
#1127 = DIRECTION('',(0.,1.,0.));
#1128 = ORIENTED_EDGE('',*,*,#224,.T.);
#1129 = ORIENTED_EDGE('',*,*,#1123,.T.);
#1130 = CYLINDRICAL_SURFACE('',#1131,1.1);
#1131 = AXIS2_PLACEMENT_3D('',#1132,#1133,#1134);
#1132 = CARTESIAN_POINT('',(8.5,2.6,23.3));
#1133 = DIRECTION('',(0.,1.,0.));
#1134 = DIRECTION('',(0.,0.,1.));
#1135 = ADVANCED_FACE('',(#1136),#1164,.F.);
#1136 = FACE_BOUND('',#1137,.F.);
#1137 = EDGE_LOOP('',(#1138,#1149,#1156,#1162,#1163));
#1138 = ORIENTED_EDGE('',*,*,#1139,.T.);
#1139 = EDGE_CURVE('',#1140,#1142,#1144,.T.);
#1140 = VERTEX_POINT('',#1141);
#1141 = CARTESIAN_POINT('',(8.5,4.2,6.4));
#1142 = VERTEX_POINT('',#1143);
#1143 = CARTESIAN_POINT('',(8.5,4.2,4.2));
#1144 = CIRCLE('',#1145,1.1);
#1145 = AXIS2_PLACEMENT_3D('',#1146,#1147,#1148);
#1146 = CARTESIAN_POINT('',(8.5,4.2,5.3));
#1147 = DIRECTION('',(0.,-1.,0.));
#1148 = DIRECTION('',(0.,0.,-1.));
#1149 = ORIENTED_EDGE('',*,*,#1150,.T.);
#1150 = EDGE_CURVE('',#1142,#1140,#1151,.T.);
#1151 = CIRCLE('',#1152,1.1);
#1152 = AXIS2_PLACEMENT_3D('',#1153,#1154,#1155);
#1153 = CARTESIAN_POINT('',(8.5,4.2,5.3));
#1154 = DIRECTION('',(0.,-1.,0.));
#1155 = DIRECTION('',(0.,0.,-1.));
#1156 = ORIENTED_EDGE('',*,*,#1157,.F.);
#1157 = EDGE_CURVE('',#236,#1140,#1158,.T.);
#1158 = LINE('',#1159,#1160);
#1159 = CARTESIAN_POINT('',(8.5,2.6,6.4));
#1160 = VECTOR('',#1161,1.);
#1161 = DIRECTION('',(0.,1.,0.));
#1162 = ORIENTED_EDGE('',*,*,#235,.T.);
#1163 = ORIENTED_EDGE('',*,*,#1157,.T.);
#1164 = CYLINDRICAL_SURFACE('',#1165,1.1);
#1165 = AXIS2_PLACEMENT_3D('',#1166,#1167,#1168);
#1166 = CARTESIAN_POINT('',(8.5,2.6,5.3));
#1167 = DIRECTION('',(0.,1.,0.));
#1168 = DIRECTION('',(0.,0.,1.));
#1169 = ADVANCED_FACE('',(#1170),#1200,.T.);
#1170 = FACE_BOUND('',#1171,.T.);
#1171 = EDGE_LOOP('',(#1172,#1173,#1181,#1190,#1197,#1198,#1199));
#1172 = ORIENTED_EDGE('',*,*,#297,.F.);
#1173 = ORIENTED_EDGE('',*,*,#1174,.F.);
#1174 = EDGE_CURVE('',#1175,#290,#1177,.T.);
#1175 = VERTEX_POINT('',#1176);
#1176 = CARTESIAN_POINT('',(11.7,7.9,6.631138830084));
#1177 = LINE('',#1178,#1179);
#1178 = CARTESIAN_POINT('',(11.7,7.9,6.631138830084));
#1179 = VECTOR('',#1180,1.);
#1180 = DIRECTION('',(1.,0.,0.));
#1181 = ORIENTED_EDGE('',*,*,#1182,.T.);
#1182 = EDGE_CURVE('',#1175,#1183,#1185,.T.);
#1183 = VERTEX_POINT('',#1184);
#1184 = CARTESIAN_POINT('',(11.7,5.65,7.8));
#1185 = CIRCLE('',#1186,2.75);
#1186 = AXIS2_PLACEMENT_3D('',#1187,#1188,#1189);
#1187 = CARTESIAN_POINT('',(11.7,5.65,5.05));
#1188 = DIRECTION('',(1.,0.,-0.));
#1189 = DIRECTION('',(0.,0.,1.));
#1190 = ORIENTED_EDGE('',*,*,#1191,.T.);
#1191 = EDGE_CURVE('',#1183,#512,#1192,.T.);
#1192 = CIRCLE('',#1193,2.75);
#1193 = AXIS2_PLACEMENT_3D('',#1194,#1195,#1196);
#1194 = CARTESIAN_POINT('',(11.7,5.65,5.05));
#1195 = DIRECTION('',(1.,0.,-0.));
#1196 = DIRECTION('',(0.,0.,1.));
#1197 = ORIENTED_EDGE('',*,*,#519,.T.);
#1198 = ORIENTED_EDGE('',*,*,#315,.F.);
#1199 = ORIENTED_EDGE('',*,*,#306,.F.);
#1200 = CYLINDRICAL_SURFACE('',#1201,2.75);
#1201 = AXIS2_PLACEMENT_3D('',#1202,#1203,#1204);
#1202 = CARTESIAN_POINT('',(11.7,5.65,5.05));
#1203 = DIRECTION('',(1.,0.,0.));
#1204 = DIRECTION('',(0.,0.,1.));
#1205 = ADVANCED_FACE('',(#1206),#1226,.T.);
#1206 = FACE_BOUND('',#1207,.T.);
#1207 = EDGE_LOOP('',(#1208,#1209,#1210,#1219,#1225));
#1208 = ORIENTED_EDGE('',*,*,#271,.F.);
#1209 = ORIENTED_EDGE('',*,*,#427,.F.);
#1210 = ORIENTED_EDGE('',*,*,#1211,.T.);
#1211 = EDGE_CURVE('',#428,#1212,#1214,.T.);
#1212 = VERTEX_POINT('',#1213);
#1213 = CARTESIAN_POINT('',(11.7,7.9,3.468861169916));
#1214 = CIRCLE('',#1215,2.75);
#1215 = AXIS2_PLACEMENT_3D('',#1216,#1217,#1218);
#1216 = CARTESIAN_POINT('',(11.7,5.65,5.05));
#1217 = DIRECTION('',(1.,0.,-0.));
#1218 = DIRECTION('',(0.,0.,1.));
#1219 = ORIENTED_EDGE('',*,*,#1220,.T.);
#1220 = EDGE_CURVE('',#1212,#281,#1221,.T.);
#1221 = LINE('',#1222,#1223);
#1222 = CARTESIAN_POINT('',(11.7,7.9,3.468861169916));
#1223 = VECTOR('',#1224,1.);
#1224 = DIRECTION('',(1.,0.,0.));
#1225 = ORIENTED_EDGE('',*,*,#280,.F.);
#1226 = CYLINDRICAL_SURFACE('',#1227,2.75);
#1227 = AXIS2_PLACEMENT_3D('',#1228,#1229,#1230);
#1228 = CARTESIAN_POINT('',(11.7,5.65,5.05));
#1229 = DIRECTION('',(1.,0.,0.));
#1230 = DIRECTION('',(0.,0.,1.));
#1231 = ADVANCED_FACE('',(#1232),#1243,.T.);
#1232 = FACE_BOUND('',#1233,.T.);
#1233 = EDGE_LOOP('',(#1234,#1235,#1241,#1242));
#1234 = ORIENTED_EDGE('',*,*,#1220,.F.);
#1235 = ORIENTED_EDGE('',*,*,#1236,.T.);
#1236 = EDGE_CURVE('',#1212,#1175,#1237,.T.);
#1237 = LINE('',#1238,#1239);
#1238 = CARTESIAN_POINT('',(11.7,7.9,3.175));
#1239 = VECTOR('',#1240,1.);
#1240 = DIRECTION('',(0.,0.,1.));
#1241 = ORIENTED_EDGE('',*,*,#1174,.T.);
#1242 = ORIENTED_EDGE('',*,*,#289,.F.);
#1243 = PLANE('',#1244);
#1244 = AXIS2_PLACEMENT_3D('',#1245,#1246,#1247);
#1245 = CARTESIAN_POINT('',(10.7,7.9,1.3));
#1246 = DIRECTION('',(0.,1.,0.));
#1247 = DIRECTION('',(0.,0.,1.));
#1248 = ADVANCED_FACE('',(#1249),#1276,.F.);
#1249 = FACE_BOUND('',#1250,.F.);
#1250 = EDGE_LOOP('',(#1251,#1262,#1268,#1269));
#1251 = ORIENTED_EDGE('',*,*,#1252,.F.);
#1252 = EDGE_CURVE('',#1253,#1255,#1257,.T.);
#1253 = VERTEX_POINT('',#1254);
#1254 = CARTESIAN_POINT('',(17.51,5.65,4.05));
#1255 = VERTEX_POINT('',#1256);
#1256 = CARTESIAN_POINT('',(17.51,6.357106781187,5.757106781187));
#1257 = CIRCLE('',#1258,1.);
#1258 = AXIS2_PLACEMENT_3D('',#1259,#1260,#1261);
#1259 = CARTESIAN_POINT('',(17.51,5.65,5.05));
#1260 = DIRECTION('',(-1.,0.,0.));
#1261 = DIRECTION('',(0.,0.,-1.));
#1262 = ORIENTED_EDGE('',*,*,#1263,.F.);
#1263 = EDGE_CURVE('',#333,#1253,#1264,.T.);
#1264 = LINE('',#1265,#1266);
#1265 = CARTESIAN_POINT('',(17.81,5.65,3.8));
#1266 = VECTOR('',#1267,1.);
#1267 = DIRECTION('',(-0.768221279597,-1.567999551826E-16,0.640184399664
    ));
#1268 = ORIENTED_EDGE('',*,*,#332,.T.);
#1269 = ORIENTED_EDGE('',*,*,#1270,.T.);
#1270 = EDGE_CURVE('',#335,#1255,#1271,.T.);
#1271 = HYPERBOLA('',#1272,1.2,1.);
#1272 = AXIS2_PLACEMENT_3D('',#1273,#1274,#1275);
#1273 = CARTESIAN_POINT('',(16.31,6.357106781187,5.757106781187));
#1274 = DIRECTION('',(0.,-0.707106781187,-0.707106781187));
#1275 = DIRECTION('',(1.,0.,0.));
#1276 = CONICAL_SURFACE('',#1277,1.25,0.694738276197);
#1277 = AXIS2_PLACEMENT_3D('',#1278,#1279,#1280);
#1278 = CARTESIAN_POINT('',(17.81,5.65,5.05));
#1279 = DIRECTION('',(1.,0.,0.));
#1280 = DIRECTION('',(0.,0.,-1.));
#1281 = ADVANCED_FACE('',(#1282),#1302,.F.);
#1282 = FACE_BOUND('',#1283,.F.);
#1283 = EDGE_LOOP('',(#1284,#1285,#1294,#1301));
#1284 = ORIENTED_EDGE('',*,*,#1263,.T.);
#1285 = ORIENTED_EDGE('',*,*,#1286,.F.);
#1286 = EDGE_CURVE('',#1287,#1253,#1289,.T.);
#1287 = VERTEX_POINT('',#1288);
#1288 = CARTESIAN_POINT('',(17.51,6.357106781187,4.342893218813));
#1289 = CIRCLE('',#1290,1.);
#1290 = AXIS2_PLACEMENT_3D('',#1291,#1292,#1293);
#1291 = CARTESIAN_POINT('',(17.51,5.65,5.05));
#1292 = DIRECTION('',(-1.,0.,0.));
#1293 = DIRECTION('',(0.,0.,-1.));
#1294 = ORIENTED_EDGE('',*,*,#1295,.T.);
#1295 = EDGE_CURVE('',#1287,#352,#1296,.T.);
#1296 = HYPERBOLA('',#1297,1.2,1.);
#1297 = AXIS2_PLACEMENT_3D('',#1298,#1299,#1300);
#1298 = CARTESIAN_POINT('',(16.31,6.357106781187,4.342893218813));
#1299 = DIRECTION('',(0.,-0.707106781187,0.707106781187));
#1300 = DIRECTION('',(1.,0.,0.));
#1301 = ORIENTED_EDGE('',*,*,#359,.T.);
#1302 = CONICAL_SURFACE('',#1303,1.25,0.694738276197);
#1303 = AXIS2_PLACEMENT_3D('',#1304,#1305,#1306);
#1304 = CARTESIAN_POINT('',(17.81,5.65,5.05));
#1305 = DIRECTION('',(1.,0.,0.));
#1306 = DIRECTION('',(0.,0.,-1.));
#1307 = ADVANCED_FACE('',(#1308),#1343,.T.);
#1308 = FACE_BOUND('',#1309,.T.);
#1309 = EDGE_LOOP('',(#1310,#1318,#1326,#1335,#1341,#1342));
#1310 = ORIENTED_EDGE('',*,*,#1311,.F.);
#1311 = EDGE_CURVE('',#1312,#344,#1314,.T.);
#1312 = VERTEX_POINT('',#1313);
#1313 = CARTESIAN_POINT('',(11.7,7.064213562373,5.05));
#1314 = LINE('',#1315,#1316);
#1315 = CARTESIAN_POINT('',(11.67,7.064213562373,5.05));
#1316 = VECTOR('',#1317,1.);
#1317 = DIRECTION('',(1.,0.,0.));
#1318 = ORIENTED_EDGE('',*,*,#1319,.T.);
#1319 = EDGE_CURVE('',#1312,#1320,#1322,.T.);
#1320 = VERTEX_POINT('',#1321);
#1321 = CARTESIAN_POINT('',(11.7,6.877556640016,4.863343077643));
#1322 = LINE('',#1323,#1324);
#1323 = CARTESIAN_POINT('',(11.7,6.357106781187,4.342893218813));
#1324 = VECTOR('',#1325,1.);
#1325 = DIRECTION('',(0.,-0.707106781187,-0.707106781187));
#1326 = ORIENTED_EDGE('',*,*,#1327,.T.);
#1327 = EDGE_CURVE('',#1320,#1328,#1330,.T.);
#1328 = VERTEX_POINT('',#1329);
#1329 = CARTESIAN_POINT('',(11.99,6.357106781187,4.342893218813));
#1330 = HYPERBOLA('',#1331,1.2,1.);
#1331 = AXIS2_PLACEMENT_3D('',#1332,#1333,#1334);
#1332 = CARTESIAN_POINT('',(13.19,6.357106781187,4.342893218813));
#1333 = DIRECTION('',(0.,-0.707106781187,0.707106781187));
#1334 = DIRECTION('',(-1.,0.,0.));
#1335 = ORIENTED_EDGE('',*,*,#1336,.T.);
#1336 = EDGE_CURVE('',#1328,#1287,#1337,.T.);
#1337 = LINE('',#1338,#1339);
#1338 = CARTESIAN_POINT('',(11.67,6.357106781187,4.342893218813));
#1339 = VECTOR('',#1340,1.);
#1340 = DIRECTION('',(1.,0.,0.));
#1341 = ORIENTED_EDGE('',*,*,#1295,.T.);
#1342 = ORIENTED_EDGE('',*,*,#351,.F.);
#1343 = PLANE('',#1344);
#1344 = AXIS2_PLACEMENT_3D('',#1345,#1346,#1347);
#1345 = CARTESIAN_POINT('',(11.67,6.357106781187,4.342893218813));
#1346 = DIRECTION('',(0.,-0.707106781187,0.707106781187));
#1347 = DIRECTION('',(0.,0.707106781187,0.707106781187));
#1348 = ADVANCED_FACE('',(#1349),#1377,.T.);
#1349 = FACE_BOUND('',#1350,.T.);
#1350 = EDGE_LOOP('',(#1351,#1362,#1368,#1369,#1370,#1371));
#1351 = ORIENTED_EDGE('',*,*,#1352,.T.);
#1352 = EDGE_CURVE('',#1353,#1355,#1357,.T.);
#1353 = VERTEX_POINT('',#1354);
#1354 = CARTESIAN_POINT('',(11.99,6.357106781187,5.757106781187));
#1355 = VERTEX_POINT('',#1356);
#1356 = CARTESIAN_POINT('',(11.7,6.877556640016,5.236656922357));
#1357 = HYPERBOLA('',#1358,1.2,1.);
#1358 = AXIS2_PLACEMENT_3D('',#1359,#1360,#1361);
#1359 = CARTESIAN_POINT('',(13.19,6.357106781187,5.757106781187));
#1360 = DIRECTION('',(-0.,-0.707106781187,-0.707106781187));
#1361 = DIRECTION('',(-1.,0.,0.));
#1362 = ORIENTED_EDGE('',*,*,#1363,.T.);
#1363 = EDGE_CURVE('',#1355,#1312,#1364,.T.);
#1364 = LINE('',#1365,#1366);
#1365 = CARTESIAN_POINT('',(11.7,6.71066017178,5.403553390593));
#1366 = VECTOR('',#1367,1.);
#1367 = DIRECTION('',(0.,0.707106781187,-0.707106781187));
#1368 = ORIENTED_EDGE('',*,*,#1311,.T.);
#1369 = ORIENTED_EDGE('',*,*,#343,.F.);
#1370 = ORIENTED_EDGE('',*,*,#1270,.T.);
#1371 = ORIENTED_EDGE('',*,*,#1372,.F.);
#1372 = EDGE_CURVE('',#1353,#1255,#1373,.T.);
#1373 = LINE('',#1374,#1375);
#1374 = CARTESIAN_POINT('',(11.67,6.357106781187,5.757106781187));
#1375 = VECTOR('',#1376,1.);
#1376 = DIRECTION('',(1.,0.,0.));
#1377 = PLANE('',#1378);
#1378 = AXIS2_PLACEMENT_3D('',#1379,#1380,#1381);
#1379 = CARTESIAN_POINT('',(11.67,7.064213562373,5.05));
#1380 = DIRECTION('',(0.,-0.707106781187,-0.707106781187));
#1381 = DIRECTION('',(0.,-0.707106781187,0.707106781187));
#1382 = ADVANCED_FACE('',(#1383),#1403,.T.);
#1383 = FACE_BOUND('',#1384,.T.);
#1384 = EDGE_LOOP('',(#1385,#1394,#1395,#1396,#1397));
#1385 = ORIENTED_EDGE('',*,*,#1386,.F.);
#1386 = EDGE_CURVE('',#627,#1387,#1389,.T.);
#1387 = VERTEX_POINT('',#1388);
#1388 = CARTESIAN_POINT('',(36.3,7.9,3.468861169916));
#1389 = CIRCLE('',#1390,2.75);
#1390 = AXIS2_PLACEMENT_3D('',#1391,#1392,#1393);
#1391 = CARTESIAN_POINT('',(36.3,5.65,5.05));
#1392 = DIRECTION('',(1.,0.,-0.));
#1393 = DIRECTION('',(0.,0.,1.));
#1394 = ORIENTED_EDGE('',*,*,#634,.F.);
#1395 = ORIENTED_EDGE('',*,*,#880,.T.);
#1396 = ORIENTED_EDGE('',*,*,#871,.T.);
#1397 = ORIENTED_EDGE('',*,*,#1398,.T.);
#1398 = EDGE_CURVE('',#864,#1387,#1399,.T.);
#1399 = LINE('',#1400,#1401);
#1400 = CARTESIAN_POINT('',(30.2,7.9,3.468861169916));
#1401 = VECTOR('',#1402,1.);
#1402 = DIRECTION('',(1.,0.,0.));
#1403 = CYLINDRICAL_SURFACE('',#1404,2.75);
#1404 = AXIS2_PLACEMENT_3D('',#1405,#1406,#1407);
#1405 = CARTESIAN_POINT('',(30.2,5.65,5.05));
#1406 = DIRECTION('',(1.,0.,0.));
#1407 = DIRECTION('',(0.,0.,1.));
#1408 = ADVANCED_FACE('',(#1409),#1479,.T.);
#1409 = FACE_BOUND('',#1410,.T.);
#1410 = EDGE_LOOP('',(#1411,#1412,#1413,#1421,#1430,#1437,#1438,#1447,
    #1455,#1463,#1472));
#1411 = ORIENTED_EDGE('',*,*,#626,.F.);
#1412 = ORIENTED_EDGE('',*,*,#1386,.T.);
#1413 = ORIENTED_EDGE('',*,*,#1414,.T.);
#1414 = EDGE_CURVE('',#1387,#1415,#1417,.T.);
#1415 = VERTEX_POINT('',#1416);
#1416 = CARTESIAN_POINT('',(36.3,7.9,6.631138830084));
#1417 = LINE('',#1418,#1419);
#1418 = CARTESIAN_POINT('',(36.3,7.9,3.175));
#1419 = VECTOR('',#1420,1.);
#1420 = DIRECTION('',(0.,0.,1.));
#1421 = ORIENTED_EDGE('',*,*,#1422,.T.);
#1422 = EDGE_CURVE('',#1415,#1423,#1425,.T.);
#1423 = VERTEX_POINT('',#1424);
#1424 = CARTESIAN_POINT('',(36.3,5.65,7.8));
#1425 = CIRCLE('',#1426,2.75);
#1426 = AXIS2_PLACEMENT_3D('',#1427,#1428,#1429);
#1427 = CARTESIAN_POINT('',(36.3,5.65,5.05));
#1428 = DIRECTION('',(1.,0.,-0.));
#1429 = DIRECTION('',(0.,0.,1.));
#1430 = ORIENTED_EDGE('',*,*,#1431,.T.);
#1431 = EDGE_CURVE('',#1423,#543,#1432,.T.);
#1432 = CIRCLE('',#1433,2.75);
#1433 = AXIS2_PLACEMENT_3D('',#1434,#1435,#1436);
#1434 = CARTESIAN_POINT('',(36.3,5.65,5.05));
#1435 = DIRECTION('',(1.,0.,-0.));
#1436 = DIRECTION('',(0.,0.,1.));
#1437 = ORIENTED_EDGE('',*,*,#550,.F.);
#1438 = ORIENTED_EDGE('',*,*,#1439,.T.);
#1439 = EDGE_CURVE('',#551,#1440,#1442,.T.);
#1440 = VERTEX_POINT('',#1441);
#1441 = CARTESIAN_POINT('',(36.3,6.877556640016,5.236656922357));
#1442 = CIRCLE('',#1443,1.241666666667);
#1443 = AXIS2_PLACEMENT_3D('',#1444,#1445,#1446);
#1444 = CARTESIAN_POINT('',(36.3,5.65,5.05));
#1445 = DIRECTION('',(-1.,0.,0.));
#1446 = DIRECTION('',(0.,0.,-1.));
#1447 = ORIENTED_EDGE('',*,*,#1448,.T.);
#1448 = EDGE_CURVE('',#1440,#1449,#1451,.T.);
#1449 = VERTEX_POINT('',#1450);
#1450 = CARTESIAN_POINT('',(36.3,7.064213562373,5.05));
#1451 = LINE('',#1452,#1453);
#1452 = CARTESIAN_POINT('',(36.3,6.71066017178,5.403553390593));
#1453 = VECTOR('',#1454,1.);
#1454 = DIRECTION('',(0.,0.707106781187,-0.707106781187));
#1455 = ORIENTED_EDGE('',*,*,#1456,.T.);
#1456 = EDGE_CURVE('',#1449,#1457,#1459,.T.);
#1457 = VERTEX_POINT('',#1458);
#1458 = CARTESIAN_POINT('',(36.3,6.877556640016,4.863343077643));
#1459 = LINE('',#1460,#1461);
#1460 = CARTESIAN_POINT('',(36.3,6.357106781187,4.342893218813));
#1461 = VECTOR('',#1462,1.);
#1462 = DIRECTION('',(0.,-0.707106781187,-0.707106781187));
#1463 = ORIENTED_EDGE('',*,*,#1464,.T.);
#1464 = EDGE_CURVE('',#1457,#1465,#1467,.T.);
#1465 = VERTEX_POINT('',#1466);
#1466 = CARTESIAN_POINT('',(36.3,5.65,3.808333333333));
#1467 = CIRCLE('',#1468,1.241666666667);
#1468 = AXIS2_PLACEMENT_3D('',#1469,#1470,#1471);
#1469 = CARTESIAN_POINT('',(36.3,5.65,5.05));
#1470 = DIRECTION('',(-1.,0.,0.));
#1471 = DIRECTION('',(0.,0.,-1.));
#1472 = ORIENTED_EDGE('',*,*,#1473,.T.);
#1473 = EDGE_CURVE('',#1465,#618,#1474,.T.);
#1474 = CIRCLE('',#1475,1.241666666667);
#1475 = AXIS2_PLACEMENT_3D('',#1476,#1477,#1478);
#1476 = CARTESIAN_POINT('',(36.3,5.65,5.05));
#1477 = DIRECTION('',(-1.,0.,0.));
#1478 = DIRECTION('',(0.,0.,-1.));
#1479 = PLANE('',#1480);
#1480 = AXIS2_PLACEMENT_3D('',#1481,#1482,#1483);
#1481 = CARTESIAN_POINT('',(36.3,5.65,5.05));
#1482 = DIRECTION('',(1.,0.,0.));
#1483 = DIRECTION('',(0.,0.,1.));
#1484 = ADVANCED_FACE('',(#1485),#1522,.F.);
#1485 = FACE_BOUND('',#1486,.F.);
#1486 = EDGE_LOOP('',(#1487,#1498,#1504,#1505,#1506,#1513,#1514,#1515));
#1487 = ORIENTED_EDGE('',*,*,#1488,.F.);
#1488 = EDGE_CURVE('',#1489,#1491,#1493,.T.);
#1489 = VERTEX_POINT('',#1490);
#1490 = CARTESIAN_POINT('',(36.01,5.65,4.05));
#1491 = VERTEX_POINT('',#1492);
#1492 = CARTESIAN_POINT('',(36.01,6.357106781187,5.757106781187));
#1493 = CIRCLE('',#1494,1.);
#1494 = AXIS2_PLACEMENT_3D('',#1495,#1496,#1497);
#1495 = CARTESIAN_POINT('',(36.01,5.65,5.05));
#1496 = DIRECTION('',(-1.,0.,0.));
#1497 = DIRECTION('',(0.,0.,-1.));
#1498 = ORIENTED_EDGE('',*,*,#1499,.F.);
#1499 = EDGE_CURVE('',#1465,#1489,#1500,.T.);
#1500 = LINE('',#1501,#1502);
#1501 = CARTESIAN_POINT('',(36.31,5.65,3.8));
#1502 = VECTOR('',#1503,1.);
#1503 = DIRECTION('',(-0.768221279597,-1.567999551826E-16,0.640184399664
    ));
#1504 = ORIENTED_EDGE('',*,*,#1473,.T.);
#1505 = ORIENTED_EDGE('',*,*,#617,.F.);
#1506 = ORIENTED_EDGE('',*,*,#1507,.T.);
#1507 = EDGE_CURVE('',#610,#559,#1508,.T.);
#1508 = CIRCLE('',#1509,1.25);
#1509 = AXIS2_PLACEMENT_3D('',#1510,#1511,#1512);
#1510 = CARTESIAN_POINT('',(36.31,5.65,5.05));
#1511 = DIRECTION('',(-1.,0.,0.));
#1512 = DIRECTION('',(0.,0.,-1.));
#1513 = ORIENTED_EDGE('',*,*,#558,.F.);
#1514 = ORIENTED_EDGE('',*,*,#1439,.T.);
#1515 = ORIENTED_EDGE('',*,*,#1516,.T.);
#1516 = EDGE_CURVE('',#1440,#1491,#1517,.T.);
#1517 = HYPERBOLA('',#1518,1.2,1.);
#1518 = AXIS2_PLACEMENT_3D('',#1519,#1520,#1521);
#1519 = CARTESIAN_POINT('',(34.81,6.357106781187,5.757106781187));
#1520 = DIRECTION('',(0.,-0.707106781187,-0.707106781187));
#1521 = DIRECTION('',(1.,0.,0.));
#1522 = CONICAL_SURFACE('',#1523,1.25,0.694738276197);
#1523 = AXIS2_PLACEMENT_3D('',#1524,#1525,#1526);
#1524 = CARTESIAN_POINT('',(36.31,5.65,5.05));
#1525 = DIRECTION('',(1.,0.,0.));
#1526 = DIRECTION('',(0.,0.,-1.));
#1527 = ADVANCED_FACE('',(#1528),#1540,.T.);
#1528 = FACE_BOUND('',#1529,.T.);
#1529 = EDGE_LOOP('',(#1530,#1531,#1532,#1533));
#1530 = ORIENTED_EDGE('',*,*,#609,.T.);
#1531 = ORIENTED_EDGE('',*,*,#1507,.T.);
#1532 = ORIENTED_EDGE('',*,*,#567,.T.);
#1533 = ORIENTED_EDGE('',*,*,#1534,.F.);
#1534 = EDGE_CURVE('',#602,#568,#1535,.T.);
#1535 = CIRCLE('',#1536,1.);
#1536 = AXIS2_PLACEMENT_3D('',#1537,#1538,#1539);
#1537 = CARTESIAN_POINT('',(36.31,5.65,5.05));
#1538 = DIRECTION('',(-1.,0.,0.));
#1539 = DIRECTION('',(0.,0.,-1.));
#1540 = PLANE('',#1541);
#1541 = AXIS2_PLACEMENT_3D('',#1542,#1543,#1544);
#1542 = CARTESIAN_POINT('',(36.31,5.65,5.05));
#1543 = DIRECTION('',(-1.,0.,0.));
#1544 = DIRECTION('',(0.,0.,-1.));
#1545 = ADVANCED_FACE('',(#1546),#1618,.F.);
#1546 = FACE_BOUND('',#1547,.F.);
#1547 = EDGE_LOOP('',(#1548,#1549,#1555,#1556,#1557,#1558,#1559));
#1548 = ORIENTED_EDGE('',*,*,#592,.T.);
#1549 = ORIENTED_EDGE('',*,*,#1550,.T.);
#1550 = EDGE_CURVE('',#584,#1074,#1551,.T.);
#1551 = LINE('',#1552,#1553);
#1552 = CARTESIAN_POINT('',(39.5,5.31,3.3));
#1553 = VECTOR('',#1554,1.);
#1554 = DIRECTION('',(1.542569904955E-16,-0.77675574872,0.629801958421)
  );
#1555 = ORIENTED_EDGE('',*,*,#1071,.F.);
#1556 = ORIENTED_EDGE('',*,*,#1082,.F.);
#1557 = ORIENTED_EDGE('',*,*,#1550,.F.);
#1558 = ORIENTED_EDGE('',*,*,#583,.T.);
#1559 = ORIENTED_EDGE('',*,*,#1560,.F.);
#1560 = EDGE_CURVE('',#593,#576,#1561,.T.);
#1561 = B_SPLINE_CURVE_WITH_KNOTS('',7,(#1562,#1563,#1564,#1565,#1566,
    #1567,#1568,#1569,#1570,#1571,#1572,#1573,#1574,#1575,#1576,#1577,
    #1578,#1579,#1580,#1581,#1582,#1583,#1584,#1585,#1586,#1587,#1588,
    #1589,#1590,#1591,#1592,#1593,#1594,#1595,#1596,#1597,#1598,#1599,
    #1600,#1601,#1602,#1603,#1604,#1605,#1606,#1607,#1608,#1609,#1610,
    #1611,#1612,#1613,#1614,#1615,#1616,#1617),.UNSPECIFIED.,.F.,.F.,(8,
    6,6,6,6,6,6,6,6,8),(0.,0.102088166301,0.151176038788,0.182185236418,
    0.255790900994,0.379230489524,0.487228596997,0.62411039707,
    0.785239481839,1.),.UNSPECIFIED.);
#1562 = CARTESIAN_POINT('',(37.892863639208,5.31,4.109574564359));
#1563 = CARTESIAN_POINT('',(37.913467073894,5.282203239889,
    4.119624163274));
#1564 = CARTESIAN_POINT('',(37.933343215151,5.254321453398,
    4.130788456581));
#1565 = CARTESIAN_POINT('',(37.952418309685,5.226376040192,
    4.143119838005));
#1566 = CARTESIAN_POINT('',(37.97060571908,5.198400898751,4.156675012503
    ));
#1567 = CARTESIAN_POINT('',(37.98781192682,5.170443917978,4.17151141692)
  );
#1568 = CARTESIAN_POINT('',(38.0039425453,5.142568468799,4.187683640636)
  );
#1569 = CARTESIAN_POINT('',(38.0261044378,5.101529155986,4.213681537476)
  );
#1570 = CARTESIAN_POINT('',(38.03303101054,5.088241359676,4.222442856652
    ));
#1571 = CARTESIAN_POINT('',(38.039678034316,5.075000846637,4.23152877123
    ));
#1572 = CARTESIAN_POINT('',(38.046035834802,5.061818036076,
    4.240943690518));
#1573 = CARTESIAN_POINT('',(38.052095376106,5.048704408307,
    4.250691239474));
#1574 = CARTESIAN_POINT('',(38.05784856678,5.035672486458,4.260774032548
    ));
#1575 = CARTESIAN_POINT('',(38.06672505629,5.014563622413,4.277775474424
    ));
#1576 = CARTESIAN_POINT('',(38.070036584642,5.006429419859,
    4.284491830007));
#1577 = CARTESIAN_POINT('',(38.073221391041,4.998336643949,
    4.291342877357));
#1578 = CARTESIAN_POINT('',(38.076277967516,4.990288847997,
    4.298328767041));
#1579 = CARTESIAN_POINT('',(38.079205057968,4.982289705199,
    4.305449437097));
#1580 = CARTESIAN_POINT('',(38.08200165817,4.97434300863,4.312704613037)
  );
#1581 = CARTESIAN_POINT('',(38.0909937005,4.947723598216,4.337633332751)
  );
#1582 = CARTESIAN_POINT('',(38.096581495868,4.929310821901,
    4.355929062435));
#1583 = CARTESIAN_POINT('',(38.101419613163,4.911268336627,
    4.374972595231));
#1584 = CARTESIAN_POINT('',(38.105508450659,4.893650701272,
    4.394749833064));
#1585 = CARTESIAN_POINT('',(38.108859062933,4.876512183332,
    4.415240338415));
#1586 = CARTESIAN_POINT('',(38.111492630182,4.859905902982,
    4.436416691309));
#1587 = CARTESIAN_POINT('',(38.116705621661,4.817011901605,
    4.494848841903));
#1588 = CARTESIAN_POINT('',(38.118041623592,4.791776902978,
    4.533290351654));
#1589 = CARTESIAN_POINT('',(38.1175898404,4.768419690326,4.573404268967)
  );
#1590 = CARTESIAN_POINT('',(38.115568517228,4.747134516218,4.61500746543
    ));
#1591 = CARTESIAN_POINT('',(38.112223088489,4.72807563647,4.657905085439
    ));
#1592 = CARTESIAN_POINT('',(38.107790794812,4.711362612737,
    4.701894698704));
#1593 = CARTESIAN_POINT('',(38.097831799077,4.684590531594,
    4.786026653722));
#1594 = CARTESIAN_POINT('',(38.09251063105,4.673958582154,4.825968359739
    ));
#1595 = CARTESIAN_POINT('',(38.086653413145,4.665244842142,
    4.866461487219));
#1596 = CARTESIAN_POINT('',(38.080379915943,4.658489988698,
    4.907373994821));
#1597 = CARTESIAN_POINT('',(38.073783470342,4.653720676187,4.94857185439
    ));
#1598 = CARTESIAN_POINT('',(38.066927948311,4.650949923142,
    4.989918361585));
#1599 = CARTESIAN_POINT('',(38.050879269296,4.649193628262,
    5.083689243118));
#1600 = CARTESIAN_POINT('',(38.041549936877,4.651418518883,
    5.136126462955));
#1601 = CARTESIAN_POINT('',(38.031938651781,4.656846887464,
    5.188289070445));
#1602 = CARTESIAN_POINT('',(38.022049333107,4.665432415165,
    5.239883510297));
#1603 = CARTESIAN_POINT('',(38.011819087695,4.677085103855,
    5.290618638922));
#1604 = CARTESIAN_POINT('',(38.001138578189,4.69166837362,5.340210079434
    ));
#1605 = CARTESIAN_POINT('',(37.976642149717,4.729388162487,
    5.445102780124));
#1606 = CARTESIAN_POINT('',(37.962601040918,4.75358936842,5.499879113267
    ));
#1607 = CARTESIAN_POINT('',(37.947569110954,4.781291242028,
    5.552267140044));
#1608 = CARTESIAN_POINT('',(37.931308062985,4.812107921472,
    5.601911917293));
#1609 = CARTESIAN_POINT('',(37.913616804459,4.845610633295,
    5.648557961698));
#1610 = CARTESIAN_POINT('',(37.89437635246,4.881358656167,5.692045053485
    ));
#1611 = CARTESIAN_POINT('',(37.845811779372,4.968993882767,5.78594554018
    ));
#1612 = CARTESIAN_POINT('',(37.815264113926,5.02229007158,5.833843824496
    ));
#1613 = CARTESIAN_POINT('',(37.781803600276,5.077876295873,
    5.875892480016));
#1614 = CARTESIAN_POINT('',(37.745540242564,5.134950443807,
    5.912270090379));
#1615 = CARTESIAN_POINT('',(37.706772276314,5.192918581919,
    5.943271979626));
#1616 = CARTESIAN_POINT('',(37.665815641797,5.25135674286,5.969223640504
    ));
#1617 = CARTESIAN_POINT('',(37.622951061421,5.31,5.990425435641));
#1618 = CONICAL_SURFACE('',#1619,2.,0.681298225288);
#1619 = AXIS2_PLACEMENT_3D('',#1620,#1621,#1622);
#1620 = CARTESIAN_POINT('',(39.5,5.31,5.3));
#1621 = DIRECTION('',(0.,1.,0.));
#1622 = DIRECTION('',(0.,0.,-1.));
#1623 = ADVANCED_FACE('',(#1624),#1638,.T.);
#1624 = FACE_BOUND('',#1625,.T.);
#1625 = EDGE_LOOP('',(#1626,#1627,#1633,#1634,#1635,#1636,#1637));
#1626 = ORIENTED_EDGE('',*,*,#1422,.F.);
#1627 = ORIENTED_EDGE('',*,*,#1628,.F.);
#1628 = EDGE_CURVE('',#855,#1415,#1629,.T.);
#1629 = LINE('',#1630,#1631);
#1630 = CARTESIAN_POINT('',(30.2,7.9,6.631138830084));
#1631 = VECTOR('',#1632,1.);
#1632 = DIRECTION('',(1.,0.,0.));
#1633 = ORIENTED_EDGE('',*,*,#854,.T.);
#1634 = ORIENTED_EDGE('',*,*,#845,.T.);
#1635 = ORIENTED_EDGE('',*,*,#836,.T.);
#1636 = ORIENTED_EDGE('',*,*,#542,.T.);
#1637 = ORIENTED_EDGE('',*,*,#1431,.F.);
#1638 = CYLINDRICAL_SURFACE('',#1639,2.75);
#1639 = AXIS2_PLACEMENT_3D('',#1640,#1641,#1642);
#1640 = CARTESIAN_POINT('',(30.2,5.65,5.05));
#1641 = DIRECTION('',(1.,0.,0.));
#1642 = DIRECTION('',(0.,0.,1.));
#1643 = ADVANCED_FACE('',(#1644),#1677,.F.);
#1644 = FACE_BOUND('',#1645,.F.);
#1645 = EDGE_LOOP('',(#1646,#1647,#1648,#1649,#1650,#1651,#1652,#1661,
    #1668,#1669,#1670));
#1646 = ORIENTED_EDGE('',*,*,#435,.F.);
#1647 = ORIENTED_EDGE('',*,*,#1211,.T.);
#1648 = ORIENTED_EDGE('',*,*,#1236,.T.);
#1649 = ORIENTED_EDGE('',*,*,#1182,.T.);
#1650 = ORIENTED_EDGE('',*,*,#1191,.T.);
#1651 = ORIENTED_EDGE('',*,*,#511,.F.);
#1652 = ORIENTED_EDGE('',*,*,#1653,.F.);
#1653 = EDGE_CURVE('',#1654,#503,#1656,.T.);
#1654 = VERTEX_POINT('',#1655);
#1655 = CARTESIAN_POINT('',(11.7,5.65,6.291666666667));
#1656 = CIRCLE('',#1657,1.241666666667);
#1657 = AXIS2_PLACEMENT_3D('',#1658,#1659,#1660);
#1658 = CARTESIAN_POINT('',(11.7,5.65,5.05));
#1659 = DIRECTION('',(1.,0.,-0.));
#1660 = DIRECTION('',(0.,0.,1.));
#1661 = ORIENTED_EDGE('',*,*,#1662,.F.);
#1662 = EDGE_CURVE('',#1355,#1654,#1663,.T.);
#1663 = CIRCLE('',#1664,1.241666666667);
#1664 = AXIS2_PLACEMENT_3D('',#1665,#1666,#1667);
#1665 = CARTESIAN_POINT('',(11.7,5.65,5.05));
#1666 = DIRECTION('',(1.,0.,-0.));
#1667 = DIRECTION('',(0.,0.,1.));
#1668 = ORIENTED_EDGE('',*,*,#1363,.T.);
#1669 = ORIENTED_EDGE('',*,*,#1319,.T.);
#1670 = ORIENTED_EDGE('',*,*,#1671,.F.);
#1671 = EDGE_CURVE('',#436,#1320,#1672,.T.);
#1672 = CIRCLE('',#1673,1.241666666667);
#1673 = AXIS2_PLACEMENT_3D('',#1674,#1675,#1676);
#1674 = CARTESIAN_POINT('',(11.7,5.65,5.05));
#1675 = DIRECTION('',(1.,0.,-0.));
#1676 = DIRECTION('',(0.,0.,1.));
#1677 = PLANE('',#1678);
#1678 = AXIS2_PLACEMENT_3D('',#1679,#1680,#1681);
#1679 = CARTESIAN_POINT('',(11.7,5.65,5.05));
#1680 = DIRECTION('',(1.,0.,0.));
#1681 = DIRECTION('',(0.,0.,1.));
#1682 = ADVANCED_FACE('',(#1683),#1712,.F.);
#1683 = FACE_BOUND('',#1684,.F.);
#1684 = EDGE_LOOP('',(#1685,#1694,#1700,#1701,#1702,#1709,#1710,#1711));
#1685 = ORIENTED_EDGE('',*,*,#1686,.F.);
#1686 = EDGE_CURVE('',#1687,#1328,#1689,.T.);
#1687 = VERTEX_POINT('',#1688);
#1688 = CARTESIAN_POINT('',(11.99,5.65,6.05));
#1689 = CIRCLE('',#1690,1.);
#1690 = AXIS2_PLACEMENT_3D('',#1691,#1692,#1693);
#1691 = CARTESIAN_POINT('',(11.99,5.65,5.05));
#1692 = DIRECTION('',(1.,0.,-0.));
#1693 = DIRECTION('',(0.,0.,1.));
#1694 = ORIENTED_EDGE('',*,*,#1695,.F.);
#1695 = EDGE_CURVE('',#1654,#1687,#1696,.T.);
#1696 = LINE('',#1697,#1698);
#1697 = CARTESIAN_POINT('',(11.69,5.65,6.3));
#1698 = VECTOR('',#1699,1.);
#1699 = DIRECTION('',(0.768221279597,-1.567999551826E-16,-0.640184399664
    ));
#1700 = ORIENTED_EDGE('',*,*,#1653,.T.);
#1701 = ORIENTED_EDGE('',*,*,#502,.F.);
#1702 = ORIENTED_EDGE('',*,*,#1703,.T.);
#1703 = EDGE_CURVE('',#495,#444,#1704,.T.);
#1704 = CIRCLE('',#1705,1.25);
#1705 = AXIS2_PLACEMENT_3D('',#1706,#1707,#1708);
#1706 = CARTESIAN_POINT('',(11.69,5.65,5.05));
#1707 = DIRECTION('',(1.,0.,-0.));
#1708 = DIRECTION('',(0.,0.,1.));
#1709 = ORIENTED_EDGE('',*,*,#443,.F.);
#1710 = ORIENTED_EDGE('',*,*,#1671,.T.);
#1711 = ORIENTED_EDGE('',*,*,#1327,.T.);
#1712 = CONICAL_SURFACE('',#1713,1.25,0.694738276197);
#1713 = AXIS2_PLACEMENT_3D('',#1714,#1715,#1716);
#1714 = CARTESIAN_POINT('',(11.69,5.65,5.05));
#1715 = DIRECTION('',(-1.,-0.,-0.));
#1716 = DIRECTION('',(0.,0.,1.));
#1717 = ADVANCED_FACE('',(#1718),#1730,.T.);
#1718 = FACE_BOUND('',#1719,.T.);
#1719 = EDGE_LOOP('',(#1720,#1721,#1722,#1723));
#1720 = ORIENTED_EDGE('',*,*,#494,.T.);
#1721 = ORIENTED_EDGE('',*,*,#1703,.T.);
#1722 = ORIENTED_EDGE('',*,*,#452,.T.);
#1723 = ORIENTED_EDGE('',*,*,#1724,.F.);
#1724 = EDGE_CURVE('',#487,#453,#1725,.T.);
#1725 = CIRCLE('',#1726,1.);
#1726 = AXIS2_PLACEMENT_3D('',#1727,#1728,#1729);
#1727 = CARTESIAN_POINT('',(11.69,5.65,5.05));
#1728 = DIRECTION('',(1.,0.,-0.));
#1729 = DIRECTION('',(0.,0.,1.));
#1730 = PLANE('',#1731);
#1731 = AXIS2_PLACEMENT_3D('',#1732,#1733,#1734);
#1732 = CARTESIAN_POINT('',(11.69,5.65,5.05));
#1733 = DIRECTION('',(1.,0.,0.));
#1734 = DIRECTION('',(0.,0.,1.));
#1735 = ADVANCED_FACE('',(#1736),#1808,.F.);
#1736 = FACE_BOUND('',#1737,.F.);
#1737 = EDGE_LOOP('',(#1738,#1739,#1745,#1746,#1747,#1748,#1749));
#1738 = ORIENTED_EDGE('',*,*,#477,.T.);
#1739 = ORIENTED_EDGE('',*,*,#1740,.T.);
#1740 = EDGE_CURVE('',#469,#1142,#1741,.T.);
#1741 = LINE('',#1742,#1743);
#1742 = CARTESIAN_POINT('',(8.5,5.31,3.3));
#1743 = VECTOR('',#1744,1.);
#1744 = DIRECTION('',(1.542569904955E-16,-0.77675574872,0.629801958421)
  );
#1745 = ORIENTED_EDGE('',*,*,#1139,.F.);
#1746 = ORIENTED_EDGE('',*,*,#1150,.F.);
#1747 = ORIENTED_EDGE('',*,*,#1740,.F.);
#1748 = ORIENTED_EDGE('',*,*,#468,.T.);
#1749 = ORIENTED_EDGE('',*,*,#1750,.F.);
#1750 = EDGE_CURVE('',#478,#461,#1751,.T.);
#1751 = B_SPLINE_CURVE_WITH_KNOTS('',7,(#1752,#1753,#1754,#1755,#1756,
    #1757,#1758,#1759,#1760,#1761,#1762,#1763,#1764,#1765,#1766,#1767,
    #1768,#1769,#1770,#1771,#1772,#1773,#1774,#1775,#1776,#1777,#1778,
    #1779,#1780,#1781,#1782,#1783,#1784,#1785,#1786,#1787,#1788,#1789,
    #1790,#1791,#1792,#1793,#1794,#1795,#1796,#1797,#1798,#1799,#1800,
    #1801,#1802,#1803,#1804,#1805,#1806,#1807),.UNSPECIFIED.,.F.,.F.,(8,
    6,6,6,6,6,6,6,6,8),(0.,0.215314947453,0.377534362756,0.516602718103,
    0.621265151521,0.744723233666,0.817135184876,0.848123916681,
    0.897174742649,1.),.UNSPECIFIED.);
#1752 = CARTESIAN_POINT('',(10.377048938579,5.31,5.990425435641));
#1753 = CARTESIAN_POINT('',(10.334073903976,5.251205629853,
    5.969169007335));
#1754 = CARTESIAN_POINT('',(10.293016537435,5.192617249442,
    5.943138143488));
#1755 = CARTESIAN_POINT('',(10.254159820614,5.134501904536,
    5.912030125568));
#1756 = CARTESIAN_POINT('',(10.217822280879,5.077287379771,
    5.875516897997));
#1757 = CARTESIAN_POINT('',(10.184304503135,5.021573197755,
    5.833301058013));
#1758 = CARTESIAN_POINT('',(10.153715803439,4.968169380318,5.78520371416
    ));
#1759 = CARTESIAN_POINT('',(10.105015269181,4.880239306167,5.69073672452
    ));
#1760 = CARTESIAN_POINT('',(10.085687327013,4.844306589794,
    5.646867121018));
#1761 = CARTESIAN_POINT('',(10.067927783067,4.810660280924,
    5.599798491572));
#1762 = CARTESIAN_POINT('',(10.05161338154,4.779750420771,5.549696689878
    ));
#1763 = CARTESIAN_POINT('',(10.036536910463,4.752013847963,
    5.496825276138));
#1764 = CARTESIAN_POINT('',(10.022454228582,4.727842320953,
    5.441549483917));
#1765 = CARTESIAN_POINT('',(9.997778619531,4.69014399564,5.335281045374)
  );
#1766 = CARTESIAN_POINT('',(9.986970729075,4.675584938063,5.28478783977)
  );
#1767 = CARTESIAN_POINT('',(9.976618827023,4.664063154478,5.233136111736
    ));
#1768 = CARTESIAN_POINT('',(9.966610381471,4.655718502708,5.180625138302
    ));
#1769 = CARTESIAN_POINT('',(9.956883856806,4.650641336573,5.127560550253
    ));
#1770 = CARTESIAN_POINT('',(9.947450166084,4.648875839663,5.074249802902
    ));
#1771 = CARTESIAN_POINT('',(9.931585247323,4.651583023288,4.980929130796
    ));
#1772 = CARTESIAN_POINT('',(9.924988176167,4.654620651132,4.940887160979
    ));
#1773 = CARTESIAN_POINT('',(9.918642360337,4.659533076788,4.901003566679
    ));
#1774 = CARTESIAN_POINT('',(9.912610461158,4.666307694484,4.861402447368
    ));
#1775 = CARTESIAN_POINT('',(9.906979379871,4.67491921365,4.822205729302)
  );
#1776 = CARTESIAN_POINT('',(9.901857478056,4.685329263724,4.783533644352
    ));
#1777 = CARTESIAN_POINT('',(9.892080563841,4.711825883593,4.700647492809
    ));
#1778 = CARTESIAN_POINT('',(9.887673164069,4.728598664399,4.656676914855
    ));
#1779 = CARTESIAN_POINT('',(9.884357618467,4.74771576454,4.613802713342)
  );
#1780 = CARTESIAN_POINT('',(9.88237154547,4.769056960508,4.572227433045)
  );
#1781 = CARTESIAN_POINT('',(9.881960316966,4.792467254494,4.5321458925)
  );
#1782 = CARTESIAN_POINT('',(9.883341568111,4.817751618222,4.493741007262
    ));
#1783 = CARTESIAN_POINT('',(9.888600114609,4.860454661847,4.435730246112
    ));
#1784 = CARTESIAN_POINT('',(9.891209386528,4.876804583409,4.414915046591
    ));
#1785 = CARTESIAN_POINT('',(9.894512930004,4.893668648841,4.394764040636
    ));
#1786 = CARTESIAN_POINT('',(9.898530798211,4.910996269902,4.375303272158
    ));
#1787 = CARTESIAN_POINT('',(9.903273552885,4.928735783746,4.356552249582
    ));
#1788 = CARTESIAN_POINT('',(9.908741771771,4.946835242446,4.338524536582
    ));
#1789 = CARTESIAN_POINT('',(9.917571909734,4.973120898515,4.313826427795
    ));
#1790 = CARTESIAN_POINT('',(9.920349409842,4.981055305176,4.30655829852)
  );
#1791 = CARTESIAN_POINT('',(9.923257331479,4.989042509537,4.299424461389
    ));
#1792 = CARTESIAN_POINT('',(9.926294696559,4.997078716792,4.292425210018
    ));
#1793 = CARTESIAN_POINT('',(9.929460273817,5.005160250295,4.285560625248
    ));
#1794 = CARTESIAN_POINT('',(9.932752578809,5.013283551557,4.278830575142
    ));
#1795 = CARTESIAN_POINT('',(9.941578973854,5.034363896354,4.261794391373
    ));
#1796 = CARTESIAN_POINT('',(9.947301276205,5.047378686751,4.251690276946
    ));
#1797 = CARTESIAN_POINT('',(9.953330028263,5.060475979369,4.241921067634
    ));
#1798 = CARTESIAN_POINT('',(9.959657216519,5.073643219897,4.232484216407
    ));
#1799 = CARTESIAN_POINT('',(9.966273871852,5.086868891193,4.22337615928)
  );
#1800 = CARTESIAN_POINT('',(9.97317037472,5.100142532701,4.214592541323)
  );
#1801 = CARTESIAN_POINT('',(9.995359656143,5.141361184601,4.188385150767
    ));
#1802 = CARTESIAN_POINT('',(10.011567542173,5.169434855335,
    4.172047582277));
#1803 = CARTESIAN_POINT('',(10.02886939867,5.197593126096,4.15706678396)
  );
#1804 = CARTESIAN_POINT('',(10.047168741969,5.225770868312,
    4.143387058073));
#1805 = CARTESIAN_POINT('',(10.066369884664,5.253918927998,
    4.130949695431));
#1806 = CARTESIAN_POINT('',(10.086384195754,5.282002582961,
    4.119696708479));
#1807 = CARTESIAN_POINT('',(10.107136360792,5.31,4.109574564359));
#1808 = CONICAL_SURFACE('',#1809,2.,0.681298225288);
#1809 = AXIS2_PLACEMENT_3D('',#1810,#1811,#1812);
#1810 = CARTESIAN_POINT('',(8.5,5.31,5.3));
#1811 = DIRECTION('',(0.,1.,0.));
#1812 = DIRECTION('',(0.,0.,-1.));
#1813 = ADVANCED_FACE('',(#1814),#1826,.F.);
#1814 = FACE_BOUND('',#1815,.F.);
#1815 = EDGE_LOOP('',(#1816,#1817,#1823,#1824,#1825));
#1816 = ORIENTED_EDGE('',*,*,#667,.T.);
#1817 = ORIENTED_EDGE('',*,*,#1818,.T.);
#1818 = EDGE_CURVE('',#668,#1108,#1819,.T.);
#1819 = LINE('',#1820,#1821);
#1820 = CARTESIAN_POINT('',(8.5,5.31,21.3));
#1821 = VECTOR('',#1822,1.);
#1822 = DIRECTION('',(1.542569904955E-16,-0.77675574872,0.629801958421)
  );
#1823 = ORIENTED_EDGE('',*,*,#1105,.F.);
#1824 = ORIENTED_EDGE('',*,*,#1116,.F.);
#1825 = ORIENTED_EDGE('',*,*,#1818,.F.);
#1826 = CONICAL_SURFACE('',#1827,2.,0.681298225288);
#1827 = AXIS2_PLACEMENT_3D('',#1828,#1829,#1830);
#1828 = CARTESIAN_POINT('',(8.5,5.31,23.3));
#1829 = DIRECTION('',(0.,1.,0.));
#1830 = DIRECTION('',(0.,0.,-1.));
#1831 = ADVANCED_FACE('',(#1832),#1844,.F.);
#1832 = FACE_BOUND('',#1833,.F.);
#1833 = EDGE_LOOP('',(#1834,#1835,#1841,#1842,#1843));
#1834 = ORIENTED_EDGE('',*,*,#678,.T.);
#1835 = ORIENTED_EDGE('',*,*,#1836,.T.);
#1836 = EDGE_CURVE('',#679,#1040,#1837,.T.);
#1837 = LINE('',#1838,#1839);
#1838 = CARTESIAN_POINT('',(39.5,5.31,21.3));
#1839 = VECTOR('',#1840,1.);
#1840 = DIRECTION('',(1.542569904955E-16,-0.77675574872,0.629801958421)
  );
#1841 = ORIENTED_EDGE('',*,*,#1037,.F.);
#1842 = ORIENTED_EDGE('',*,*,#1048,.F.);
#1843 = ORIENTED_EDGE('',*,*,#1836,.F.);
#1844 = CONICAL_SURFACE('',#1845,2.,0.681298225288);
#1845 = AXIS2_PLACEMENT_3D('',#1846,#1847,#1848);
#1846 = CARTESIAN_POINT('',(39.5,5.31,23.3));
#1847 = DIRECTION('',(0.,1.,0.));
#1848 = DIRECTION('',(0.,0.,-1.));
#1849 = ADVANCED_FACE('',(#1850),#1856,.T.);
#1850 = FACE_BOUND('',#1851,.T.);
#1851 = EDGE_LOOP('',(#1852,#1853,#1854,#1855));
#1852 = ORIENTED_EDGE('',*,*,#819,.F.);
#1853 = ORIENTED_EDGE('',*,*,#803,.F.);
#1854 = ORIENTED_EDGE('',*,*,#778,.T.);
#1855 = ORIENTED_EDGE('',*,*,#739,.F.);
#1856 = PLANE('',#1857);
#1857 = AXIS2_PLACEMENT_3D('',#1858,#1859,#1860);
#1858 = CARTESIAN_POINT('',(18.1,3.7,7.86));
#1859 = DIRECTION('',(0.,1.,0.));
#1860 = DIRECTION('',(0.,0.,1.));
#1861 = ADVANCED_FACE('',(#1862),#1868,.T.);
#1862 = FACE_BOUND('',#1863,.T.);
#1863 = EDGE_LOOP('',(#1864,#1865,#1866,#1867));
#1864 = ORIENTED_EDGE('',*,*,#1398,.F.);
#1865 = ORIENTED_EDGE('',*,*,#863,.T.);
#1866 = ORIENTED_EDGE('',*,*,#1628,.T.);
#1867 = ORIENTED_EDGE('',*,*,#1414,.F.);
#1868 = PLANE('',#1869);
#1869 = AXIS2_PLACEMENT_3D('',#1870,#1871,#1872);
#1870 = CARTESIAN_POINT('',(10.7,7.9,1.3));
#1871 = DIRECTION('',(0.,1.,0.));
#1872 = DIRECTION('',(0.,0.,1.));
#1873 = ADVANCED_FACE('',(#1874),#1901,.F.);
#1874 = FACE_BOUND('',#1875,.F.);
#1875 = EDGE_LOOP('',(#1876,#1887,#1893,#1894));
#1876 = ORIENTED_EDGE('',*,*,#1877,.F.);
#1877 = EDGE_CURVE('',#1878,#1880,#1882,.T.);
#1878 = VERTEX_POINT('',#1879);
#1879 = CARTESIAN_POINT('',(30.49,5.65,6.05));
#1880 = VERTEX_POINT('',#1881);
#1881 = CARTESIAN_POINT('',(30.49,6.357106781187,4.342893218813));
#1882 = CIRCLE('',#1883,1.);
#1883 = AXIS2_PLACEMENT_3D('',#1884,#1885,#1886);
#1884 = CARTESIAN_POINT('',(30.49,5.65,5.05));
#1885 = DIRECTION('',(1.,0.,-0.));
#1886 = DIRECTION('',(0.,0.,1.));
#1887 = ORIENTED_EDGE('',*,*,#1888,.F.);
#1888 = EDGE_CURVE('',#899,#1878,#1889,.T.);
#1889 = LINE('',#1890,#1891);
#1890 = CARTESIAN_POINT('',(30.19,5.65,6.3));
#1891 = VECTOR('',#1892,1.);
#1892 = DIRECTION('',(0.768221279597,-1.567999551826E-16,-0.640184399664
    ));
#1893 = ORIENTED_EDGE('',*,*,#898,.T.);
#1894 = ORIENTED_EDGE('',*,*,#1895,.T.);
#1895 = EDGE_CURVE('',#901,#1880,#1896,.T.);
#1896 = HYPERBOLA('',#1897,1.2,1.);
#1897 = AXIS2_PLACEMENT_3D('',#1898,#1899,#1900);
#1898 = CARTESIAN_POINT('',(31.69,6.357106781187,4.342893218813));
#1899 = DIRECTION('',(0.,-0.707106781187,0.707106781187));
#1900 = DIRECTION('',(-1.,0.,0.));
#1901 = CONICAL_SURFACE('',#1902,1.25,0.694738276197);
#1902 = AXIS2_PLACEMENT_3D('',#1903,#1904,#1905);
#1903 = CARTESIAN_POINT('',(30.19,5.65,5.05));
#1904 = DIRECTION('',(-1.,-0.,-0.));
#1905 = DIRECTION('',(0.,0.,1.));
#1906 = ADVANCED_FACE('',(#1907),#1927,.F.);
#1907 = FACE_BOUND('',#1908,.F.);
#1908 = EDGE_LOOP('',(#1909,#1910,#1919,#1926));
#1909 = ORIENTED_EDGE('',*,*,#1888,.T.);
#1910 = ORIENTED_EDGE('',*,*,#1911,.F.);
#1911 = EDGE_CURVE('',#1912,#1878,#1914,.T.);
#1912 = VERTEX_POINT('',#1913);
#1913 = CARTESIAN_POINT('',(30.49,6.357106781187,5.757106781187));
#1914 = CIRCLE('',#1915,1.);
#1915 = AXIS2_PLACEMENT_3D('',#1916,#1917,#1918);
#1916 = CARTESIAN_POINT('',(30.49,5.65,5.05));
#1917 = DIRECTION('',(1.,0.,-0.));
#1918 = DIRECTION('',(0.,0.,1.));
#1919 = ORIENTED_EDGE('',*,*,#1920,.T.);
#1920 = EDGE_CURVE('',#1912,#918,#1921,.T.);
#1921 = HYPERBOLA('',#1922,1.2,1.);
#1922 = AXIS2_PLACEMENT_3D('',#1923,#1924,#1925);
#1923 = CARTESIAN_POINT('',(31.69,6.357106781187,5.757106781187));
#1924 = DIRECTION('',(-0.,-0.707106781187,-0.707106781187));
#1925 = DIRECTION('',(-1.,0.,0.));
#1926 = ORIENTED_EDGE('',*,*,#925,.T.);
#1927 = CONICAL_SURFACE('',#1928,1.25,0.694738276197);
#1928 = AXIS2_PLACEMENT_3D('',#1929,#1930,#1931);
#1929 = CARTESIAN_POINT('',(30.19,5.65,5.05));
#1930 = DIRECTION('',(-1.,-0.,-0.));
#1931 = DIRECTION('',(0.,0.,1.));
#1932 = ADVANCED_FACE('',(#1933),#1951,.T.);
#1933 = FACE_BOUND('',#1934,.T.);
#1934 = EDGE_LOOP('',(#1935,#1936,#1942,#1943,#1944,#1950));
#1935 = ORIENTED_EDGE('',*,*,#917,.F.);
#1936 = ORIENTED_EDGE('',*,*,#1937,.T.);
#1937 = EDGE_CURVE('',#910,#1449,#1938,.T.);
#1938 = LINE('',#1939,#1940);
#1939 = CARTESIAN_POINT('',(30.17,7.064213562373,5.05));
#1940 = VECTOR('',#1941,1.);
#1941 = DIRECTION('',(1.,0.,0.));
#1942 = ORIENTED_EDGE('',*,*,#1448,.F.);
#1943 = ORIENTED_EDGE('',*,*,#1516,.T.);
#1944 = ORIENTED_EDGE('',*,*,#1945,.F.);
#1945 = EDGE_CURVE('',#1912,#1491,#1946,.T.);
#1946 = LINE('',#1947,#1948);
#1947 = CARTESIAN_POINT('',(30.17,6.357106781187,5.757106781187));
#1948 = VECTOR('',#1949,1.);
#1949 = DIRECTION('',(1.,0.,0.));
#1950 = ORIENTED_EDGE('',*,*,#1920,.T.);
#1951 = PLANE('',#1952);
#1952 = AXIS2_PLACEMENT_3D('',#1953,#1954,#1955);
#1953 = CARTESIAN_POINT('',(30.17,7.064213562373,5.05));
#1954 = DIRECTION('',(0.,-0.707106781187,-0.707106781187));
#1955 = DIRECTION('',(0.,-0.707106781187,0.707106781187));
#1956 = ADVANCED_FACE('',(#1957),#1978,.T.);
#1957 = FACE_BOUND('',#1958,.T.);
#1958 = EDGE_LOOP('',(#1959,#1960,#1968,#1975,#1976,#1977));
#1959 = ORIENTED_EDGE('',*,*,#1895,.T.);
#1960 = ORIENTED_EDGE('',*,*,#1961,.T.);
#1961 = EDGE_CURVE('',#1880,#1962,#1964,.T.);
#1962 = VERTEX_POINT('',#1963);
#1963 = CARTESIAN_POINT('',(36.01,6.357106781187,4.342893218813));
#1964 = LINE('',#1965,#1966);
#1965 = CARTESIAN_POINT('',(30.17,6.357106781187,4.342893218813));
#1966 = VECTOR('',#1967,1.);
#1967 = DIRECTION('',(1.,0.,0.));
#1968 = ORIENTED_EDGE('',*,*,#1969,.T.);
#1969 = EDGE_CURVE('',#1962,#1457,#1970,.T.);
#1970 = HYPERBOLA('',#1971,1.2,1.);
#1971 = AXIS2_PLACEMENT_3D('',#1972,#1973,#1974);
#1972 = CARTESIAN_POINT('',(34.81,6.357106781187,4.342893218813));
#1973 = DIRECTION('',(0.,-0.707106781187,0.707106781187));
#1974 = DIRECTION('',(1.,0.,0.));
#1975 = ORIENTED_EDGE('',*,*,#1456,.F.);
#1976 = ORIENTED_EDGE('',*,*,#1937,.F.);
#1977 = ORIENTED_EDGE('',*,*,#909,.F.);
#1978 = PLANE('',#1979);
#1979 = AXIS2_PLACEMENT_3D('',#1980,#1981,#1982);
#1980 = CARTESIAN_POINT('',(30.17,6.357106781187,4.342893218813));
#1981 = DIRECTION('',(0.,-0.707106781187,0.707106781187));
#1982 = DIRECTION('',(0.,0.707106781187,0.707106781187));
#1983 = ADVANCED_FACE('',(#1984),#1996,.F.);
#1984 = FACE_BOUND('',#1985,.F.);
#1985 = EDGE_LOOP('',(#1986,#1987,#1994,#1995));
#1986 = ORIENTED_EDGE('',*,*,#1695,.T.);
#1987 = ORIENTED_EDGE('',*,*,#1988,.F.);
#1988 = EDGE_CURVE('',#1353,#1687,#1989,.T.);
#1989 = CIRCLE('',#1990,1.);
#1990 = AXIS2_PLACEMENT_3D('',#1991,#1992,#1993);
#1991 = CARTESIAN_POINT('',(11.99,5.65,5.05));
#1992 = DIRECTION('',(1.,0.,-0.));
#1993 = DIRECTION('',(0.,0.,1.));
#1994 = ORIENTED_EDGE('',*,*,#1352,.T.);
#1995 = ORIENTED_EDGE('',*,*,#1662,.T.);
#1996 = CONICAL_SURFACE('',#1997,1.25,0.694738276197);
#1997 = AXIS2_PLACEMENT_3D('',#1998,#1999,#2000);
#1998 = CARTESIAN_POINT('',(11.69,5.65,5.05));
#1999 = DIRECTION('',(-1.,-0.,-0.));
#2000 = DIRECTION('',(0.,0.,1.));
#2001 = ADVANCED_FACE('',(#2002),#2014,.F.);
#2002 = FACE_BOUND('',#2003,.F.);
#2003 = EDGE_LOOP('',(#2004,#2005,#2012,#2013));
#2004 = ORIENTED_EDGE('',*,*,#1499,.T.);
#2005 = ORIENTED_EDGE('',*,*,#2006,.F.);
#2006 = EDGE_CURVE('',#1962,#1489,#2007,.T.);
#2007 = CIRCLE('',#2008,1.);
#2008 = AXIS2_PLACEMENT_3D('',#2009,#2010,#2011);
#2009 = CARTESIAN_POINT('',(36.01,5.65,5.05));
#2010 = DIRECTION('',(-1.,0.,0.));
#2011 = DIRECTION('',(0.,0.,-1.));
#2012 = ORIENTED_EDGE('',*,*,#1969,.T.);
#2013 = ORIENTED_EDGE('',*,*,#1464,.T.);
#2014 = CONICAL_SURFACE('',#2015,1.25,0.694738276197);
#2015 = AXIS2_PLACEMENT_3D('',#2016,#2017,#2018);
#2016 = CARTESIAN_POINT('',(36.31,5.65,5.05));
#2017 = DIRECTION('',(1.,0.,0.));
#2018 = DIRECTION('',(0.,0.,-1.));
#2019 = ADVANCED_FACE('',(#2020),#2026,.F.);
#2020 = FACE_BOUND('',#2021,.T.);
#2021 = EDGE_LOOP('',(#2022,#2023,#2024,#2025));
#2022 = ORIENTED_EDGE('',*,*,#601,.T.);
#2023 = ORIENTED_EDGE('',*,*,#1534,.T.);
#2024 = ORIENTED_EDGE('',*,*,#575,.F.);
#2025 = ORIENTED_EDGE('',*,*,#1560,.F.);
#2026 = CYLINDRICAL_SURFACE('',#2027,1.);
#2027 = AXIS2_PLACEMENT_3D('',#2028,#2029,#2030);
#2028 = CARTESIAN_POINT('',(39.62,5.65,5.05));
#2029 = DIRECTION('',(-1.,0.,0.));
#2030 = DIRECTION('',(0.,0.,-1.));
#2031 = ADVANCED_FACE('',(#2032),#2038,.F.);
#2032 = FACE_BOUND('',#2033,.T.);
#2033 = EDGE_LOOP('',(#2034,#2035,#2036,#2037));
#2034 = ORIENTED_EDGE('',*,*,#486,.T.);
#2035 = ORIENTED_EDGE('',*,*,#1724,.T.);
#2036 = ORIENTED_EDGE('',*,*,#460,.F.);
#2037 = ORIENTED_EDGE('',*,*,#1750,.F.);
#2038 = CYLINDRICAL_SURFACE('',#2039,1.);
#2039 = AXIS2_PLACEMENT_3D('',#2040,#2041,#2042);
#2040 = CARTESIAN_POINT('',(8.38,5.65,5.05));
#2041 = DIRECTION('',(1.,0.,0.));
#2042 = DIRECTION('',(0.,0.,1.));
#2043 = ADVANCED_FACE('',(#2044),#2052,.F.);
#2044 = FACE_BOUND('',#2045,.F.);
#2045 = EDGE_LOOP('',(#2046,#2047,#2048,#2049,#2050,#2051));
#2046 = ORIENTED_EDGE('',*,*,#1686,.T.);
#2047 = ORIENTED_EDGE('',*,*,#1336,.T.);
#2048 = ORIENTED_EDGE('',*,*,#1286,.T.);
#2049 = ORIENTED_EDGE('',*,*,#1252,.T.);
#2050 = ORIENTED_EDGE('',*,*,#1372,.F.);
#2051 = ORIENTED_EDGE('',*,*,#1988,.T.);
#2052 = CYLINDRICAL_SURFACE('',#2053,1.);
#2053 = AXIS2_PLACEMENT_3D('',#2054,#2055,#2056);
#2054 = CARTESIAN_POINT('',(11.67,5.65,5.05));
#2055 = DIRECTION('',(1.,0.,0.));
#2056 = DIRECTION('',(0.,0.,1.));
#2057 = ADVANCED_FACE('',(#2058),#2066,.F.);
#2058 = FACE_BOUND('',#2059,.F.);
#2059 = EDGE_LOOP('',(#2060,#2061,#2062,#2063,#2064,#2065));
#2060 = ORIENTED_EDGE('',*,*,#1877,.T.);
#2061 = ORIENTED_EDGE('',*,*,#1961,.T.);
#2062 = ORIENTED_EDGE('',*,*,#2006,.T.);
#2063 = ORIENTED_EDGE('',*,*,#1488,.T.);
#2064 = ORIENTED_EDGE('',*,*,#1945,.F.);
#2065 = ORIENTED_EDGE('',*,*,#1911,.T.);
#2066 = CYLINDRICAL_SURFACE('',#2067,1.);
#2067 = AXIS2_PLACEMENT_3D('',#2068,#2069,#2070);
#2068 = CARTESIAN_POINT('',(39.62,5.65,5.05));
#2069 = DIRECTION('',(-1.,0.,0.));
#2070 = DIRECTION('',(0.,0.,-1.));
#2071 = ( GEOMETRIC_REPRESENTATION_CONTEXT(3)
GLOBAL_UNCERTAINTY_ASSIGNED_CONTEXT((#2075))
GLOBAL_UNIT_ASSIGNED_CONTEXT((#2072,#2073,#2074)) REPRESENTATION_CONTEXT
('Context #1','3D Context with UNIT and UNCERTAINTY') );
#2072 = ( LENGTH_UNIT() NAMED_UNIT(*) SI_UNIT(.MILLI.,.METRE.) );
#2073 = ( NAMED_UNIT(*) PLANE_ANGLE_UNIT() SI_UNIT($,.RADIAN.) );
#2074 = ( NAMED_UNIT(*) SI_UNIT($,.STERADIAN.) SOLID_ANGLE_UNIT() );
#2075 = UNCERTAINTY_MEASURE_WITH_UNIT(LENGTH_MEASURE(1.E-07),#2072,
  'distance_accuracy_value','confusion accuracy');
#2076 = PRODUCT_RELATED_PRODUCT_CATEGORY('part',$,(#7));
ENDSEC;
END-ISO-10303-21;
