ISO-10303-21;
HEADER;
FILE_DESCRIPTION(('FreeCAD Model'),'2;1');
FILE_NAME('Open CASCADE Shape Model','2026-08-02T17:12:43',('FreeCAD'),(
    'FreeCAD'),'Open CASCADE STEP processor 7.8','FreeCAD','Unknown');
FILE_SCHEMA(('AUTOMOTIVE_DESIGN { 1 0 10303 214 1 1 1 1 }'));
ENDSEC;
DATA;
#1 = APPLICATION_PROTOCOL_DEFINITION('international standard',
  'automotive_design',2000,#2);
#2 = APPLICATION_CONTEXT(
  'core data for automotive mechanical design processes');
#3 = SHAPE_DEFINITION_REPRESENTATION(#4,#10);
#4 = PRODUCT_DEFINITION_SHAPE('','',#5);
#5 = PRODUCT_DEFINITION('design','',#6,#9);
#6 = PRODUCT_DEFINITION_FORMATION('','',#7);
#7 = PRODUCT('Open CASCADE STEP translator 7.8 4',
  'Open CASCADE STEP translator 7.8 4','',(#8));
#8 = PRODUCT_CONTEXT('',#2,'mechanical');
#9 = PRODUCT_DEFINITION_CONTEXT('part definition',#2,'design');
#10 = ADVANCED_BREP_SHAPE_REPRESENTATION('',(#11,#15),#1512);
#11 = AXIS2_PLACEMENT_3D('',#12,#13,#14);
#12 = CARTESIAN_POINT('',(0.,0.,0.));
#13 = DIRECTION('',(0.,0.,1.));
#14 = DIRECTION('',(1.,0.,-0.));
#15 = MANIFOLD_SOLID_BREP('',#16);
#16 = CLOSED_SHELL('',(#17,#91,#154,#179,#203,#227,#315,#339,#363,#381,
    #417,#468,#525,#576,#604,#628,#652,#676,#716,#740,#764,#781,#911,
    #928,#940,#1070,#1087,#1124,#1136,#1153,#1170,#1187,#1221,#1238,
    #1270,#1282,#1322,#1347,#1373,#1400,#1426,#1451,#1469,#1486,#1498));
#17 = ADVANCED_FACE('',(#18),#86,.F.);
#18 = FACE_BOUND('',#19,.F.);
#19 = EDGE_LOOP('',(#20,#30,#39,#47,#55,#63,#71,#79));
#20 = ORIENTED_EDGE('',*,*,#21,.T.);
#21 = EDGE_CURVE('',#22,#24,#26,.T.);
#22 = VERTEX_POINT('',#23);
#23 = CARTESIAN_POINT('',(16.,8.6,0.));
#24 = VERTEX_POINT('',#25);
#25 = CARTESIAN_POINT('',(32.,8.6,0.));
#26 = LINE('',#27,#28);
#27 = CARTESIAN_POINT('',(16.,8.6,0.));
#28 = VECTOR('',#29,1.);
#29 = DIRECTION('',(1.,0.,0.));
#30 = ORIENTED_EDGE('',*,*,#31,.T.);
#31 = EDGE_CURVE('',#24,#32,#34,.T.);
#32 = VERTEX_POINT('',#33);
#33 = CARTESIAN_POINT('',(33.,9.6,0.));
#34 = CIRCLE('',#35,1.);
#35 = AXIS2_PLACEMENT_3D('',#36,#37,#38);
#36 = CARTESIAN_POINT('',(32.,9.6,0.));
#37 = DIRECTION('',(-0.,0.,1.));
#38 = DIRECTION('',(0.,-1.,0.));
#39 = ORIENTED_EDGE('',*,*,#40,.T.);
#40 = EDGE_CURVE('',#32,#41,#43,.T.);
#41 = VERTEX_POINT('',#42);
#42 = CARTESIAN_POINT('',(33.,23.,0.));
#43 = LINE('',#44,#45);
#44 = CARTESIAN_POINT('',(33.,9.6,0.));
#45 = VECTOR('',#46,1.);
#46 = DIRECTION('',(0.,1.,0.));
#47 = ORIENTED_EDGE('',*,*,#48,.T.);
#48 = EDGE_CURVE('',#41,#49,#51,.T.);
#49 = VERTEX_POINT('',#50);
#50 = CARTESIAN_POINT('',(32.,24.,0.));
#51 = LINE('',#52,#53);
#52 = CARTESIAN_POINT('',(33.,23.,0.));
#53 = VECTOR('',#54,1.);
#54 = DIRECTION('',(-0.707106781187,0.707106781187,0.));
#55 = ORIENTED_EDGE('',*,*,#56,.T.);
#56 = EDGE_CURVE('',#49,#57,#59,.T.);
#57 = VERTEX_POINT('',#58);
#58 = CARTESIAN_POINT('',(16.,24.,0.));
#59 = LINE('',#60,#61);
#60 = CARTESIAN_POINT('',(32.,24.,0.));
#61 = VECTOR('',#62,1.);
#62 = DIRECTION('',(-1.,0.,0.));
#63 = ORIENTED_EDGE('',*,*,#64,.T.);
#64 = EDGE_CURVE('',#57,#65,#67,.T.);
#65 = VERTEX_POINT('',#66);
#66 = CARTESIAN_POINT('',(15.,23.,0.));
#67 = LINE('',#68,#69);
#68 = CARTESIAN_POINT('',(16.,24.,0.));
#69 = VECTOR('',#70,1.);
#70 = DIRECTION('',(-0.707106781187,-0.707106781187,0.));
#71 = ORIENTED_EDGE('',*,*,#72,.T.);
#72 = EDGE_CURVE('',#65,#73,#75,.T.);
#73 = VERTEX_POINT('',#74);
#74 = CARTESIAN_POINT('',(15.,9.6,0.));
#75 = LINE('',#76,#77);
#76 = CARTESIAN_POINT('',(15.,23.,0.));
#77 = VECTOR('',#78,1.);
#78 = DIRECTION('',(0.,-1.,0.));
#79 = ORIENTED_EDGE('',*,*,#80,.T.);
#80 = EDGE_CURVE('',#73,#22,#81,.T.);
#81 = CIRCLE('',#82,1.);
#82 = AXIS2_PLACEMENT_3D('',#83,#84,#85);
#83 = CARTESIAN_POINT('',(16.,9.6,0.));
#84 = DIRECTION('',(0.,0.,1.));
#85 = DIRECTION('',(-1.,0.,0.));
#86 = PLANE('',#87);
#87 = AXIS2_PLACEMENT_3D('',#88,#89,#90);
#88 = CARTESIAN_POINT('',(24.,16.263292578926,0.));
#89 = DIRECTION('',(0.,0.,1.));
#90 = DIRECTION('',(1.,0.,0.));
#91 = ADVANCED_FACE('',(#92),#149,.T.);
#92 = FACE_BOUND('',#93,.T.);
#93 = EDGE_LOOP('',(#94,#95,#103,#111,#119,#127,#135,#143));
#94 = ORIENTED_EDGE('',*,*,#21,.T.);
#95 = ORIENTED_EDGE('',*,*,#96,.T.);
#96 = EDGE_CURVE('',#24,#97,#99,.T.);
#97 = VERTEX_POINT('',#98);
#98 = CARTESIAN_POINT('',(32.,8.6,1.95));
#99 = LINE('',#100,#101);
#100 = CARTESIAN_POINT('',(32.,8.6,0.));
#101 = VECTOR('',#102,1.);
#102 = DIRECTION('',(0.,0.,1.));
#103 = ORIENTED_EDGE('',*,*,#104,.F.);
#104 = EDGE_CURVE('',#105,#97,#107,.T.);
#105 = VERTEX_POINT('',#106);
#106 = CARTESIAN_POINT('',(29.2,8.6,1.95));
#107 = LINE('',#108,#109);
#108 = CARTESIAN_POINT('',(16.,8.6,1.95));
#109 = VECTOR('',#110,1.);
#110 = DIRECTION('',(1.,0.,0.));
#111 = ORIENTED_EDGE('',*,*,#112,.T.);
#112 = EDGE_CURVE('',#105,#113,#115,.T.);
#113 = VERTEX_POINT('',#114);
#114 = CARTESIAN_POINT('',(29.2,8.6,2.3));
#115 = LINE('',#116,#117);
#116 = CARTESIAN_POINT('',(29.2,8.6,1.9));
#117 = VECTOR('',#118,1.);
#118 = DIRECTION('',(0.,0.,1.));
#119 = ORIENTED_EDGE('',*,*,#120,.F.);
#120 = EDGE_CURVE('',#121,#113,#123,.T.);
#121 = VERTEX_POINT('',#122);
#122 = CARTESIAN_POINT('',(18.8,8.6,2.3));
#123 = LINE('',#124,#125);
#124 = CARTESIAN_POINT('',(18.45,8.6,2.3));
#125 = VECTOR('',#126,1.);
#126 = DIRECTION('',(1.,0.,0.));
#127 = ORIENTED_EDGE('',*,*,#128,.F.);
#128 = EDGE_CURVE('',#129,#121,#131,.T.);
#129 = VERTEX_POINT('',#130);
#130 = CARTESIAN_POINT('',(18.8,8.6,1.95));
#131 = LINE('',#132,#133);
#132 = CARTESIAN_POINT('',(18.8,8.6,1.9));
#133 = VECTOR('',#134,1.);
#134 = DIRECTION('',(0.,0.,1.));
#135 = ORIENTED_EDGE('',*,*,#136,.F.);
#136 = EDGE_CURVE('',#137,#129,#139,.T.);
#137 = VERTEX_POINT('',#138);
#138 = CARTESIAN_POINT('',(16.,8.6,1.95));
#139 = LINE('',#140,#141);
#140 = CARTESIAN_POINT('',(16.,8.6,1.95));
#141 = VECTOR('',#142,1.);
#142 = DIRECTION('',(1.,0.,0.));
#143 = ORIENTED_EDGE('',*,*,#144,.F.);
#144 = EDGE_CURVE('',#22,#137,#145,.T.);
#145 = LINE('',#146,#147);
#146 = CARTESIAN_POINT('',(16.,8.6,0.));
#147 = VECTOR('',#148,1.);
#148 = DIRECTION('',(0.,0.,1.));
#149 = PLANE('',#150);
#150 = AXIS2_PLACEMENT_3D('',#151,#152,#153);
#151 = CARTESIAN_POINT('',(24.,8.6,1.096448087432));
#152 = DIRECTION('',(-0.,-1.,-0.));
#153 = DIRECTION('',(0.,0.,-1.));
#154 = ADVANCED_FACE('',(#155),#174,.T.);
#155 = FACE_BOUND('',#156,.F.);
#156 = EDGE_LOOP('',(#157,#158,#167,#173));
#157 = ORIENTED_EDGE('',*,*,#96,.T.);
#158 = ORIENTED_EDGE('',*,*,#159,.T.);
#159 = EDGE_CURVE('',#97,#160,#162,.T.);
#160 = VERTEX_POINT('',#161);
#161 = CARTESIAN_POINT('',(33.,9.6,1.95));
#162 = CIRCLE('',#163,1.);
#163 = AXIS2_PLACEMENT_3D('',#164,#165,#166);
#164 = CARTESIAN_POINT('',(32.,9.6,1.95));
#165 = DIRECTION('',(-0.,0.,1.));
#166 = DIRECTION('',(0.,-1.,0.));
#167 = ORIENTED_EDGE('',*,*,#168,.F.);
#168 = EDGE_CURVE('',#32,#160,#169,.T.);
#169 = LINE('',#170,#171);
#170 = CARTESIAN_POINT('',(33.,9.6,0.));
#171 = VECTOR('',#172,1.);
#172 = DIRECTION('',(0.,0.,1.));
#173 = ORIENTED_EDGE('',*,*,#31,.F.);
#174 = CYLINDRICAL_SURFACE('',#175,1.);
#175 = AXIS2_PLACEMENT_3D('',#176,#177,#178);
#176 = CARTESIAN_POINT('',(32.,9.6,0.));
#177 = DIRECTION('',(-0.,-0.,-1.));
#178 = DIRECTION('',(0.,-1.,0.));
#179 = ADVANCED_FACE('',(#180),#198,.F.);
#180 = FACE_BOUND('',#181,.F.);
#181 = EDGE_LOOP('',(#182,#183,#191,#197));
#182 = ORIENTED_EDGE('',*,*,#168,.T.);
#183 = ORIENTED_EDGE('',*,*,#184,.T.);
#184 = EDGE_CURVE('',#160,#185,#187,.T.);
#185 = VERTEX_POINT('',#186);
#186 = CARTESIAN_POINT('',(33.,23.,1.95));
#187 = LINE('',#188,#189);
#188 = CARTESIAN_POINT('',(33.,9.6,1.95));
#189 = VECTOR('',#190,1.);
#190 = DIRECTION('',(0.,1.,0.));
#191 = ORIENTED_EDGE('',*,*,#192,.F.);
#192 = EDGE_CURVE('',#41,#185,#193,.T.);
#193 = LINE('',#194,#195);
#194 = CARTESIAN_POINT('',(33.,23.,0.));
#195 = VECTOR('',#196,1.);
#196 = DIRECTION('',(0.,0.,1.));
#197 = ORIENTED_EDGE('',*,*,#40,.F.);
#198 = PLANE('',#199);
#199 = AXIS2_PLACEMENT_3D('',#200,#201,#202);
#200 = CARTESIAN_POINT('',(33.,9.6,0.));
#201 = DIRECTION('',(-1.,0.,0.));
#202 = DIRECTION('',(0.,1.,0.));
#203 = ADVANCED_FACE('',(#204),#222,.F.);
#204 = FACE_BOUND('',#205,.F.);
#205 = EDGE_LOOP('',(#206,#207,#215,#221));
#206 = ORIENTED_EDGE('',*,*,#192,.T.);
#207 = ORIENTED_EDGE('',*,*,#208,.T.);
#208 = EDGE_CURVE('',#185,#209,#211,.T.);
#209 = VERTEX_POINT('',#210);
#210 = CARTESIAN_POINT('',(32.,24.,1.95));
#211 = LINE('',#212,#213);
#212 = CARTESIAN_POINT('',(33.,23.,1.95));
#213 = VECTOR('',#214,1.);
#214 = DIRECTION('',(-0.707106781187,0.707106781187,0.));
#215 = ORIENTED_EDGE('',*,*,#216,.F.);
#216 = EDGE_CURVE('',#49,#209,#217,.T.);
#217 = LINE('',#218,#219);
#218 = CARTESIAN_POINT('',(32.,24.,0.));
#219 = VECTOR('',#220,1.);
#220 = DIRECTION('',(0.,0.,1.));
#221 = ORIENTED_EDGE('',*,*,#48,.F.);
#222 = PLANE('',#223);
#223 = AXIS2_PLACEMENT_3D('',#224,#225,#226);
#224 = CARTESIAN_POINT('',(33.,23.,0.));
#225 = DIRECTION('',(-0.707106781187,-0.707106781187,0.));
#226 = DIRECTION('',(-0.707106781187,0.707106781187,0.));
#227 = ADVANCED_FACE('',(#228),#310,.T.);
#228 = FACE_BOUND('',#229,.T.);
#229 = EDGE_LOOP('',(#230,#231,#239,#247,#255,#263,#271,#279,#287,#295,
    #303,#309));
#230 = ORIENTED_EDGE('',*,*,#56,.T.);
#231 = ORIENTED_EDGE('',*,*,#232,.T.);
#232 = EDGE_CURVE('',#57,#233,#235,.T.);
#233 = VERTEX_POINT('',#234);
#234 = CARTESIAN_POINT('',(16.,24.,1.95));
#235 = LINE('',#236,#237);
#236 = CARTESIAN_POINT('',(16.,24.,0.));
#237 = VECTOR('',#238,1.);
#238 = DIRECTION('',(0.,0.,1.));
#239 = ORIENTED_EDGE('',*,*,#240,.F.);
#240 = EDGE_CURVE('',#241,#233,#243,.T.);
#241 = VERTEX_POINT('',#242);
#242 = CARTESIAN_POINT('',(18.8,24.,1.95));
#243 = LINE('',#244,#245);
#244 = CARTESIAN_POINT('',(32.,24.,1.95));
#245 = VECTOR('',#246,1.);
#246 = DIRECTION('',(-1.,0.,0.));
#247 = ORIENTED_EDGE('',*,*,#248,.T.);
#248 = EDGE_CURVE('',#241,#249,#251,.T.);
#249 = VERTEX_POINT('',#250);
#250 = CARTESIAN_POINT('',(18.8,24.,3.4));
#251 = LINE('',#252,#253);
#252 = CARTESIAN_POINT('',(18.8,24.,1.9));
#253 = VECTOR('',#254,1.);
#254 = DIRECTION('',(0.,0.,1.));
#255 = ORIENTED_EDGE('',*,*,#256,.F.);
#256 = EDGE_CURVE('',#257,#249,#259,.T.);
#257 = VERTEX_POINT('',#258);
#258 = CARTESIAN_POINT('',(18.75,24.,3.4));
#259 = LINE('',#260,#261);
#260 = CARTESIAN_POINT('',(18.1,24.,3.4));
#261 = VECTOR('',#262,1.);
#262 = DIRECTION('',(1.,0.,0.));
#263 = ORIENTED_EDGE('',*,*,#264,.T.);
#264 = EDGE_CURVE('',#257,#265,#267,.T.);
#265 = VERTEX_POINT('',#266);
#266 = CARTESIAN_POINT('',(18.75,24.,5.25));
#267 = LINE('',#268,#269);
#268 = CARTESIAN_POINT('',(18.75,24.,2.2));
#269 = VECTOR('',#270,1.);
#270 = DIRECTION('',(0.,0.,1.));
#271 = ORIENTED_EDGE('',*,*,#272,.T.);
#272 = EDGE_CURVE('',#265,#273,#275,.T.);
#273 = VERTEX_POINT('',#274);
#274 = CARTESIAN_POINT('',(29.25,24.,5.25));
#275 = LINE('',#276,#277);
#276 = CARTESIAN_POINT('',(18.1,24.,5.25));
#277 = VECTOR('',#278,1.);
#278 = DIRECTION('',(1.,0.,0.));
#279 = ORIENTED_EDGE('',*,*,#280,.F.);
#280 = EDGE_CURVE('',#281,#273,#283,.T.);
#281 = VERTEX_POINT('',#282);
#282 = CARTESIAN_POINT('',(29.25,24.,3.4));
#283 = LINE('',#284,#285);
#284 = CARTESIAN_POINT('',(29.25,24.,2.2));
#285 = VECTOR('',#286,1.);
#286 = DIRECTION('',(0.,0.,1.));
#287 = ORIENTED_EDGE('',*,*,#288,.F.);
#288 = EDGE_CURVE('',#289,#281,#291,.T.);
#289 = VERTEX_POINT('',#290);
#290 = CARTESIAN_POINT('',(29.2,24.,3.4));
#291 = LINE('',#292,#293);
#292 = CARTESIAN_POINT('',(18.1,24.,3.4));
#293 = VECTOR('',#294,1.);
#294 = DIRECTION('',(1.,0.,0.));
#295 = ORIENTED_EDGE('',*,*,#296,.F.);
#296 = EDGE_CURVE('',#297,#289,#299,.T.);
#297 = VERTEX_POINT('',#298);
#298 = CARTESIAN_POINT('',(29.2,24.,1.95));
#299 = LINE('',#300,#301);
#300 = CARTESIAN_POINT('',(29.2,24.,1.9));
#301 = VECTOR('',#302,1.);
#302 = DIRECTION('',(0.,0.,1.));
#303 = ORIENTED_EDGE('',*,*,#304,.F.);
#304 = EDGE_CURVE('',#209,#297,#305,.T.);
#305 = LINE('',#306,#307);
#306 = CARTESIAN_POINT('',(32.,24.,1.95));
#307 = VECTOR('',#308,1.);
#308 = DIRECTION('',(-1.,0.,0.));
#309 = ORIENTED_EDGE('',*,*,#216,.F.);
#310 = PLANE('',#311);
#311 = AXIS2_PLACEMENT_3D('',#312,#313,#314);
#312 = CARTESIAN_POINT('',(24.,24.,2.200175644028));
#313 = DIRECTION('',(0.,1.,0.));
#314 = DIRECTION('',(0.,0.,1.));
#315 = ADVANCED_FACE('',(#316),#334,.F.);
#316 = FACE_BOUND('',#317,.F.);
#317 = EDGE_LOOP('',(#318,#319,#327,#333));
#318 = ORIENTED_EDGE('',*,*,#232,.T.);
#319 = ORIENTED_EDGE('',*,*,#320,.T.);
#320 = EDGE_CURVE('',#233,#321,#323,.T.);
#321 = VERTEX_POINT('',#322);
#322 = CARTESIAN_POINT('',(15.,23.,1.95));
#323 = LINE('',#324,#325);
#324 = CARTESIAN_POINT('',(16.,24.,1.95));
#325 = VECTOR('',#326,1.);
#326 = DIRECTION('',(-0.707106781187,-0.707106781187,0.));
#327 = ORIENTED_EDGE('',*,*,#328,.F.);
#328 = EDGE_CURVE('',#65,#321,#329,.T.);
#329 = LINE('',#330,#331);
#330 = CARTESIAN_POINT('',(15.,23.,0.));
#331 = VECTOR('',#332,1.);
#332 = DIRECTION('',(0.,0.,1.));
#333 = ORIENTED_EDGE('',*,*,#64,.F.);
#334 = PLANE('',#335);
#335 = AXIS2_PLACEMENT_3D('',#336,#337,#338);
#336 = CARTESIAN_POINT('',(16.,24.,0.));
#337 = DIRECTION('',(0.707106781187,-0.707106781187,0.));
#338 = DIRECTION('',(-0.707106781187,-0.707106781187,0.));
#339 = ADVANCED_FACE('',(#340),#358,.F.);
#340 = FACE_BOUND('',#341,.F.);
#341 = EDGE_LOOP('',(#342,#343,#351,#357));
#342 = ORIENTED_EDGE('',*,*,#328,.T.);
#343 = ORIENTED_EDGE('',*,*,#344,.T.);
#344 = EDGE_CURVE('',#321,#345,#347,.T.);
#345 = VERTEX_POINT('',#346);
#346 = CARTESIAN_POINT('',(15.,9.6,1.95));
#347 = LINE('',#348,#349);
#348 = CARTESIAN_POINT('',(15.,23.,1.95));
#349 = VECTOR('',#350,1.);
#350 = DIRECTION('',(0.,-1.,0.));
#351 = ORIENTED_EDGE('',*,*,#352,.F.);
#352 = EDGE_CURVE('',#73,#345,#353,.T.);
#353 = LINE('',#354,#355);
#354 = CARTESIAN_POINT('',(15.,9.6,0.));
#355 = VECTOR('',#356,1.);
#356 = DIRECTION('',(0.,0.,1.));
#357 = ORIENTED_EDGE('',*,*,#72,.F.);
#358 = PLANE('',#359);
#359 = AXIS2_PLACEMENT_3D('',#360,#361,#362);
#360 = CARTESIAN_POINT('',(15.,23.,0.));
#361 = DIRECTION('',(1.,0.,0.));
#362 = DIRECTION('',(0.,-1.,0.));
#363 = ADVANCED_FACE('',(#364),#376,.T.);
#364 = FACE_BOUND('',#365,.F.);
#365 = EDGE_LOOP('',(#366,#367,#374,#375));
#366 = ORIENTED_EDGE('',*,*,#352,.T.);
#367 = ORIENTED_EDGE('',*,*,#368,.T.);
#368 = EDGE_CURVE('',#345,#137,#369,.T.);
#369 = CIRCLE('',#370,1.);
#370 = AXIS2_PLACEMENT_3D('',#371,#372,#373);
#371 = CARTESIAN_POINT('',(16.,9.6,1.95));
#372 = DIRECTION('',(0.,0.,1.));
#373 = DIRECTION('',(-1.,0.,0.));
#374 = ORIENTED_EDGE('',*,*,#144,.F.);
#375 = ORIENTED_EDGE('',*,*,#80,.F.);
#376 = CYLINDRICAL_SURFACE('',#377,1.);
#377 = AXIS2_PLACEMENT_3D('',#378,#379,#380);
#378 = CARTESIAN_POINT('',(16.,9.6,0.));
#379 = DIRECTION('',(-0.,-0.,-1.));
#380 = DIRECTION('',(-1.,0.,0.));
#381 = ADVANCED_FACE('',(#382),#412,.T.);
#382 = FACE_BOUND('',#383,.T.);
#383 = EDGE_LOOP('',(#384,#393,#394,#395,#396,#397,#398,#406));
#384 = ORIENTED_EDGE('',*,*,#385,.T.);
#385 = EDGE_CURVE('',#386,#105,#388,.T.);
#386 = VERTEX_POINT('',#387);
#387 = CARTESIAN_POINT('',(29.9,9.3,1.95));
#388 = CIRCLE('',#389,0.7);
#389 = AXIS2_PLACEMENT_3D('',#390,#391,#392);
#390 = CARTESIAN_POINT('',(29.2,9.3,1.95));
#391 = DIRECTION('',(-0.,-0.,-1.));
#392 = DIRECTION('',(0.,-1.,0.));
#393 = ORIENTED_EDGE('',*,*,#104,.T.);
#394 = ORIENTED_EDGE('',*,*,#159,.T.);
#395 = ORIENTED_EDGE('',*,*,#184,.T.);
#396 = ORIENTED_EDGE('',*,*,#208,.T.);
#397 = ORIENTED_EDGE('',*,*,#304,.T.);
#398 = ORIENTED_EDGE('',*,*,#399,.T.);
#399 = EDGE_CURVE('',#297,#400,#402,.T.);
#400 = VERTEX_POINT('',#401);
#401 = CARTESIAN_POINT('',(29.9,23.3,1.95));
#402 = LINE('',#403,#404);
#403 = CARTESIAN_POINT('',(30.184176855269,23.015823144731,1.95));
#404 = VECTOR('',#405,1.);
#405 = DIRECTION('',(0.707106781187,-0.707106781187,0.));
#406 = ORIENTED_EDGE('',*,*,#407,.T.);
#407 = EDGE_CURVE('',#400,#386,#408,.T.);
#408 = LINE('',#409,#410);
#409 = CARTESIAN_POINT('',(29.9,12.781646289463,1.95));
#410 = VECTOR('',#411,1.);
#411 = DIRECTION('',(0.,-1.,0.));
#412 = PLANE('',#413);
#413 = AXIS2_PLACEMENT_3D('',#414,#415,#416);
#414 = CARTESIAN_POINT('',(24.,16.263292578926,1.95));
#415 = DIRECTION('',(0.,0.,1.));
#416 = DIRECTION('',(1.,0.,0.));
#417 = ADVANCED_FACE('',(#418),#463,.T.);
#418 = FACE_BOUND('',#419,.F.);
#419 = EDGE_LOOP('',(#420,#428,#429,#430,#439,#447,#456));
#420 = ORIENTED_EDGE('',*,*,#421,.F.);
#421 = EDGE_CURVE('',#386,#422,#424,.T.);
#422 = VERTEX_POINT('',#423);
#423 = CARTESIAN_POINT('',(29.9,9.3,3.4));
#424 = LINE('',#425,#426);
#425 = CARTESIAN_POINT('',(29.9,9.3,1.9));
#426 = VECTOR('',#427,1.);
#427 = DIRECTION('',(0.,0.,1.));
#428 = ORIENTED_EDGE('',*,*,#385,.T.);
#429 = ORIENTED_EDGE('',*,*,#112,.T.);
#430 = ORIENTED_EDGE('',*,*,#431,.F.);
#431 = EDGE_CURVE('',#432,#113,#434,.T.);
#432 = VERTEX_POINT('',#433);
#433 = CARTESIAN_POINT('',(29.560555127546,8.7,2.3));
#434 = CIRCLE('',#435,0.7);
#435 = AXIS2_PLACEMENT_3D('',#436,#437,#438);
#436 = CARTESIAN_POINT('',(29.2,9.3,2.3));
#437 = DIRECTION('',(-0.,-0.,-1.));
#438 = DIRECTION('',(0.,-1.,0.));
#439 = ORIENTED_EDGE('',*,*,#440,.F.);
#440 = EDGE_CURVE('',#441,#432,#443,.T.);
#441 = VERTEX_POINT('',#442);
#442 = CARTESIAN_POINT('',(29.560555127546,8.7,3.4));
#443 = LINE('',#444,#445);
#444 = CARTESIAN_POINT('',(29.560555127546,8.7,1.9));
#445 = VECTOR('',#446,1.);
#446 = DIRECTION('',(-0.,-0.,-1.));
#447 = ORIENTED_EDGE('',*,*,#448,.F.);
#448 = EDGE_CURVE('',#449,#441,#451,.T.);
#449 = VERTEX_POINT('',#450);
#450 = CARTESIAN_POINT('',(29.689897948557,8.8,3.4));
#451 = CIRCLE('',#452,0.7);
#452 = AXIS2_PLACEMENT_3D('',#453,#454,#455);
#453 = CARTESIAN_POINT('',(29.2,9.3,3.4));
#454 = DIRECTION('',(-0.,-0.,-1.));
#455 = DIRECTION('',(0.,-1.,0.));
#456 = ORIENTED_EDGE('',*,*,#457,.F.);
#457 = EDGE_CURVE('',#422,#449,#458,.T.);
#458 = CIRCLE('',#459,0.7);
#459 = AXIS2_PLACEMENT_3D('',#460,#461,#462);
#460 = CARTESIAN_POINT('',(29.2,9.3,3.4));
#461 = DIRECTION('',(-0.,-0.,-1.));
#462 = DIRECTION('',(0.,-1.,0.));
#463 = CYLINDRICAL_SURFACE('',#464,0.7);
#464 = AXIS2_PLACEMENT_3D('',#465,#466,#467);
#465 = CARTESIAN_POINT('',(29.2,9.3,1.9));
#466 = DIRECTION('',(-0.,-0.,-1.));
#467 = DIRECTION('',(0.,-1.,0.));
#468 = ADVANCED_FACE('',(#469),#520,.F.);
#469 = FACE_BOUND('',#470,.F.);
#470 = EDGE_LOOP('',(#471,#481,#489,#497,#503,#504,#505,#514));
#471 = ORIENTED_EDGE('',*,*,#472,.F.);
#472 = EDGE_CURVE('',#473,#475,#477,.T.);
#473 = VERTEX_POINT('',#474);
#474 = CARTESIAN_POINT('',(18.1,5.65,2.3));
#475 = VERTEX_POINT('',#476);
#476 = CARTESIAN_POINT('',(18.1,8.7,2.3));
#477 = LINE('',#478,#479);
#478 = CARTESIAN_POINT('',(18.1,5.65,2.3));
#479 = VECTOR('',#480,1.);
#480 = DIRECTION('',(0.,1.,0.));
#481 = ORIENTED_EDGE('',*,*,#482,.T.);
#482 = EDGE_CURVE('',#473,#483,#485,.T.);
#483 = VERTEX_POINT('',#484);
#484 = CARTESIAN_POINT('',(29.9,5.65,2.3));
#485 = LINE('',#486,#487);
#486 = CARTESIAN_POINT('',(18.1,5.65,2.3));
#487 = VECTOR('',#488,1.);
#488 = DIRECTION('',(1.,0.,0.));
#489 = ORIENTED_EDGE('',*,*,#490,.T.);
#490 = EDGE_CURVE('',#483,#491,#493,.T.);
#491 = VERTEX_POINT('',#492);
#492 = CARTESIAN_POINT('',(29.9,8.7,2.3));
#493 = LINE('',#494,#495);
#494 = CARTESIAN_POINT('',(29.9,5.65,2.3));
#495 = VECTOR('',#496,1.);
#496 = DIRECTION('',(0.,1.,0.));
#497 = ORIENTED_EDGE('',*,*,#498,.F.);
#498 = EDGE_CURVE('',#432,#491,#499,.T.);
#499 = LINE('',#500,#501);
#500 = CARTESIAN_POINT('',(18.1,8.7,2.3));
#501 = VECTOR('',#502,1.);
#502 = DIRECTION('',(1.,0.,0.));
#503 = ORIENTED_EDGE('',*,*,#431,.T.);
#504 = ORIENTED_EDGE('',*,*,#120,.F.);
#505 = ORIENTED_EDGE('',*,*,#506,.T.);
#506 = EDGE_CURVE('',#121,#507,#509,.T.);
#507 = VERTEX_POINT('',#508);
#508 = CARTESIAN_POINT('',(18.439444872454,8.7,2.3));
#509 = CIRCLE('',#510,0.7);
#510 = AXIS2_PLACEMENT_3D('',#511,#512,#513);
#511 = CARTESIAN_POINT('',(18.8,9.3,2.3));
#512 = DIRECTION('',(-0.,0.,-1.));
#513 = DIRECTION('',(-1.,-2.537652627715E-15,0.));
#514 = ORIENTED_EDGE('',*,*,#515,.F.);
#515 = EDGE_CURVE('',#475,#507,#516,.T.);
#516 = LINE('',#517,#518);
#517 = CARTESIAN_POINT('',(18.1,8.7,2.3));
#518 = VECTOR('',#519,1.);
#519 = DIRECTION('',(1.,0.,0.));
#520 = PLANE('',#521);
#521 = AXIS2_PLACEMENT_3D('',#522,#523,#524);
#522 = CARTESIAN_POINT('',(18.1,5.65,2.3));
#523 = DIRECTION('',(0.,0.,1.));
#524 = DIRECTION('',(1.,0.,0.));
#525 = ADVANCED_FACE('',(#526),#571,.T.);
#526 = FACE_BOUND('',#527,.F.);
#527 = EDGE_LOOP('',(#528,#529,#538,#546,#555,#564,#570));
#528 = ORIENTED_EDGE('',*,*,#128,.F.);
#529 = ORIENTED_EDGE('',*,*,#530,.T.);
#530 = EDGE_CURVE('',#129,#531,#533,.T.);
#531 = VERTEX_POINT('',#532);
#532 = CARTESIAN_POINT('',(18.1,9.3,1.95));
#533 = CIRCLE('',#534,0.7);
#534 = AXIS2_PLACEMENT_3D('',#535,#536,#537);
#535 = CARTESIAN_POINT('',(18.8,9.3,1.95));
#536 = DIRECTION('',(-0.,0.,-1.));
#537 = DIRECTION('',(-1.,-2.537652627715E-15,0.));
#538 = ORIENTED_EDGE('',*,*,#539,.T.);
#539 = EDGE_CURVE('',#531,#540,#542,.T.);
#540 = VERTEX_POINT('',#541);
#541 = CARTESIAN_POINT('',(18.1,9.3,3.4));
#542 = LINE('',#543,#544);
#543 = CARTESIAN_POINT('',(18.1,9.3,1.9));
#544 = VECTOR('',#545,1.);
#545 = DIRECTION('',(0.,0.,1.));
#546 = ORIENTED_EDGE('',*,*,#547,.F.);
#547 = EDGE_CURVE('',#548,#540,#550,.T.);
#548 = VERTEX_POINT('',#549);
#549 = CARTESIAN_POINT('',(18.310102051443,8.8,3.4));
#550 = CIRCLE('',#551,0.7);
#551 = AXIS2_PLACEMENT_3D('',#552,#553,#554);
#552 = CARTESIAN_POINT('',(18.8,9.3,3.4));
#553 = DIRECTION('',(-0.,0.,-1.));
#554 = DIRECTION('',(-1.,-2.537652627715E-15,0.));
#555 = ORIENTED_EDGE('',*,*,#556,.F.);
#556 = EDGE_CURVE('',#557,#548,#559,.T.);
#557 = VERTEX_POINT('',#558);
#558 = CARTESIAN_POINT('',(18.439444872454,8.7,3.4));
#559 = CIRCLE('',#560,0.7);
#560 = AXIS2_PLACEMENT_3D('',#561,#562,#563);
#561 = CARTESIAN_POINT('',(18.8,9.3,3.4));
#562 = DIRECTION('',(-0.,0.,-1.));
#563 = DIRECTION('',(-1.,-2.537652627715E-15,0.));
#564 = ORIENTED_EDGE('',*,*,#565,.T.);
#565 = EDGE_CURVE('',#557,#507,#566,.T.);
#566 = LINE('',#567,#568);
#567 = CARTESIAN_POINT('',(18.439444872454,8.7,1.9));
#568 = VECTOR('',#569,1.);
#569 = DIRECTION('',(-0.,-0.,-1.));
#570 = ORIENTED_EDGE('',*,*,#506,.F.);
#571 = CYLINDRICAL_SURFACE('',#572,0.7);
#572 = AXIS2_PLACEMENT_3D('',#573,#574,#575);
#573 = CARTESIAN_POINT('',(18.8,9.3,1.9));
#574 = DIRECTION('',(-0.,-0.,-1.));
#575 = DIRECTION('',(-1.,-2.537652627715E-15,0.));
#576 = ADVANCED_FACE('',(#577),#599,.T.);
#577 = FACE_BOUND('',#578,.T.);
#578 = EDGE_LOOP('',(#579,#580,#581,#582,#590,#596,#597,#598));
#579 = ORIENTED_EDGE('',*,*,#368,.T.);
#580 = ORIENTED_EDGE('',*,*,#136,.T.);
#581 = ORIENTED_EDGE('',*,*,#530,.T.);
#582 = ORIENTED_EDGE('',*,*,#583,.T.);
#583 = EDGE_CURVE('',#531,#584,#586,.T.);
#584 = VERTEX_POINT('',#585);
#585 = CARTESIAN_POINT('',(18.1,23.3,1.95));
#586 = LINE('',#587,#588);
#587 = CARTESIAN_POINT('',(18.1,19.781646289463,1.95));
#588 = VECTOR('',#589,1.);
#589 = DIRECTION('',(0.,1.,0.));
#590 = ORIENTED_EDGE('',*,*,#591,.T.);
#591 = EDGE_CURVE('',#584,#241,#592,.T.);
#592 = LINE('',#593,#594);
#593 = CARTESIAN_POINT('',(18.165823144731,23.365823144731,1.95));
#594 = VECTOR('',#595,1.);
#595 = DIRECTION('',(0.707106781187,0.707106781187,0.));
#596 = ORIENTED_EDGE('',*,*,#240,.T.);
#597 = ORIENTED_EDGE('',*,*,#320,.T.);
#598 = ORIENTED_EDGE('',*,*,#344,.T.);
#599 = PLANE('',#600);
#600 = AXIS2_PLACEMENT_3D('',#601,#602,#603);
#601 = CARTESIAN_POINT('',(24.,16.263292578926,1.95));
#602 = DIRECTION('',(0.,0.,1.));
#603 = DIRECTION('',(1.,0.,0.));
#604 = ADVANCED_FACE('',(#605),#623,.F.);
#605 = FACE_BOUND('',#606,.F.);
#606 = EDGE_LOOP('',(#607,#615,#616,#617));
#607 = ORIENTED_EDGE('',*,*,#608,.F.);
#608 = EDGE_CURVE('',#584,#609,#611,.T.);
#609 = VERTEX_POINT('',#610);
#610 = CARTESIAN_POINT('',(18.1,23.3,3.4));
#611 = LINE('',#612,#613);
#612 = CARTESIAN_POINT('',(18.1,23.3,1.9));
#613 = VECTOR('',#614,1.);
#614 = DIRECTION('',(0.,0.,1.));
#615 = ORIENTED_EDGE('',*,*,#591,.T.);
#616 = ORIENTED_EDGE('',*,*,#248,.T.);
#617 = ORIENTED_EDGE('',*,*,#618,.T.);
#618 = EDGE_CURVE('',#249,#609,#619,.T.);
#619 = LINE('',#620,#621);
#620 = CARTESIAN_POINT('',(14.8,20.,3.4));
#621 = VECTOR('',#622,1.);
#622 = DIRECTION('',(-0.707106781187,-0.707106781187,0.));
#623 = PLANE('',#624);
#624 = AXIS2_PLACEMENT_3D('',#625,#626,#627);
#625 = CARTESIAN_POINT('',(18.8,24.,1.9));
#626 = DIRECTION('',(0.707106781187,-0.707106781187,0.));
#627 = DIRECTION('',(-0.707106781187,-0.707106781187,0.));
#628 = ADVANCED_FACE('',(#629),#647,.F.);
#629 = FACE_BOUND('',#630,.F.);
#630 = EDGE_LOOP('',(#631,#639,#640,#641));
#631 = ORIENTED_EDGE('',*,*,#632,.F.);
#632 = EDGE_CURVE('',#609,#633,#635,.T.);
#633 = VERTEX_POINT('',#634);
#634 = CARTESIAN_POINT('',(18.1,23.35,3.4));
#635 = LINE('',#636,#637);
#636 = CARTESIAN_POINT('',(18.1,8.7,3.4));
#637 = VECTOR('',#638,1.);
#638 = DIRECTION('',(0.,1.,0.));
#639 = ORIENTED_EDGE('',*,*,#618,.F.);
#640 = ORIENTED_EDGE('',*,*,#256,.F.);
#641 = ORIENTED_EDGE('',*,*,#642,.F.);
#642 = EDGE_CURVE('',#633,#257,#643,.T.);
#643 = LINE('',#644,#645);
#644 = CARTESIAN_POINT('',(14.7625,20.0125,3.4));
#645 = VECTOR('',#646,1.);
#646 = DIRECTION('',(0.707106781187,0.707106781187,0.));
#647 = PLANE('',#648);
#648 = AXIS2_PLACEMENT_3D('',#649,#650,#651);
#649 = CARTESIAN_POINT('',(18.1,8.7,3.4));
#650 = DIRECTION('',(0.,0.,1.));
#651 = DIRECTION('',(1.,0.,0.));
#652 = ADVANCED_FACE('',(#653),#671,.F.);
#653 = FACE_BOUND('',#654,.F.);
#654 = EDGE_LOOP('',(#655,#656,#657,#665));
#655 = ORIENTED_EDGE('',*,*,#642,.T.);
#656 = ORIENTED_EDGE('',*,*,#264,.T.);
#657 = ORIENTED_EDGE('',*,*,#658,.F.);
#658 = EDGE_CURVE('',#659,#265,#661,.T.);
#659 = VERTEX_POINT('',#660);
#660 = CARTESIAN_POINT('',(18.1,23.35,5.25));
#661 = LINE('',#662,#663);
#662 = CARTESIAN_POINT('',(14.7625,20.0125,5.25));
#663 = VECTOR('',#664,1.);
#664 = DIRECTION('',(0.707106781187,0.707106781187,0.));
#665 = ORIENTED_EDGE('',*,*,#666,.F.);
#666 = EDGE_CURVE('',#633,#659,#667,.T.);
#667 = LINE('',#668,#669);
#668 = CARTESIAN_POINT('',(18.1,23.35,2.2));
#669 = VECTOR('',#670,1.);
#670 = DIRECTION('',(0.,0.,1.));
#671 = PLANE('',#672);
#672 = AXIS2_PLACEMENT_3D('',#673,#674,#675);
#673 = CARTESIAN_POINT('',(18.75,24.,2.2));
#674 = DIRECTION('',(0.707106781187,-0.707106781187,0.));
#675 = DIRECTION('',(-0.707106781187,-0.707106781187,0.));
#676 = ADVANCED_FACE('',(#677),#711,.T.);
#677 = FACE_BOUND('',#678,.T.);
#678 = EDGE_LOOP('',(#679,#687,#695,#703,#709,#710));
#679 = ORIENTED_EDGE('',*,*,#680,.F.);
#680 = EDGE_CURVE('',#681,#659,#683,.T.);
#681 = VERTEX_POINT('',#682);
#682 = CARTESIAN_POINT('',(18.1,8.8,5.25));
#683 = LINE('',#684,#685);
#684 = CARTESIAN_POINT('',(18.1,8.7,5.25));
#685 = VECTOR('',#686,1.);
#686 = DIRECTION('',(0.,1.,0.));
#687 = ORIENTED_EDGE('',*,*,#688,.T.);
#688 = EDGE_CURVE('',#681,#689,#691,.T.);
#689 = VERTEX_POINT('',#690);
#690 = CARTESIAN_POINT('',(29.9,8.8,5.25));
#691 = LINE('',#692,#693);
#692 = CARTESIAN_POINT('',(18.1,8.8,5.25));
#693 = VECTOR('',#694,1.);
#694 = DIRECTION('',(1.,0.,0.));
#695 = ORIENTED_EDGE('',*,*,#696,.T.);
#696 = EDGE_CURVE('',#689,#697,#699,.T.);
#697 = VERTEX_POINT('',#698);
#698 = CARTESIAN_POINT('',(29.9,23.35,5.25));
#699 = LINE('',#700,#701);
#700 = CARTESIAN_POINT('',(29.9,8.7,5.25));
#701 = VECTOR('',#702,1.);
#702 = DIRECTION('',(0.,1.,0.));
#703 = ORIENTED_EDGE('',*,*,#704,.F.);
#704 = EDGE_CURVE('',#273,#697,#705,.T.);
#705 = LINE('',#706,#707);
#706 = CARTESIAN_POINT('',(30.6125,22.6375,5.25));
#707 = VECTOR('',#708,1.);
#708 = DIRECTION('',(0.707106781187,-0.707106781187,0.));
#709 = ORIENTED_EDGE('',*,*,#272,.F.);
#710 = ORIENTED_EDGE('',*,*,#658,.F.);
#711 = PLANE('',#712);
#712 = AXIS2_PLACEMENT_3D('',#713,#714,#715);
#713 = CARTESIAN_POINT('',(18.1,8.7,5.25));
#714 = DIRECTION('',(0.,0.,1.));
#715 = DIRECTION('',(1.,0.,0.));
#716 = ADVANCED_FACE('',(#717),#735,.F.);
#717 = FACE_BOUND('',#718,.F.);
#718 = EDGE_LOOP('',(#719,#727,#733,#734));
#719 = ORIENTED_EDGE('',*,*,#720,.T.);
#720 = EDGE_CURVE('',#281,#721,#723,.T.);
#721 = VERTEX_POINT('',#722);
#722 = CARTESIAN_POINT('',(29.9,23.35,3.4));
#723 = LINE('',#724,#725);
#724 = CARTESIAN_POINT('',(30.6125,22.6375,3.4));
#725 = VECTOR('',#726,1.);
#726 = DIRECTION('',(0.707106781187,-0.707106781187,0.));
#727 = ORIENTED_EDGE('',*,*,#728,.T.);
#728 = EDGE_CURVE('',#721,#697,#729,.T.);
#729 = LINE('',#730,#731);
#730 = CARTESIAN_POINT('',(29.9,23.35,2.2));
#731 = VECTOR('',#732,1.);
#732 = DIRECTION('',(0.,0.,1.));
#733 = ORIENTED_EDGE('',*,*,#704,.F.);
#734 = ORIENTED_EDGE('',*,*,#280,.F.);
#735 = PLANE('',#736);
#736 = AXIS2_PLACEMENT_3D('',#737,#738,#739);
#737 = CARTESIAN_POINT('',(29.9,23.35,2.2));
#738 = DIRECTION('',(-0.707106781187,-0.707106781187,0.));
#739 = DIRECTION('',(-0.707106781187,0.707106781187,0.));
#740 = ADVANCED_FACE('',(#741),#759,.F.);
#741 = FACE_BOUND('',#742,.F.);
#742 = EDGE_LOOP('',(#743,#744,#752,#758));
#743 = ORIENTED_EDGE('',*,*,#288,.F.);
#744 = ORIENTED_EDGE('',*,*,#745,.F.);
#745 = EDGE_CURVE('',#746,#289,#748,.T.);
#746 = VERTEX_POINT('',#747);
#747 = CARTESIAN_POINT('',(29.9,23.3,3.4));
#748 = LINE('',#749,#750);
#749 = CARTESIAN_POINT('',(30.6,22.6,3.4));
#750 = VECTOR('',#751,1.);
#751 = DIRECTION('',(-0.707106781187,0.707106781187,0.));
#752 = ORIENTED_EDGE('',*,*,#753,.T.);
#753 = EDGE_CURVE('',#746,#721,#754,.T.);
#754 = LINE('',#755,#756);
#755 = CARTESIAN_POINT('',(29.9,8.7,3.4));
#756 = VECTOR('',#757,1.);
#757 = DIRECTION('',(0.,1.,0.));
#758 = ORIENTED_EDGE('',*,*,#720,.F.);
#759 = PLANE('',#760);
#760 = AXIS2_PLACEMENT_3D('',#761,#762,#763);
#761 = CARTESIAN_POINT('',(18.1,8.7,3.4));
#762 = DIRECTION('',(0.,0.,1.));
#763 = DIRECTION('',(1.,0.,0.));
#764 = ADVANCED_FACE('',(#765),#776,.F.);
#765 = FACE_BOUND('',#766,.F.);
#766 = EDGE_LOOP('',(#767,#768,#769,#775));
#767 = ORIENTED_EDGE('',*,*,#296,.F.);
#768 = ORIENTED_EDGE('',*,*,#399,.T.);
#769 = ORIENTED_EDGE('',*,*,#770,.T.);
#770 = EDGE_CURVE('',#400,#746,#771,.T.);
#771 = LINE('',#772,#773);
#772 = CARTESIAN_POINT('',(29.9,23.3,1.9));
#773 = VECTOR('',#774,1.);
#774 = DIRECTION('',(0.,0.,1.));
#775 = ORIENTED_EDGE('',*,*,#745,.T.);
#776 = PLANE('',#777);
#777 = AXIS2_PLACEMENT_3D('',#778,#779,#780);
#778 = CARTESIAN_POINT('',(29.9,23.3,1.9));
#779 = DIRECTION('',(-0.707106781187,-0.707106781187,0.));
#780 = DIRECTION('',(-0.707106781187,0.707106781187,0.));
#781 = ADVANCED_FACE('',(#782,#870),#906,.T.);
#782 = FACE_BOUND('',#783,.T.);
#783 = EDGE_LOOP('',(#784,#785,#786,#787,#788,#796,#805,#813,#821,#830,
    #838,#846,#853,#854,#862,#868,#869));
#784 = ORIENTED_EDGE('',*,*,#770,.T.);
#785 = ORIENTED_EDGE('',*,*,#753,.T.);
#786 = ORIENTED_EDGE('',*,*,#728,.T.);
#787 = ORIENTED_EDGE('',*,*,#696,.F.);
#788 = ORIENTED_EDGE('',*,*,#789,.T.);
#789 = EDGE_CURVE('',#689,#790,#792,.T.);
#790 = VERTEX_POINT('',#791);
#791 = CARTESIAN_POINT('',(29.9,8.330932195356,5.662456173049));
#792 = LINE('',#793,#794);
#793 = CARTESIAN_POINT('',(29.9,8.8,5.25));
#794 = VECTOR('',#795,1.);
#795 = DIRECTION('',(0.,-0.750970313931,0.660335965698));
#796 = ORIENTED_EDGE('',*,*,#797,.T.);
#797 = EDGE_CURVE('',#790,#798,#800,.T.);
#798 = VERTEX_POINT('',#799);
#799 = CARTESIAN_POINT('',(29.9,5.914499489473,7.787250448912));
#800 = CIRCLE('',#801,2.75);
#801 = AXIS2_PLACEMENT_3D('',#802,#803,#804);
#802 = CARTESIAN_POINT('',(29.9,5.65,5.05));
#803 = DIRECTION('',(1.,0.,-0.));
#804 = DIRECTION('',(0.,0.,1.));
#805 = ORIENTED_EDGE('',*,*,#806,.T.);
#806 = EDGE_CURVE('',#798,#807,#809,.T.);
#807 = VERTEX_POINT('',#808);
#808 = CARTESIAN_POINT('',(29.9,5.9,7.8));
#809 = LINE('',#810,#811);
#810 = CARTESIAN_POINT('',(29.9,8.8,5.25));
#811 = VECTOR('',#812,1.);
#812 = DIRECTION('',(0.,-0.750970313931,0.660335965698));
#813 = ORIENTED_EDGE('',*,*,#814,.T.);
#814 = EDGE_CURVE('',#807,#815,#817,.T.);
#815 = VERTEX_POINT('',#816);
#816 = CARTESIAN_POINT('',(29.9,5.9,7.788612787526));
#817 = LINE('',#818,#819);
#818 = CARTESIAN_POINT('',(29.9,5.9,7.8));
#819 = VECTOR('',#820,1.);
#820 = DIRECTION('',(0.,0.,-1.));
#821 = ORIENTED_EDGE('',*,*,#822,.T.);
#822 = EDGE_CURVE('',#815,#823,#825,.T.);
#823 = VERTEX_POINT('',#824);
#824 = CARTESIAN_POINT('',(29.9,5.65,7.8));
#825 = CIRCLE('',#826,2.75);
#826 = AXIS2_PLACEMENT_3D('',#827,#828,#829);
#827 = CARTESIAN_POINT('',(29.9,5.65,5.05));
#828 = DIRECTION('',(1.,0.,-0.));
#829 = DIRECTION('',(0.,0.,1.));
#830 = ORIENTED_EDGE('',*,*,#831,.F.);
#831 = EDGE_CURVE('',#832,#823,#834,.T.);
#832 = VERTEX_POINT('',#833);
#833 = CARTESIAN_POINT('',(29.9,3.55,7.8));
#834 = LINE('',#835,#836);
#835 = CARTESIAN_POINT('',(29.9,2.9,7.8));
#836 = VECTOR('',#837,1.);
#837 = DIRECTION('',(0.,1.,0.));
#838 = ORIENTED_EDGE('',*,*,#839,.F.);
#839 = EDGE_CURVE('',#840,#832,#842,.T.);
#840 = VERTEX_POINT('',#841);
#841 = CARTESIAN_POINT('',(29.9,3.55,3.274471909544));
#842 = LINE('',#843,#844);
#843 = CARTESIAN_POINT('',(29.9,3.55,2.2));
#844 = VECTOR('',#845,1.);
#845 = DIRECTION('',(0.,0.,1.));
#846 = ORIENTED_EDGE('',*,*,#847,.T.);
#847 = EDGE_CURVE('',#840,#483,#848,.T.);
#848 = CIRCLE('',#849,2.75);
#849 = AXIS2_PLACEMENT_3D('',#850,#851,#852);
#850 = CARTESIAN_POINT('',(29.9,5.65,5.05));
#851 = DIRECTION('',(1.,0.,-0.));
#852 = DIRECTION('',(0.,0.,1.));
#853 = ORIENTED_EDGE('',*,*,#490,.T.);
#854 = ORIENTED_EDGE('',*,*,#855,.T.);
#855 = EDGE_CURVE('',#491,#856,#858,.T.);
#856 = VERTEX_POINT('',#857);
#857 = CARTESIAN_POINT('',(29.9,8.7,3.4));
#858 = LINE('',#859,#860);
#859 = CARTESIAN_POINT('',(29.9,8.7,2.3));
#860 = VECTOR('',#861,1.);
#861 = DIRECTION('',(0.,0.,1.));
#862 = ORIENTED_EDGE('',*,*,#863,.T.);
#863 = EDGE_CURVE('',#856,#422,#864,.T.);
#864 = LINE('',#865,#866);
#865 = CARTESIAN_POINT('',(29.9,8.7,3.4));
#866 = VECTOR('',#867,1.);
#867 = DIRECTION('',(0.,1.,0.));
#868 = ORIENTED_EDGE('',*,*,#421,.F.);
#869 = ORIENTED_EDGE('',*,*,#407,.F.);
#870 = FACE_BOUND('',#871,.T.);
#871 = EDGE_LOOP('',(#872,#882,#890,#899));
#872 = ORIENTED_EDGE('',*,*,#873,.F.);
#873 = EDGE_CURVE('',#874,#876,#878,.T.);
#874 = VERTEX_POINT('',#875);
#875 = CARTESIAN_POINT('',(29.9,4.235786437627,5.05));
#876 = VERTEX_POINT('',#877);
#877 = CARTESIAN_POINT('',(29.9,4.422443359984,4.863343077643));
#878 = LINE('',#879,#880);
#879 = CARTESIAN_POINT('',(29.9,6.981488752832,2.304297684795));
#880 = VECTOR('',#881,1.);
#881 = DIRECTION('',(-3.355286243707E-16,0.707106781187,-0.707106781187)
  );
#882 = ORIENTED_EDGE('',*,*,#883,.F.);
#883 = EDGE_CURVE('',#884,#874,#886,.T.);
#884 = VERTEX_POINT('',#885);
#885 = CARTESIAN_POINT('',(29.9,4.422443359984,5.236656922357));
#886 = LINE('',#887,#888);
#887 = CARTESIAN_POINT('',(29.9,6.133947398688,6.948160961061));
#888 = VECTOR('',#889,1.);
#889 = DIRECTION('',(-3.355286243707E-16,-0.707106781187,-0.707106781187
    ));
#890 = ORIENTED_EDGE('',*,*,#891,.T.);
#891 = EDGE_CURVE('',#884,#892,#894,.T.);
#892 = VERTEX_POINT('',#893);
#893 = CARTESIAN_POINT('',(29.9,5.65,3.808333333333));
#894 = CIRCLE('',#895,1.241666666667);
#895 = AXIS2_PLACEMENT_3D('',#896,#897,#898);
#896 = CARTESIAN_POINT('',(29.9,5.65,5.05));
#897 = DIRECTION('',(-1.,0.,0.));
#898 = DIRECTION('',(0.,0.,-1.));
#899 = ORIENTED_EDGE('',*,*,#900,.T.);
#900 = EDGE_CURVE('',#892,#876,#901,.T.);
#901 = CIRCLE('',#902,1.241666666667);
#902 = AXIS2_PLACEMENT_3D('',#903,#904,#905);
#903 = CARTESIAN_POINT('',(29.9,5.65,5.05));
#904 = DIRECTION('',(-1.,0.,0.));
#905 = DIRECTION('',(0.,0.,-1.));
#906 = PLANE('',#907);
#907 = AXIS2_PLACEMENT_3D('',#908,#909,#910);
#908 = CARTESIAN_POINT('',(29.9,12.816406208972,4.062024072899));
#909 = DIRECTION('',(1.,0.,-4.745091311495E-16));
#910 = DIRECTION('',(4.745091311495E-16,0.,1.));
#911 = ADVANCED_FACE('',(#912),#923,.F.);
#912 = FACE_BOUND('',#913,.T.);
#913 = EDGE_LOOP('',(#914,#915,#916,#922));
#914 = ORIENTED_EDGE('',*,*,#457,.F.);
#915 = ORIENTED_EDGE('',*,*,#863,.F.);
#916 = ORIENTED_EDGE('',*,*,#917,.F.);
#917 = EDGE_CURVE('',#441,#856,#918,.T.);
#918 = LINE('',#919,#920);
#919 = CARTESIAN_POINT('',(18.1,8.7,3.4));
#920 = VECTOR('',#921,1.);
#921 = DIRECTION('',(1.,0.,0.));
#922 = ORIENTED_EDGE('',*,*,#448,.F.);
#923 = PLANE('',#924);
#924 = AXIS2_PLACEMENT_3D('',#925,#926,#927);
#925 = CARTESIAN_POINT('',(18.1,8.7,3.4));
#926 = DIRECTION('',(0.,0.,1.));
#927 = DIRECTION('',(1.,0.,0.));
#928 = ADVANCED_FACE('',(#929),#935,.T.);
#929 = FACE_BOUND('',#930,.T.);
#930 = EDGE_LOOP('',(#931,#932,#933,#934));
#931 = ORIENTED_EDGE('',*,*,#855,.F.);
#932 = ORIENTED_EDGE('',*,*,#498,.F.);
#933 = ORIENTED_EDGE('',*,*,#440,.F.);
#934 = ORIENTED_EDGE('',*,*,#917,.T.);
#935 = PLANE('',#936);
#936 = AXIS2_PLACEMENT_3D('',#937,#938,#939);
#937 = CARTESIAN_POINT('',(18.1,8.7,2.3));
#938 = DIRECTION('',(0.,1.,0.));
#939 = DIRECTION('',(0.,0.,1.));
#940 = ADVANCED_FACE('',(#941,#1029),#1065,.T.);
#941 = FACE_BOUND('',#942,.T.);
#942 = EDGE_LOOP('',(#943,#944,#952,#958,#959,#968,#976,#984,#993,#1001,
    #1009,#1018,#1024,#1025,#1026,#1027,#1028));
#943 = ORIENTED_EDGE('',*,*,#539,.T.);
#944 = ORIENTED_EDGE('',*,*,#945,.F.);
#945 = EDGE_CURVE('',#946,#540,#948,.T.);
#946 = VERTEX_POINT('',#947);
#947 = CARTESIAN_POINT('',(18.1,8.7,3.4));
#948 = LINE('',#949,#950);
#949 = CARTESIAN_POINT('',(18.1,8.7,3.4));
#950 = VECTOR('',#951,1.);
#951 = DIRECTION('',(0.,1.,0.));
#952 = ORIENTED_EDGE('',*,*,#953,.F.);
#953 = EDGE_CURVE('',#475,#946,#954,.T.);
#954 = LINE('',#955,#956);
#955 = CARTESIAN_POINT('',(18.1,8.7,2.3));
#956 = VECTOR('',#957,1.);
#957 = DIRECTION('',(0.,0.,1.));
#958 = ORIENTED_EDGE('',*,*,#472,.F.);
#959 = ORIENTED_EDGE('',*,*,#960,.F.);
#960 = EDGE_CURVE('',#961,#473,#963,.T.);
#961 = VERTEX_POINT('',#962);
#962 = CARTESIAN_POINT('',(18.1,3.55,3.274471909544));
#963 = CIRCLE('',#964,2.75);
#964 = AXIS2_PLACEMENT_3D('',#965,#966,#967);
#965 = CARTESIAN_POINT('',(18.1,5.65,5.05));
#966 = DIRECTION('',(1.,0.,-0.));
#967 = DIRECTION('',(0.,0.,1.));
#968 = ORIENTED_EDGE('',*,*,#969,.T.);
#969 = EDGE_CURVE('',#961,#970,#972,.T.);
#970 = VERTEX_POINT('',#971);
#971 = CARTESIAN_POINT('',(18.1,3.55,7.8));
#972 = LINE('',#973,#974);
#973 = CARTESIAN_POINT('',(18.1,3.55,2.2));
#974 = VECTOR('',#975,1.);
#975 = DIRECTION('',(0.,0.,1.));
#976 = ORIENTED_EDGE('',*,*,#977,.T.);
#977 = EDGE_CURVE('',#970,#978,#980,.T.);
#978 = VERTEX_POINT('',#979);
#979 = CARTESIAN_POINT('',(18.1,5.65,7.8));
#980 = LINE('',#981,#982);
#981 = CARTESIAN_POINT('',(18.1,2.9,7.8));
#982 = VECTOR('',#983,1.);
#983 = DIRECTION('',(0.,1.,0.));
#984 = ORIENTED_EDGE('',*,*,#985,.F.);
#985 = EDGE_CURVE('',#986,#978,#988,.T.);
#986 = VERTEX_POINT('',#987);
#987 = CARTESIAN_POINT('',(18.1,5.9,7.788612787526));
#988 = CIRCLE('',#989,2.75);
#989 = AXIS2_PLACEMENT_3D('',#990,#991,#992);
#990 = CARTESIAN_POINT('',(18.1,5.65,5.05));
#991 = DIRECTION('',(1.,0.,-0.));
#992 = DIRECTION('',(0.,0.,1.));
#993 = ORIENTED_EDGE('',*,*,#994,.F.);
#994 = EDGE_CURVE('',#995,#986,#997,.T.);
#995 = VERTEX_POINT('',#996);
#996 = CARTESIAN_POINT('',(18.1,5.9,7.8));
#997 = LINE('',#998,#999);
#998 = CARTESIAN_POINT('',(18.1,5.9,7.8));
#999 = VECTOR('',#1000,1.);
#1000 = DIRECTION('',(0.,0.,-1.));
#1001 = ORIENTED_EDGE('',*,*,#1002,.F.);
#1002 = EDGE_CURVE('',#1003,#995,#1005,.T.);
#1003 = VERTEX_POINT('',#1004);
#1004 = CARTESIAN_POINT('',(18.1,5.914499489473,7.787250448912));
#1005 = LINE('',#1006,#1007);
#1006 = CARTESIAN_POINT('',(18.1,8.8,5.25));
#1007 = VECTOR('',#1008,1.);
#1008 = DIRECTION('',(0.,-0.750970313931,0.660335965698));
#1009 = ORIENTED_EDGE('',*,*,#1010,.F.);
#1010 = EDGE_CURVE('',#1011,#1003,#1013,.T.);
#1011 = VERTEX_POINT('',#1012);
#1012 = CARTESIAN_POINT('',(18.1,8.330932195356,5.662456173049));
#1013 = CIRCLE('',#1014,2.75);
#1014 = AXIS2_PLACEMENT_3D('',#1015,#1016,#1017);
#1015 = CARTESIAN_POINT('',(18.1,5.65,5.05));
#1016 = DIRECTION('',(1.,0.,-0.));
#1017 = DIRECTION('',(0.,0.,1.));
#1018 = ORIENTED_EDGE('',*,*,#1019,.F.);
#1019 = EDGE_CURVE('',#681,#1011,#1020,.T.);
#1020 = LINE('',#1021,#1022);
#1021 = CARTESIAN_POINT('',(18.1,8.8,5.25));
#1022 = VECTOR('',#1023,1.);
#1023 = DIRECTION('',(0.,-0.750970313931,0.660335965698));
#1024 = ORIENTED_EDGE('',*,*,#680,.T.);
#1025 = ORIENTED_EDGE('',*,*,#666,.F.);
#1026 = ORIENTED_EDGE('',*,*,#632,.F.);
#1027 = ORIENTED_EDGE('',*,*,#608,.F.);
#1028 = ORIENTED_EDGE('',*,*,#583,.F.);
#1029 = FACE_BOUND('',#1030,.T.);
#1030 = EDGE_LOOP('',(#1031,#1041,#1050,#1059));
#1031 = ORIENTED_EDGE('',*,*,#1032,.F.);
#1032 = EDGE_CURVE('',#1033,#1035,#1037,.T.);
#1033 = VERTEX_POINT('',#1034);
#1034 = CARTESIAN_POINT('',(18.1,4.422443359984,4.863343077643));
#1035 = VERTEX_POINT('',#1036);
#1036 = CARTESIAN_POINT('',(18.1,4.235786437627,5.05));
#1037 = LINE('',#1038,#1039);
#1038 = CARTESIAN_POINT('',(18.1,6.981488752832,2.304297684795));
#1039 = VECTOR('',#1040,1.);
#1040 = DIRECTION('',(0.,-0.707106781187,0.707106781187));
#1041 = ORIENTED_EDGE('',*,*,#1042,.T.);
#1042 = EDGE_CURVE('',#1033,#1043,#1045,.T.);
#1043 = VERTEX_POINT('',#1044);
#1044 = CARTESIAN_POINT('',(18.1,5.65,6.291666666667));
#1045 = CIRCLE('',#1046,1.241666666667);
#1046 = AXIS2_PLACEMENT_3D('',#1047,#1048,#1049);
#1047 = CARTESIAN_POINT('',(18.1,5.65,5.05));
#1048 = DIRECTION('',(1.,0.,-0.));
#1049 = DIRECTION('',(0.,0.,1.));
#1050 = ORIENTED_EDGE('',*,*,#1051,.T.);
#1051 = EDGE_CURVE('',#1043,#1052,#1054,.T.);
#1052 = VERTEX_POINT('',#1053);
#1053 = CARTESIAN_POINT('',(18.1,4.422443359984,5.236656922357));
#1054 = CIRCLE('',#1055,1.241666666667);
#1055 = AXIS2_PLACEMENT_3D('',#1056,#1057,#1058);
#1056 = CARTESIAN_POINT('',(18.1,5.65,5.05));
#1057 = DIRECTION('',(1.,0.,-0.));
#1058 = DIRECTION('',(0.,0.,1.));
#1059 = ORIENTED_EDGE('',*,*,#1060,.F.);
#1060 = EDGE_CURVE('',#1035,#1052,#1061,.T.);
#1061 = LINE('',#1062,#1063);
#1062 = CARTESIAN_POINT('',(18.1,6.133947398688,6.948160961061));
#1063 = VECTOR('',#1064,1.);
#1064 = DIRECTION('',(0.,0.707106781187,0.707106781187));
#1065 = PLANE('',#1066);
#1066 = AXIS2_PLACEMENT_3D('',#1067,#1068,#1069);
#1067 = CARTESIAN_POINT('',(18.1,12.816406208972,4.062024072899));
#1068 = DIRECTION('',(-1.,-0.,-0.));
#1069 = DIRECTION('',(0.,0.,-1.));
#1070 = ADVANCED_FACE('',(#1071),#1082,.T.);
#1071 = FACE_BOUND('',#1072,.T.);
#1072 = EDGE_LOOP('',(#1073,#1074,#1075,#1076));
#1073 = ORIENTED_EDGE('',*,*,#565,.T.);
#1074 = ORIENTED_EDGE('',*,*,#515,.F.);
#1075 = ORIENTED_EDGE('',*,*,#953,.T.);
#1076 = ORIENTED_EDGE('',*,*,#1077,.T.);
#1077 = EDGE_CURVE('',#946,#557,#1078,.T.);
#1078 = LINE('',#1079,#1080);
#1079 = CARTESIAN_POINT('',(18.1,8.7,3.4));
#1080 = VECTOR('',#1081,1.);
#1081 = DIRECTION('',(1.,0.,0.));
#1082 = PLANE('',#1083);
#1083 = AXIS2_PLACEMENT_3D('',#1084,#1085,#1086);
#1084 = CARTESIAN_POINT('',(18.1,8.7,2.3));
#1085 = DIRECTION('',(0.,1.,0.));
#1086 = DIRECTION('',(0.,0.,1.));
#1087 = ADVANCED_FACE('',(#1088),#1119,.T.);
#1088 = FACE_BOUND('',#1089,.T.);
#1089 = EDGE_LOOP('',(#1090,#1091,#1092,#1093,#1103,#1111));
#1090 = ORIENTED_EDGE('',*,*,#960,.T.);
#1091 = ORIENTED_EDGE('',*,*,#482,.T.);
#1092 = ORIENTED_EDGE('',*,*,#847,.F.);
#1093 = ORIENTED_EDGE('',*,*,#1094,.F.);
#1094 = EDGE_CURVE('',#1095,#840,#1097,.T.);
#1095 = VERTEX_POINT('',#1096);
#1096 = CARTESIAN_POINT('',(29.892261628933,3.45,3.4));
#1097 = B_SPLINE_CURVE_WITH_KNOTS('',4,(#1098,#1099,#1100,#1101,#1102),
  .UNSPECIFIED.,.F.,.F.,(5,5),(0.,1.),.PIECEWISE_BEZIER_KNOTS.);
#1098 = CARTESIAN_POINT('',(29.892261628933,3.45,3.4));
#1099 = CARTESIAN_POINT('',(29.896020181446,3.474139740593,
    3.367813679209));
#1100 = CARTESIAN_POINT('',(29.898635910772,3.498895991126,
    3.336113046707));
#1101 = CARTESIAN_POINT('',(29.9,3.524214831533,3.304969232606));
#1102 = CARTESIAN_POINT('',(29.9,3.55,3.274471909544));
#1103 = ORIENTED_EDGE('',*,*,#1104,.F.);
#1104 = EDGE_CURVE('',#1105,#1095,#1107,.T.);
#1105 = VERTEX_POINT('',#1106);
#1106 = CARTESIAN_POINT('',(18.107738371067,3.45,3.4));
#1107 = LINE('',#1108,#1109);
#1108 = CARTESIAN_POINT('',(18.1,3.45,3.4));
#1109 = VECTOR('',#1110,1.);
#1110 = DIRECTION('',(1.,0.,0.));
#1111 = ORIENTED_EDGE('',*,*,#1112,.F.);
#1112 = EDGE_CURVE('',#961,#1105,#1113,.T.);
#1113 = B_SPLINE_CURVE_WITH_KNOTS('',4,(#1114,#1115,#1116,#1117,#1118),
  .UNSPECIFIED.,.F.,.F.,(5,5),(0.,1.),.PIECEWISE_BEZIER_KNOTS.);
#1114 = CARTESIAN_POINT('',(18.1,3.55,3.274471909544));
#1115 = CARTESIAN_POINT('',(18.1,3.524214831651,3.304969232467));
#1116 = CARTESIAN_POINT('',(18.101364089235,3.498895990995,
    3.336113046869));
#1117 = CARTESIAN_POINT('',(18.103979818541,3.474139740677,
    3.367813679097));
#1118 = CARTESIAN_POINT('',(18.107738371067,3.45,3.4));
#1119 = CYLINDRICAL_SURFACE('',#1120,2.75);
#1120 = AXIS2_PLACEMENT_3D('',#1121,#1122,#1123);
#1121 = CARTESIAN_POINT('',(18.1,5.65,5.05));
#1122 = DIRECTION('',(1.,0.,0.));
#1123 = DIRECTION('',(0.,0.,1.));
#1124 = ADVANCED_FACE('',(#1125),#1131,.F.);
#1125 = FACE_BOUND('',#1126,.T.);
#1126 = EDGE_LOOP('',(#1127,#1128,#1129,#1130));
#1127 = ORIENTED_EDGE('',*,*,#945,.T.);
#1128 = ORIENTED_EDGE('',*,*,#547,.F.);
#1129 = ORIENTED_EDGE('',*,*,#556,.F.);
#1130 = ORIENTED_EDGE('',*,*,#1077,.F.);
#1131 = PLANE('',#1132);
#1132 = AXIS2_PLACEMENT_3D('',#1133,#1134,#1135);
#1133 = CARTESIAN_POINT('',(18.1,8.7,3.4));
#1134 = DIRECTION('',(0.,0.,1.));
#1135 = DIRECTION('',(1.,0.,0.));
#1136 = ADVANCED_FACE('',(#1137),#1148,.F.);
#1137 = FACE_BOUND('',#1138,.F.);
#1138 = EDGE_LOOP('',(#1139,#1140,#1141,#1142));
#1139 = ORIENTED_EDGE('',*,*,#1019,.F.);
#1140 = ORIENTED_EDGE('',*,*,#688,.T.);
#1141 = ORIENTED_EDGE('',*,*,#789,.T.);
#1142 = ORIENTED_EDGE('',*,*,#1143,.F.);
#1143 = EDGE_CURVE('',#1011,#790,#1144,.T.);
#1144 = LINE('',#1145,#1146);
#1145 = CARTESIAN_POINT('',(18.1,8.330932195355,5.662456173049));
#1146 = VECTOR('',#1147,1.);
#1147 = DIRECTION('',(1.,0.,0.));
#1148 = PLANE('',#1149);
#1149 = AXIS2_PLACEMENT_3D('',#1150,#1151,#1152);
#1150 = CARTESIAN_POINT('',(18.1,8.8,5.25));
#1151 = DIRECTION('',(0.,-0.660335965698,-0.750970313931));
#1152 = DIRECTION('',(0.,-0.750970313931,0.660335965698));
#1153 = ADVANCED_FACE('',(#1154),#1165,.T.);
#1154 = FACE_BOUND('',#1155,.T.);
#1155 = EDGE_LOOP('',(#1156,#1157,#1163,#1164));
#1156 = ORIENTED_EDGE('',*,*,#1010,.T.);
#1157 = ORIENTED_EDGE('',*,*,#1158,.T.);
#1158 = EDGE_CURVE('',#1003,#798,#1159,.T.);
#1159 = LINE('',#1160,#1161);
#1160 = CARTESIAN_POINT('',(18.1,5.914499489473,7.787250448912));
#1161 = VECTOR('',#1162,1.);
#1162 = DIRECTION('',(1.,0.,0.));
#1163 = ORIENTED_EDGE('',*,*,#797,.F.);
#1164 = ORIENTED_EDGE('',*,*,#1143,.F.);
#1165 = CYLINDRICAL_SURFACE('',#1166,2.75);
#1166 = AXIS2_PLACEMENT_3D('',#1167,#1168,#1169);
#1167 = CARTESIAN_POINT('',(18.1,5.65,5.05));
#1168 = DIRECTION('',(1.,0.,0.));
#1169 = DIRECTION('',(0.,0.,1.));
#1170 = ADVANCED_FACE('',(#1171),#1182,.F.);
#1171 = FACE_BOUND('',#1172,.F.);
#1172 = EDGE_LOOP('',(#1173,#1174,#1175,#1176));
#1173 = ORIENTED_EDGE('',*,*,#1002,.F.);
#1174 = ORIENTED_EDGE('',*,*,#1158,.T.);
#1175 = ORIENTED_EDGE('',*,*,#806,.T.);
#1176 = ORIENTED_EDGE('',*,*,#1177,.F.);
#1177 = EDGE_CURVE('',#995,#807,#1178,.T.);
#1178 = LINE('',#1179,#1180);
#1179 = CARTESIAN_POINT('',(18.1,5.9,7.8));
#1180 = VECTOR('',#1181,1.);
#1181 = DIRECTION('',(1.,0.,0.));
#1182 = PLANE('',#1183);
#1183 = AXIS2_PLACEMENT_3D('',#1184,#1185,#1186);
#1184 = CARTESIAN_POINT('',(18.1,8.8,5.25));
#1185 = DIRECTION('',(0.,-0.660335965698,-0.750970313931));
#1186 = DIRECTION('',(0.,-0.750970313931,0.660335965698));
#1187 = ADVANCED_FACE('',(#1188),#1216,.T.);
#1188 = FACE_BOUND('',#1189,.F.);
#1189 = EDGE_LOOP('',(#1190,#1199,#1207,#1214,#1215));
#1190 = ORIENTED_EDGE('',*,*,#1191,.T.);
#1191 = EDGE_CURVE('',#1095,#1192,#1194,.T.);
#1192 = VERTEX_POINT('',#1193);
#1193 = CARTESIAN_POINT('',(29.25,2.9,3.4));
#1194 = CIRCLE('',#1195,0.65);
#1195 = AXIS2_PLACEMENT_3D('',#1196,#1197,#1198);
#1196 = CARTESIAN_POINT('',(29.25,3.55,3.4));
#1197 = DIRECTION('',(-0.,0.,-1.));
#1198 = DIRECTION('',(-5.465713352001E-15,-1.,0.));
#1199 = ORIENTED_EDGE('',*,*,#1200,.T.);
#1200 = EDGE_CURVE('',#1192,#1201,#1203,.T.);
#1201 = VERTEX_POINT('',#1202);
#1202 = CARTESIAN_POINT('',(29.25,2.9,7.8));
#1203 = LINE('',#1204,#1205);
#1204 = CARTESIAN_POINT('',(29.25,2.9,2.2));
#1205 = VECTOR('',#1206,1.);
#1206 = DIRECTION('',(0.,0.,1.));
#1207 = ORIENTED_EDGE('',*,*,#1208,.F.);
#1208 = EDGE_CURVE('',#832,#1201,#1209,.T.);
#1209 = CIRCLE('',#1210,0.65);
#1210 = AXIS2_PLACEMENT_3D('',#1211,#1212,#1213);
#1211 = CARTESIAN_POINT('',(29.25,3.55,7.8));
#1212 = DIRECTION('',(-0.,0.,-1.));
#1213 = DIRECTION('',(-5.465713352001E-15,-1.,0.));
#1214 = ORIENTED_EDGE('',*,*,#839,.F.);
#1215 = ORIENTED_EDGE('',*,*,#1094,.F.);
#1216 = CYLINDRICAL_SURFACE('',#1217,0.65);
#1217 = AXIS2_PLACEMENT_3D('',#1218,#1219,#1220);
#1218 = CARTESIAN_POINT('',(29.25,3.55,2.2));
#1219 = DIRECTION('',(-0.,-0.,-1.));
#1220 = DIRECTION('',(-5.465713352001E-15,-1.,0.));
#1221 = ADVANCED_FACE('',(#1222),#1233,.F.);
#1222 = FACE_BOUND('',#1223,.F.);
#1223 = EDGE_LOOP('',(#1224,#1225,#1226,#1227));
#1224 = ORIENTED_EDGE('',*,*,#994,.F.);
#1225 = ORIENTED_EDGE('',*,*,#1177,.T.);
#1226 = ORIENTED_EDGE('',*,*,#814,.T.);
#1227 = ORIENTED_EDGE('',*,*,#1228,.F.);
#1228 = EDGE_CURVE('',#986,#815,#1229,.T.);
#1229 = LINE('',#1230,#1231);
#1230 = CARTESIAN_POINT('',(18.1,5.9,7.788612787526));
#1231 = VECTOR('',#1232,1.);
#1232 = DIRECTION('',(1.,0.,0.));
#1233 = PLANE('',#1234);
#1234 = AXIS2_PLACEMENT_3D('',#1235,#1236,#1237);
#1235 = CARTESIAN_POINT('',(18.1,5.9,7.8));
#1236 = DIRECTION('',(0.,1.,0.));
#1237 = DIRECTION('',(0.,0.,-1.));
#1238 = ADVANCED_FACE('',(#1239),#1265,.T.);
#1239 = FACE_BOUND('',#1240,.T.);
#1240 = EDGE_LOOP('',(#1241,#1242,#1251,#1257,#1258,#1259));
#1241 = ORIENTED_EDGE('',*,*,#977,.F.);
#1242 = ORIENTED_EDGE('',*,*,#1243,.F.);
#1243 = EDGE_CURVE('',#1244,#970,#1246,.T.);
#1244 = VERTEX_POINT('',#1245);
#1245 = CARTESIAN_POINT('',(18.75,2.9,7.8));
#1246 = CIRCLE('',#1247,0.65);
#1247 = AXIS2_PLACEMENT_3D('',#1248,#1249,#1250);
#1248 = CARTESIAN_POINT('',(18.75,3.55,7.8));
#1249 = DIRECTION('',(0.,0.,-1.));
#1250 = DIRECTION('',(-1.,5.465713352001E-15,0.));
#1251 = ORIENTED_EDGE('',*,*,#1252,.T.);
#1252 = EDGE_CURVE('',#1244,#1201,#1253,.T.);
#1253 = LINE('',#1254,#1255);
#1254 = CARTESIAN_POINT('',(18.1,2.9,7.8));
#1255 = VECTOR('',#1256,1.);
#1256 = DIRECTION('',(1.,0.,0.));
#1257 = ORIENTED_EDGE('',*,*,#1208,.F.);
#1258 = ORIENTED_EDGE('',*,*,#831,.T.);
#1259 = ORIENTED_EDGE('',*,*,#1260,.F.);
#1260 = EDGE_CURVE('',#978,#823,#1261,.T.);
#1261 = LINE('',#1262,#1263);
#1262 = CARTESIAN_POINT('',(18.1,5.65,7.8));
#1263 = VECTOR('',#1264,1.);
#1264 = DIRECTION('',(1.,0.,0.));
#1265 = PLANE('',#1266);
#1266 = AXIS2_PLACEMENT_3D('',#1267,#1268,#1269);
#1267 = CARTESIAN_POINT('',(18.1,2.9,7.8));
#1268 = DIRECTION('',(0.,0.,1.));
#1269 = DIRECTION('',(1.,0.,0.));
#1270 = ADVANCED_FACE('',(#1271),#1277,.T.);
#1271 = FACE_BOUND('',#1272,.T.);
#1272 = EDGE_LOOP('',(#1273,#1274,#1275,#1276));
#1273 = ORIENTED_EDGE('',*,*,#985,.T.);
#1274 = ORIENTED_EDGE('',*,*,#1260,.T.);
#1275 = ORIENTED_EDGE('',*,*,#822,.F.);
#1276 = ORIENTED_EDGE('',*,*,#1228,.F.);
#1277 = CYLINDRICAL_SURFACE('',#1278,2.75);
#1278 = AXIS2_PLACEMENT_3D('',#1279,#1280,#1281);
#1279 = CARTESIAN_POINT('',(18.1,5.65,5.05));
#1280 = DIRECTION('',(1.,0.,0.));
#1281 = DIRECTION('',(0.,0.,1.));
#1282 = ADVANCED_FACE('',(#1283),#1317,.F.);
#1283 = FACE_BOUND('',#1284,.F.);
#1284 = EDGE_LOOP('',(#1285,#1286,#1295,#1303,#1310,#1311));
#1285 = ORIENTED_EDGE('',*,*,#1032,.F.);
#1286 = ORIENTED_EDGE('',*,*,#1287,.T.);
#1287 = EDGE_CURVE('',#1033,#1288,#1290,.T.);
#1288 = VERTEX_POINT('',#1289);
#1289 = CARTESIAN_POINT('',(18.39,4.942893218813,4.342893218813));
#1290 = HYPERBOLA('',#1291,1.2,1.);
#1291 = AXIS2_PLACEMENT_3D('',#1292,#1293,#1294);
#1292 = CARTESIAN_POINT('',(19.59,4.942893218813,4.342893218813));
#1293 = DIRECTION('',(-0.,-0.707106781187,-0.707106781187));
#1294 = DIRECTION('',(-1.,0.,0.));
#1295 = ORIENTED_EDGE('',*,*,#1296,.T.);
#1296 = EDGE_CURVE('',#1288,#1297,#1299,.T.);
#1297 = VERTEX_POINT('',#1298);
#1298 = CARTESIAN_POINT('',(29.61,4.942893218813,4.342893218813));
#1299 = LINE('',#1300,#1301);
#1300 = CARTESIAN_POINT('',(18.07,4.942893218813,4.342893218813));
#1301 = VECTOR('',#1302,1.);
#1302 = DIRECTION('',(1.,0.,0.));
#1303 = ORIENTED_EDGE('',*,*,#1304,.T.);
#1304 = EDGE_CURVE('',#1297,#876,#1305,.T.);
#1305 = HYPERBOLA('',#1306,1.2,1.);
#1306 = AXIS2_PLACEMENT_3D('',#1307,#1308,#1309);
#1307 = CARTESIAN_POINT('',(28.41,4.942893218813,4.342893218813));
#1308 = DIRECTION('',(0.,-0.707106781187,-0.707106781187));
#1309 = DIRECTION('',(1.,0.,0.));
#1310 = ORIENTED_EDGE('',*,*,#873,.F.);
#1311 = ORIENTED_EDGE('',*,*,#1312,.F.);
#1312 = EDGE_CURVE('',#1035,#874,#1313,.T.);
#1313 = LINE('',#1314,#1315);
#1314 = CARTESIAN_POINT('',(18.07,4.235786437627,5.05));
#1315 = VECTOR('',#1316,1.);
#1316 = DIRECTION('',(1.,0.,0.));
#1317 = PLANE('',#1318);
#1318 = AXIS2_PLACEMENT_3D('',#1319,#1320,#1321);
#1319 = CARTESIAN_POINT('',(18.07,4.942893218813,4.342893218813));
#1320 = DIRECTION('',(0.,-0.707106781187,-0.707106781187));
#1321 = DIRECTION('',(0.,-0.707106781187,0.707106781187));
#1322 = ADVANCED_FACE('',(#1323),#1342,.F.);
#1323 = FACE_BOUND('',#1324,.F.);
#1324 = EDGE_LOOP('',(#1325,#1334,#1340,#1341));
#1325 = ORIENTED_EDGE('',*,*,#1326,.F.);
#1326 = EDGE_CURVE('',#1327,#1297,#1329,.T.);
#1327 = VERTEX_POINT('',#1328);
#1328 = CARTESIAN_POINT('',(29.61,5.65,4.05));
#1329 = CIRCLE('',#1330,1.);
#1330 = AXIS2_PLACEMENT_3D('',#1331,#1332,#1333);
#1331 = CARTESIAN_POINT('',(29.61,5.65,5.05));
#1332 = DIRECTION('',(-1.,0.,0.));
#1333 = DIRECTION('',(0.,0.,-1.));
#1334 = ORIENTED_EDGE('',*,*,#1335,.F.);
#1335 = EDGE_CURVE('',#892,#1327,#1336,.T.);
#1336 = LINE('',#1337,#1338);
#1337 = CARTESIAN_POINT('',(29.91,5.65,3.8));
#1338 = VECTOR('',#1339,1.);
#1339 = DIRECTION('',(-0.768221279597,-1.567999551826E-16,0.640184399664
    ));
#1340 = ORIENTED_EDGE('',*,*,#900,.T.);
#1341 = ORIENTED_EDGE('',*,*,#1304,.F.);
#1342 = CONICAL_SURFACE('',#1343,1.25,0.694738276197);
#1343 = AXIS2_PLACEMENT_3D('',#1344,#1345,#1346);
#1344 = CARTESIAN_POINT('',(29.91,5.65,5.05));
#1345 = DIRECTION('',(1.,0.,0.));
#1346 = DIRECTION('',(0.,0.,-1.));
#1347 = ADVANCED_FACE('',(#1348),#1368,.F.);
#1348 = FACE_BOUND('',#1349,.F.);
#1349 = EDGE_LOOP('',(#1350,#1351,#1360,#1367));
#1350 = ORIENTED_EDGE('',*,*,#1335,.T.);
#1351 = ORIENTED_EDGE('',*,*,#1352,.F.);
#1352 = EDGE_CURVE('',#1353,#1327,#1355,.T.);
#1353 = VERTEX_POINT('',#1354);
#1354 = CARTESIAN_POINT('',(29.61,4.942893218813,5.757106781187));
#1355 = CIRCLE('',#1356,1.);
#1356 = AXIS2_PLACEMENT_3D('',#1357,#1358,#1359);
#1357 = CARTESIAN_POINT('',(29.61,5.65,5.05));
#1358 = DIRECTION('',(-1.,0.,0.));
#1359 = DIRECTION('',(0.,0.,-1.));
#1360 = ORIENTED_EDGE('',*,*,#1361,.F.);
#1361 = EDGE_CURVE('',#884,#1353,#1362,.T.);
#1362 = HYPERBOLA('',#1363,1.2,1.);
#1363 = AXIS2_PLACEMENT_3D('',#1364,#1365,#1366);
#1364 = CARTESIAN_POINT('',(28.41,4.942893218813,5.757106781187));
#1365 = DIRECTION('',(0.,-0.707106781187,0.707106781187));
#1366 = DIRECTION('',(1.,0.,0.));
#1367 = ORIENTED_EDGE('',*,*,#891,.T.);
#1368 = CONICAL_SURFACE('',#1369,1.25,0.694738276197);
#1369 = AXIS2_PLACEMENT_3D('',#1370,#1371,#1372);
#1370 = CARTESIAN_POINT('',(29.91,5.65,5.05));
#1371 = DIRECTION('',(1.,0.,0.));
#1372 = DIRECTION('',(0.,0.,-1.));
#1373 = ADVANCED_FACE('',(#1374),#1395,.F.);
#1374 = FACE_BOUND('',#1375,.F.);
#1375 = EDGE_LOOP('',(#1376,#1377,#1378,#1379,#1380,#1388));
#1376 = ORIENTED_EDGE('',*,*,#1060,.F.);
#1377 = ORIENTED_EDGE('',*,*,#1312,.T.);
#1378 = ORIENTED_EDGE('',*,*,#883,.F.);
#1379 = ORIENTED_EDGE('',*,*,#1361,.T.);
#1380 = ORIENTED_EDGE('',*,*,#1381,.F.);
#1381 = EDGE_CURVE('',#1382,#1353,#1384,.T.);
#1382 = VERTEX_POINT('',#1383);
#1383 = CARTESIAN_POINT('',(18.39,4.942893218813,5.757106781187));
#1384 = LINE('',#1385,#1386);
#1385 = CARTESIAN_POINT('',(18.07,4.942893218813,5.757106781187));
#1386 = VECTOR('',#1387,1.);
#1387 = DIRECTION('',(1.,0.,0.));
#1388 = ORIENTED_EDGE('',*,*,#1389,.T.);
#1389 = EDGE_CURVE('',#1382,#1052,#1390,.T.);
#1390 = HYPERBOLA('',#1391,1.2,1.);
#1391 = AXIS2_PLACEMENT_3D('',#1392,#1393,#1394);
#1392 = CARTESIAN_POINT('',(19.59,4.942893218813,5.757106781187));
#1393 = DIRECTION('',(0.,-0.707106781187,0.707106781187));
#1394 = DIRECTION('',(-1.,0.,0.));
#1395 = PLANE('',#1396);
#1396 = AXIS2_PLACEMENT_3D('',#1397,#1398,#1399);
#1397 = CARTESIAN_POINT('',(18.07,4.235786437627,5.05));
#1398 = DIRECTION('',(0.,-0.707106781187,0.707106781187));
#1399 = DIRECTION('',(0.,0.707106781187,0.707106781187));
#1400 = ADVANCED_FACE('',(#1401),#1421,.T.);
#1401 = FACE_BOUND('',#1402,.F.);
#1402 = EDGE_LOOP('',(#1403,#1404,#1405,#1406,#1414));
#1403 = ORIENTED_EDGE('',*,*,#1112,.F.);
#1404 = ORIENTED_EDGE('',*,*,#969,.T.);
#1405 = ORIENTED_EDGE('',*,*,#1243,.F.);
#1406 = ORIENTED_EDGE('',*,*,#1407,.F.);
#1407 = EDGE_CURVE('',#1408,#1244,#1410,.T.);
#1408 = VERTEX_POINT('',#1409);
#1409 = CARTESIAN_POINT('',(18.75,2.9,3.4));
#1410 = LINE('',#1411,#1412);
#1411 = CARTESIAN_POINT('',(18.75,2.9,2.2));
#1412 = VECTOR('',#1413,1.);
#1413 = DIRECTION('',(0.,0.,1.));
#1414 = ORIENTED_EDGE('',*,*,#1415,.T.);
#1415 = EDGE_CURVE('',#1408,#1105,#1416,.T.);
#1416 = CIRCLE('',#1417,0.65);
#1417 = AXIS2_PLACEMENT_3D('',#1418,#1419,#1420);
#1418 = CARTESIAN_POINT('',(18.75,3.55,3.4));
#1419 = DIRECTION('',(0.,0.,-1.));
#1420 = DIRECTION('',(-1.,5.465713352001E-15,0.));
#1421 = CYLINDRICAL_SURFACE('',#1422,0.65);
#1422 = AXIS2_PLACEMENT_3D('',#1423,#1424,#1425);
#1423 = CARTESIAN_POINT('',(18.75,3.55,2.2));
#1424 = DIRECTION('',(-0.,-0.,-1.));
#1425 = DIRECTION('',(-1.,5.465713352001E-15,0.));
#1426 = ADVANCED_FACE('',(#1427),#1446,.F.);
#1427 = FACE_BOUND('',#1428,.F.);
#1428 = EDGE_LOOP('',(#1429,#1438,#1444,#1445));
#1429 = ORIENTED_EDGE('',*,*,#1430,.F.);
#1430 = EDGE_CURVE('',#1431,#1382,#1433,.T.);
#1431 = VERTEX_POINT('',#1432);
#1432 = CARTESIAN_POINT('',(18.39,5.65,6.05));
#1433 = CIRCLE('',#1434,1.);
#1434 = AXIS2_PLACEMENT_3D('',#1435,#1436,#1437);
#1435 = CARTESIAN_POINT('',(18.39,5.65,5.05));
#1436 = DIRECTION('',(1.,0.,-0.));
#1437 = DIRECTION('',(0.,0.,1.));
#1438 = ORIENTED_EDGE('',*,*,#1439,.F.);
#1439 = EDGE_CURVE('',#1043,#1431,#1440,.T.);
#1440 = LINE('',#1441,#1442);
#1441 = CARTESIAN_POINT('',(18.09,5.65,6.3));
#1442 = VECTOR('',#1443,1.);
#1443 = DIRECTION('',(0.768221279597,-1.567999551826E-16,-0.640184399664
    ));
#1444 = ORIENTED_EDGE('',*,*,#1051,.T.);
#1445 = ORIENTED_EDGE('',*,*,#1389,.F.);
#1446 = CONICAL_SURFACE('',#1447,1.25,0.694738276197);
#1447 = AXIS2_PLACEMENT_3D('',#1448,#1449,#1450);
#1448 = CARTESIAN_POINT('',(18.09,5.65,5.05));
#1449 = DIRECTION('',(-1.,-0.,-0.));
#1450 = DIRECTION('',(0.,0.,1.));
#1451 = ADVANCED_FACE('',(#1452),#1464,.F.);
#1452 = FACE_BOUND('',#1453,.F.);
#1453 = EDGE_LOOP('',(#1454,#1455,#1462,#1463));
#1454 = ORIENTED_EDGE('',*,*,#1439,.T.);
#1455 = ORIENTED_EDGE('',*,*,#1456,.F.);
#1456 = EDGE_CURVE('',#1288,#1431,#1457,.T.);
#1457 = CIRCLE('',#1458,1.);
#1458 = AXIS2_PLACEMENT_3D('',#1459,#1460,#1461);
#1459 = CARTESIAN_POINT('',(18.39,5.65,5.05));
#1460 = DIRECTION('',(1.,0.,-0.));
#1461 = DIRECTION('',(0.,0.,1.));
#1462 = ORIENTED_EDGE('',*,*,#1287,.F.);
#1463 = ORIENTED_EDGE('',*,*,#1042,.T.);
#1464 = CONICAL_SURFACE('',#1465,1.25,0.694738276197);
#1465 = AXIS2_PLACEMENT_3D('',#1466,#1467,#1468);
#1466 = CARTESIAN_POINT('',(18.09,5.65,5.05));
#1467 = DIRECTION('',(-1.,-0.,-0.));
#1468 = DIRECTION('',(0.,0.,1.));
#1469 = ADVANCED_FACE('',(#1470),#1481,.F.);
#1470 = FACE_BOUND('',#1471,.F.);
#1471 = EDGE_LOOP('',(#1472,#1473,#1479,#1480));
#1472 = ORIENTED_EDGE('',*,*,#1415,.F.);
#1473 = ORIENTED_EDGE('',*,*,#1474,.T.);
#1474 = EDGE_CURVE('',#1408,#1192,#1475,.T.);
#1475 = LINE('',#1476,#1477);
#1476 = CARTESIAN_POINT('',(18.1,2.9,3.4));
#1477 = VECTOR('',#1478,1.);
#1478 = DIRECTION('',(1.,0.,0.));
#1479 = ORIENTED_EDGE('',*,*,#1191,.F.);
#1480 = ORIENTED_EDGE('',*,*,#1104,.F.);
#1481 = PLANE('',#1482);
#1482 = AXIS2_PLACEMENT_3D('',#1483,#1484,#1485);
#1483 = CARTESIAN_POINT('',(18.1,2.9,3.4));
#1484 = DIRECTION('',(0.,0.,1.));
#1485 = DIRECTION('',(1.,0.,0.));
#1486 = ADVANCED_FACE('',(#1487),#1493,.T.);
#1487 = FACE_BOUND('',#1488,.T.);
#1488 = EDGE_LOOP('',(#1489,#1490,#1491,#1492));
#1489 = ORIENTED_EDGE('',*,*,#1474,.T.);
#1490 = ORIENTED_EDGE('',*,*,#1200,.T.);
#1491 = ORIENTED_EDGE('',*,*,#1252,.F.);
#1492 = ORIENTED_EDGE('',*,*,#1407,.F.);
#1493 = PLANE('',#1494);
#1494 = AXIS2_PLACEMENT_3D('',#1495,#1496,#1497);
#1495 = CARTESIAN_POINT('',(24.,2.9,5.6));
#1496 = DIRECTION('',(-0.,-1.,-0.));
#1497 = DIRECTION('',(0.,0.,-1.));
#1498 = ADVANCED_FACE('',(#1499),#1507,.F.);
#1499 = FACE_BOUND('',#1500,.F.);
#1500 = EDGE_LOOP('',(#1501,#1502,#1503,#1504,#1505,#1506));
#1501 = ORIENTED_EDGE('',*,*,#1296,.F.);
#1502 = ORIENTED_EDGE('',*,*,#1456,.T.);
#1503 = ORIENTED_EDGE('',*,*,#1430,.T.);
#1504 = ORIENTED_EDGE('',*,*,#1381,.T.);
#1505 = ORIENTED_EDGE('',*,*,#1352,.T.);
#1506 = ORIENTED_EDGE('',*,*,#1326,.T.);
#1507 = CYLINDRICAL_SURFACE('',#1508,1.);
#1508 = AXIS2_PLACEMENT_3D('',#1509,#1510,#1511);
#1509 = CARTESIAN_POINT('',(18.07,5.65,5.05));
#1510 = DIRECTION('',(1.,0.,0.));
#1511 = DIRECTION('',(0.,0.,1.));
#1512 = ( GEOMETRIC_REPRESENTATION_CONTEXT(3)
GLOBAL_UNCERTAINTY_ASSIGNED_CONTEXT((#1516))
GLOBAL_UNIT_ASSIGNED_CONTEXT((#1513,#1514,#1515)) REPRESENTATION_CONTEXT
('Context #1','3D Context with UNIT and UNCERTAINTY') );
#1513 = ( LENGTH_UNIT() NAMED_UNIT(*) SI_UNIT(.MILLI.,.METRE.) );
#1514 = ( NAMED_UNIT(*) PLANE_ANGLE_UNIT() SI_UNIT($,.RADIAN.) );
#1515 = ( NAMED_UNIT(*) SI_UNIT($,.STERADIAN.) SOLID_ANGLE_UNIT() );
#1516 = UNCERTAINTY_MEASURE_WITH_UNIT(LENGTH_MEASURE(1.E-07),#1513,
  'distance_accuracy_value','confusion accuracy');
#1517 = PRODUCT_RELATED_PRODUCT_CATEGORY('part',$,(#7));
ENDSEC;
END-ISO-10303-21;
